<svg xmlns="http://www.w3.org/2000/svg" viewBox="0 0 200.5 200.5"><path fill="#0EC1BC" d="M192.1 120.6l-71.5 71.5c-11.2 11.2-29.5 11.2-40.7 0L8.4 120.6c-11.2-11.2-11.2-29.5 0-40.7L79.9 8.4c11.2-11.2 29.5-11.2 40.7 0l71.5 71.5c11.2 11.2 11.2 29.5 0 40.7z"/><ellipse cx="101.6" cy="123.7" fill="#27A09A" rx="68.5" ry="23.1" transform="matrix(.9958 -.09115 .09115 .9958 -10.856 9.773)"/><path fill="#FFF" d="M153.4 80.8c-.8-30.3-37.1-32.9-37.1-32.9L47.3 94l-.2.2V96v-1.8 32.6c0 2.6 2.6 4.6 5.4 4.3l95.7-12.2c3-.4 5.2-2.7 5.2-5.4V80.8z"/><path fill="#F9E17A" d="M131.7 110.4l-19.8 2.7c.2 3.3.3 6.6-.4 9.8-.1.3-.1.5-.2.8l20.3-2.9c.2-1.5.2-3.1.2-4.6 0-2-.1-3.9-.1-5.8z"/><path fill="#F6D555" d="M111.9 113.1l-20 2.7c-.2 3.6-.3 7.2-.7 10.7l20.1-2.8c.1-.3.1-.5.2-.8.7-3.3.6-6.5.4-9.8z"/><path fill="#EDBA3B" d="M47.3 121.9v5.3c0 2.9 2.5 5.1 5.4 4.7l11.1-1.6c.9-3.6 1.5-7.2 2-10.9l-18.5 2.5z"/><path fill="#EFC643" d="M65.8 119.4c-.4 3.7-1.1 7.3-2 10.9l27.3-3.8c.5-3.5.5-7.1.7-10.7l-26 3.6z"/><path fill="#F9ECB7" d="M131.8 116.1c0 1.5 0 3.1-.2 4.6l16.4-2.3c3-.4 5.2-2.9 5.2-5.9v-5.1l-21.5 2.9c0 2 .1 3.9.1 5.8z"/><path fill="#F9E17A" d="M111.5 106.4l20.6-3.1c.2-1.4.6-2.7 1.1-4l-21.5 3.1c-.2 1.3-.2 2.6-.2 4z"/><path fill="#F9ECB7" d="M132.1 103.2l21.1-3.2v-3.7l-20 2.9c-.5 1.3-.9 2.7-1.1 4z"/><path fill="#EDBA3B" d="M68.6 108.8l.1-.1-21.4 3.1v4.3l19.3-2.9c.4-1.6 1-3.1 2-4.4z"/><path fill="#F6D555" d="M111.5 106.4c0-1.3 0-2.7.1-4l-17.3 2.5c-.8 1.3-1.3 2.8-1.7 4.3l18.9-2.8z"/><path fill="#EFC643" d="M66.7 113.2l26.1-4c.4-1.5.9-3 1.7-4.3l-25.7 3.8-.1.1c-1.1 1.3-1.7 2.8-2 4.4z"/><path fill="none" d="M135.6 83.5h0z"/><path fill="#F6D555" d="M135.7 83.5h-.1c-.1.2.1 0 .1 0z"/><path fill="#F9ECB7" d="M123.4 92.1c1.2 1.3 1.8 3 2.2 4.7.3 1.2.5 2.6-.1 3.7s-2.2 1.7-3.1.8c-1-1-.4-2.6.1-3.9.7-1.9.9-4.1.5-6.1M112 95.6c-.2 1.2.1 2.4.5 3.6.6-.1 1.1-.3 1.5-.7 2.1-1.7.4-4.4.5-6.4-1.4.6-2.3 2-2.5 3.5z"/><path fill="#F9ECB7" d="M123.4 93.6c-1.1 3.1-.7 6.6.6 9.7.3 0 .7 0 1-.1 1.6-.5 1.9-1.8 2-3 .2-2.7-.8-5.4-.9-8.2 0-1 .1-2.1.4-3.1-1.4 1.2-2.5 2.9-3.1 4.7zM139.9 54.5c3 4.4 4.6 9.7 4.4 15.1-.1 2.3-.5 4.6-1.9 6.4-1.1 1.4-2.7 2.4-4.1 3.5-1.3 1.1-2.6 2.4-2.9 4.1.1 0 .2-.1.3-.1h.1l15.5-1.8c1-.1 1.8-1 1.7-2-.8-12.2-6.4-20.1-13.1-25.2z"/><path fill="#F6D555" d="M131.2 65.6c-1.9-5.5-5-9.4-9.5-11.7 2.2 3.8 3.1 8.4 2.2 12.8-.5 2.3-1.4 4.6-3.1 6.3-2.4 2.3-5.8 2.9-9 3.6-4.7 1-9.5 2.1-13.6 4.7-2.5 1.5-4.8 3.7-6.3 6.2l-.2.2c-.7.8-1.3 1.6-1.8 2.5h.1c.7.9.6 2.1.3 3.2s-.9 2.2-1 3.4c-.2 1.9 1.2 4.1 3.4 4 .9 0 1.8-.5 2.2-1.3.8-1.4 0-2.9-.5-4.4-.4-1.1-.6-2.3-.7-3.5 0-.7 0-1.5.6-2l5.3-.7c-1 .2-2 .4-2.9.6l3.1-.6 5.3-.7c.4 0 .7.1 1.1.3 1.2.6 1.6 2 1.7 3.2.1 1.3-.2 2.6 0 3.8.2 1.7 1.5 3.4 3.2 3.8-.3-.7-.5-1.3-.7-2-1-3.6-.7-7.5.1-11.2.2-1.1.5-2.2 1-3.1.4-.7.9-1.2 1.6-1.7.5-.4 1-.7 1.5-1 2.8-1.4 6-1.5 9.1-2 3.1-.6 6.3-1.9 7.7-4.7 1.2-2.6.7-5.5-.2-8z"/><path fill="none" d="M116.8 52.2c-.2 0-.3-.1-.5-.1.2.1.3.1.5.1zM117.8 52.5c-.3-.1-.6-.2-1-.2.3 0 .6.1 1 .2zM117.9 52.5c.4.1.8.2 1.2.4-.4-.2-.8-.3-1.2-.4zM119.2 52.9c.9.3 1.7.6 2.5 1-.8-.4-1.6-.7-2.5-1z"/><path fill="#F9E17A" d="M115.2 51.3c0 .2 0 .4.1.6h.1v-.5c-.1 0-.1-.1-.2-.1z"/><path fill="#F9E17A" d="M139.9 54.5c-10.6-8.2-23.9-9.2-23.9-9.2l-1.2.9-2.5 1.8-2.5 1.8c1 .2 1.9.4 2.9.7.5.7 1.4 1.1 2.5 1.4-.1-.2-.1-.4-.1-.6.1 0 .1.1.2.1v.5c.3.1.6.1.9.2.2 0 .3.1.5.1.3.1.6.1 1 .2h.2c.4.1.8.2 1.2.4h.1c.9.3 1.7.6 2.5 1 4.5 2.3 7.6 6.2 9.5 11.7.9 2.5 1.4 5.4.2 7.8-1.4 2.8-4.6 4.1-7.7 4.7-3.1.6-6.3.7-9.1 2-1.2.6-2.4 1.5-3.1 2.7-.6 1-.8 2.1-1 3.1-.7 3.7-1 7.6-.1 11.2.2.7.4 1.4.7 2 .2 0 .4.1.7.1.2 0 .4 0 .6-.1-.4-1.2-.6-2.4-.5-3.6.2-1.5 1.1-2.9 2.5-3.5 0-.6.3-1.2.8-1.6.8-.6 2-.6 2.8.1 1.7 1.5 1.5 3.6 1.5 5.5 0 2.3.3 4.8 2.1 6.3.6.5 1.4.8 2.2.8-1.3-3-1.6-6.5-.6-9.7.6-1.8 1.7-3.5 3.2-4.8.6-1.7 1.7-3.1 3.3-3.5.6-.1 4.3-1.4 5.4-1.8.3-1.7 1.5-3 2.9-4.1 1.4-1.1 3-2.1 4.1-3.5 1.4-1.8 1.9-4.2 1.9-6.4.5-4.9-1.1-10.3-4.1-14.7z"/><path fill="#EFC643" d="M115.4 51.9v.2c.3.4 1 .4 1.4.1-.2 0-.3-.1-.5-.1-.3 0-.6-.1-.9-.2zM117.8 52.5h.2-.2zM121.7 53.9zM119.1 52.9c.1 0 .1 0 0 0 .1 0 .1 0 0 0z"/><path fill="#EDBA3B" d="M93.8 73c6.4-1.8 13.2-2.7 18.7-6.5 1.5-1 2.8-2.3 3.7-3.9 1.3-2.5 1.2-5.8-.3-8.2-1.4-2.3-3.9-3.9-6.6-4.2L48.9 94.8c-.4.3-.2 1 .4 1l11.9-1.6C69.6 84 81.1 76.5 93.8 73z"/><path fill="#EFC643" d="M121.7 53.9c-.8-.4-1.6-.7-2.5-1h-.1c-.4-.1-.8-.3-1.2-.4h-.2c-.3-.1-.6-.2-1-.2-.4.3-1.1.3-1.4-.1V52h-.1v0c-1.1-.3-2-.6-2.5-1.4-1-.3-1.9-.5-2.9-.7l-.6.4c2.7.3 5.2 1.9 6.6 4.2 1.5 2.5 1.6 5.7.3 8.2-.8 1.6-2.2 2.8-3.7 3.9-5.4 3.8-12.3 4.7-18.7 6.5C81 76.6 69.5 84.1 61 94.2l28.7-3.9c.5-.9 1.1-1.8 1.8-2.5l.2-.2c1.5-2.5 3.8-4.7 6.3-6.2 4.1-2.5 8.9-3.7 13.6-4.7 3.2-.7 6.6-1.3 9-3.6 1.7-1.6 2.7-3.9 3.1-6.3 1-4.4.2-9-2-12.9z"/><path fill="none" stroke="#FFF" stroke-linecap="round" stroke-linejoin="round" stroke-miterlimit="10" stroke-width="5.074" d="M154.1 80.8c-.8-31.6-37.6-34.4-37.6-34.4L46.6 94.6h0l-.2.2h0v34c0 2.7 2.6 4.8 5.5 4.5l97-12.7c3-.4 5.3-2.8 5.3-5.6V92.9l-.1-12.1h0z"/></svg>