<svg xmlns="http://www.w3.org/2000/svg" data-name="Layer 1" viewBox="0 0 60.38 89.07"><path fill="#f9be1a" d="M30.24 0a10.18 10.18 0 0 1 1.22 10.34 55.31 55.31 0 0 1-3.63 7c-5.64 9.86-11.29 19.67-16.87 29.55a28.67 28.67 0 0 0-3.77 11.27c-.92 9 5.78 20.8 17.54 23.15a24.26 24.26 0 0 0 26.4-11.84c2.8-4.89 3-10.07 1.53-15.41s-4.69-9.66-8.33-13.7c-1.66-1.84-3.36-3.65-5-5.52a1.2 1.2 0 0 1-.21-1.08c1.12-2.11 2.32-4.17 3.59-6.44 1.66 1.91 3.25 3.68 4.78 5.51a71.47 71.47 0 0 1 10.1 14.71c8.6 17.75-3.78 39-22.4 41.2-8.67 1-16.87-.16-23.91-5.76A30.33 30.33 0 0 1 .45 65.24a14.24 14.24 0 0 0-.45-1.4v-5.52c.22-1.37.37-2.76.66-4.12 1.11-5.29 3.81-9.87 6.53-14.44 5.61-9.43 11.27-18.84 16.8-28.32 2.16-3.72 4-7.62 6-11.44zm6 13.71a257.93 257.93 0 0 1-16.7 29.19c-1.83 2.85-3.73 5.69-5.35 8.64-6.09 11.67 3 25.35 15.6 25.11 5.2-.1 9.83-1.37 13.4-5.28 3.9-4.27 5.76-9.25 4.56-15.09a22.84 22.84 0 0 0-4.82-9.54c-2.13-2.67-4.47-5.17-6.84-7.9l-4 7.11c.86.92 1.65 1.72 2.38 2.56 2 2.27 3.91 4.55 4.92 7.45a9.81 9.81 0 0 1-5.43 12.33c-4 1.55-10.25 1-12.91-4.8-1.58-3.47-1.06-6.78.79-10q6.78-11.65 13.58-23.29a20 20 0 0 0 3.08-9.83 13.24 13.24 0 0 0-1.83-7.39c-.2.38-.31.56-.39.73zM25.51 57.66a4.35 4.35 0 0 0 1.68 5.2 5.24 5.24 0 0 0 6-.13 4.5 4.5 0 0 0 1.42-5.28c-1.34-2.66-2.89-5.21-4.49-8.06-1.68 2.9-3.28 5.52-4.61 8.27z"/></svg>