<svg xmlns="http://www.w3.org/2000/svg" viewBox="0 0 265.8 89.05"><g id="Layer_2" data-name="Layer 2"><g id="Layer_1-2" data-name="Layer 1"><path d="M90.61,53.62v.13c5.28,2,6.41,5.88,6.41,12.51,0,10.33-2.8,15.61-13.58,15.61H70V27.46H84c9.27,0,12.36,5,12.36,14.93C96.41,48.19,95.34,51.67,90.61,53.62ZM79.07,50.46h3.55c3.92,0,5-2.41,5-7.84s-1-7.62-5-7.62H79.07Zm3.17,7.08H79.07V74.36h3.17c5,0,6-2.18,6-8.22C88.19,60.64,87.34,57.54,82.24,57.54Z"/><path d="M111.05,27.46h10.63l9.5,54.44h-8.67l-1.58-11.31H111.8L110.22,81.9h-8.67Zm2,35.37h6.71L116.4,40.35Z"/><path d="M146.87,50.46l9.58-23h8.89l-9.42,21.72L166.1,81.9h-9.2l-6.79-24.15-3.24,7V81.9h-9V27.46h9Z"/><path d="M181.49,50.46l9.57-23H200l-9.42,21.72L200.71,81.9h-9.19l-6.79-24.15-3.24,7V81.9h-9V27.46h9Z"/><path d="M216.18,49.93h10.56v7.61H216.18V73.83h14.93V81.9h-23.9V27.46H230.5v7.92H216.18Z"/><path d="M265.8,67.2c0,8.52-3.62,14.7-14.25,14.7H238.66V27.46h12.89c10.63,0,14.25,6.18,14.25,14.7Zm-18.17,7h3.62c4.37,0,5.5-2.11,5.5-6.41V41.56c0-4.3-1.13-6.41-5.5-6.41h-3.62Z"/><path d="M54.06,41.42c-3.79-5.71-11.33-14-11.33-14l-3.87,6.86s7.67,8,10.31,12.08c3.3,5.09,8,15.86.19,25.91-5.66,7.24-12.86,9.64-19.11,9.58s-14-2-19.1-9.58c-7.9-11.74-2.5-21.12.59-27C13.83,41.27,28,17,29.9,13.75,35,5,30.16,0,30.16,0,17.05,25.48,8.86,36.81,6,41.87S-5.66,60.44,5.46,76.66c6.69,9.81,16.61,12.46,24.7,12.39s18-2.58,24.68-12.39C66.15,60.09,57.14,46.05,54.06,41.42ZM15.53,69.28a16.93,16.93,0,0,0,14.68,7.36,16.9,16.9,0,0,0,14.66-7.36c6.72-9.84,1.11-17.86-.65-20.67C42,45,36.05,39.07,36.05,39.07L32.13,46a49.88,49.88,0,0,1,5.33,6.18C39,54.4,42,59.49,38.21,65A9.5,9.5,0,0,1,30,69.09,9.31,9.31,0,0,1,21.82,65a10.49,10.49,0,0,1,.05-11.54c1-1.69,3.47-5.69,8.14-13.87,0,0,4.74-8.19,5.84-10.14,5.4-9.66.82-16.37.82-16.37-7.39,16-19,32.52-20.68,35.49S9,59.64,15.53,69.28ZM26,56.61v0Zm.18,5.14a4.92,4.92,0,0,0,7.85,0,4.74,4.74,0,0,0-.15-5.59c-.46-.76-3.77-6.59-3.77-6.59-2.33,4.09-3.43,6-3.85,6.72a2.38,2.38,0,0,0-.18.3l.15-.25-.19.31A4.52,4.52,0,0,0,26.14,61.75Z"/></g></g></svg>