<svg xmlns="http://www.w3.org/2000/svg" xmlns:xlink="http://www.w3.org/1999/xlink" width="215" height="149" viewBox="0 0 215 149">
    <defs>
        <path id="6paixctowa" d="M0 0.009L194.344 0.009 194.344 99.999 0 99.999z"/>
    </defs>
    <g fill="none" fill-rule="evenodd">
        <g>
            <g>
                <g transform="translate(-345 -6374) rotate(-15 24573.817 1901.254)">
                    <mask id="7krexnwcdb" fill="#fff">
                        <use xlink:href="#6paixctowa"/>
                    </mask>
                    <path fill="#E72B25" d="M187.966 39.603c-.27.12-.437-.07-.529-.295-.088-.216-.07-.433.146-.587.27-.04.45.101.554.32.108.221.067.456-.171.562m-3.804-19.145c.106.22.064.458-.174.564-.03.011-.057.011-.085.014l.501 2.913c.342-.488.652-.576 1.056-.327.647.394.697.758.235 1.667-.298.263-.607.503-.935.712l3.026 17.545c.09-.125.185-.245.286-.357.016-.079.014-.162.049-.226.455-.866.81-1.069 1.316-.76.647.396.698.76.236 1.67-.499.44-1.021.833-1.645 1.077l1.82 10.562c.056.053.102.113.139.184.079.166.076.337-.028.459l.48 2.78c.266-.259.525-.272.846-.077.647.399.698.76.236 1.672-.247.22-.506.42-.774.604.113 3.344-2.261 6.354-5.661 6.937l-17.197 2.952c-.065.136-.18.226-.319.189-.127-.035-.25-.055-.372-.074l-2.314.399c-.148.05-.296.101-.446.15-.032.01-.085-.015-.14-.051l-58.703 10.066c.09.311-.088.668-.342.599-1.139-.306-2.113.145-3.132.474-.08.028-.28-.135-.337-.25-.02-.044-.03-.102-.03-.164l-65.92 11.305c.134.32-.051.728-.32.657-1.14-.309-2.115.143-3.131.474-.083.026-.282-.136-.338-.253-.03-.058-.041-.143-.034-.224l-11.637 1.997c-3.712.636-7.25-1.858-7.888-5.557l-1.36-7.886c-1.119-.28-2.082.157-3.084.484-.083.028-.28-.136-.34-.251-.05-.108-.044-.313.028-.408.469-.635 1.259-.497 1.892-.746.575-.734.614-.767 1.288-.327l-4.83-28c-.01.221-.124.41-.353.502-.27.108-.605.212-.87.15-.548-.132-.46-.48-.155-.822.147-.169.265-.41.45-.482.377-.147.728-.067.878.357l-.993-5.746c-1.008-.161-1.9.233-2.82.532-.084.028-.283-.133-.338-.25-.055-.11-.046-.314.023-.409.471-.633 1.261-.495 1.894-.743.48-.618.587-.737 1.005-.505l-1.113-6.446c-.47-2.73.769-5.361 2.94-6.812-.173-.007-.289-.155-.36-.327-.088-.217-.067-.433.145-.588.27-.039.45.104.557.32.062.132.067.265.016.376.686-.399 1.448-.691 2.275-.834l9.872-1.693c-.17-.598-.106-1.183.206-1.725.025-.043.319-.013.39.067.197.228.34.498.407.601.076.401.065.666-.042.894l2.5-.43c.037-.277.127-.549.277-.81.025-.043.319-.01.388.07.18.205.312.44.386.56l18.986-3.257c.037-.085.067-.173.116-.256.025-.043.32-.013.39.067.026.03.046.06.072.09l58.55-10.039c.214-.191.427-.22.672-.115l52.206-8.954c-.037-.44.058-.87.291-1.278.026-.04.317-.01.388.071.197.226.342.495.41.599.03.159.04.29.043.414l18.206-3.12c.187-.032.374-.053.562-.07.039-.264.124-.524.268-.778.025-.041.318-.009.39.072.196.223.342.497.406.596.007.04.01.07.014.104 2.878.205 5.382 2.22 6.124 5.076.143-.254.314-.486.508-.707.014-.074.014-.16.046-.224.457-.866.813-1.07 1.317-.762.649.396.7.76.235 1.672-.559.493-1.15.923-1.882 1.156l1.785 10.35c.19.023.326.143.414.318m-83.069 65.447c-.145.194-.792.219-.852.019-.18-.608-.116-1.205.2-1.758.026-.041.32-.011.391.07.197.228.34.497.409.6.095.507.055.804-.148 1.07M83.18 88.343c-.145.194-.792.219-.85.019-.182-.61-.117-1.207.201-1.758.024-.041.317-.013.388.067.197.228.342.498.41.601.094.51.055.806-.149 1.071m-13.193 2.7c-.268.119-.437-.07-.53-.296-.087-.216-.066-.432.149-.587.268-.039.448.104.554.32.106.221.065.456-.173.562m-6.683.185c-.145.193-.792.218-.852.02-.18-.612-.118-1.209.201-1.76.025-.04.319-.01.39.07.194.226.34.497.407.599.097.51.055.806-.146 1.07M32.9 96.657c-1.139-.304-2.116.145-3.132.474-.083.028-.28-.133-.337-.25-.056-.11-.046-.314.023-.408.471-.634 1.261-.496 1.894-.747.607-.776.607-.776 1.407-.248.154.16.358.299.452.49.162.325-.03.767-.307.689m-21.347-7.29c-.27.111-.606.215-.869.153-.55-.132-.462-.48-.155-.825h-.002c.148-.166.266-.407.45-.481.39-.152.76-.07.899.396.095.327-.007.631-.323.758M5.087 68.36c-.18-.608-.117-1.205.201-1.755.026-.044.32-.012.39.069.197.226.34.497.407.599.097.509.056.803-.145 1.068-.146.194-.793.22-.853.019m2.451 2.982c.097.325-.007.629-.323.756-.27.11-.605.214-.869.152-.55-.13-.462-.48-.154-.825h-.003c.15-.163.266-.405.453-.479.388-.152.758-.071.896.396M62.027 21.43c.471-.634 1.261-.496 1.894-.744.608-.779.608-.779 1.404-.251.158.16.363.3.456.493.161.322-.03.764-.31.686-1.139-.304-2.113.145-3.13.477-.083.025-.28-.136-.34-.254-.052-.108-.043-.313.026-.407m58.568-11.803c.27-.04.45.1.557.32.108.22.064.456-.171.562-.27.12-.439-.07-.531-.295-.088-.214-.067-.433.145-.587m61.162-6.147c.268-.04.448.101.554.32.109.223.067.456-.17.562-.27.12-.44-.07-.53-.295-.09-.214-.069-.433.146-.587m12.445 56.12l-2.293-13.302-.432-2.497-1.779-10.299-.43-2.492-2.124-12.328-.462-2.676-1.275-7.402c-.721-4.173-3.86-7.335-7.734-8.312-.053.175-.18.3-.34.256-1.138-.309-2.113.143-3.129.474-.083.028-.282-.135-.337-.25-.056-.109-.049-.314.023-.408.12-.164.263-.274.418-.355-.314.023-.628.058-.942.113L114.48 10.218c-.02.185-.079.337-.185.475-.148.193-.792.219-.852.018-.03-.101-.044-.202-.06-.304l-12.422 2.13c.138.049.242.15.311.293.109.223.067.458-.17.564-.27.12-.44-.069-.53-.297-.073-.18-.064-.359.065-.504l-6.419 1.1c-.067.021-.138.033-.212.038L44.669 22.19c.122.062.268.158.464.285.155.164.36.302.453.493.161.327-.03.765-.308.69-1.14-.308-2.115.146-3.132.473-.083.028-.28-.134-.337-.251-.055-.108-.046-.31.023-.408.471-.633 1.261-.495 1.894-.744.15-.193.264-.338.36-.44l-21.91 3.76c-.065.128-.176.209-.308.172-.11-.03-.22-.046-.328-.065l-2.455.424c-.116.037-.231.078-.349.118-.028.007-.071-.012-.118-.04l-9.964 1.71c-4.278.732-7.498 3.984-8.401 7.963.032-.046.07-.094.11-.143.149-.165.266-.407.451-.479.39-.154.76-.071.899.394.094.325-.01.629-.324.758-.27.108-.605.212-.87.15-.19-.046-.298-.118-.354-.205-.205 1.149-.229 2.351-.018 3.567l.949 5.509c.04.062.072.117.095.154.048.249.062.45.039.62L3.697 60.95c.342-.083.707-.109 1.03-.235.608-.779.608-.779 1.407-.251.155.16.36.299.455.49.16.325-.033.767-.31.689-.873-.233-1.651-.023-2.423.237l5.087 29.488c.279 1.612.926 3.068 1.831 4.311.4-.488.497-.43 1.185.023.157.164.36.3.455.49.16.328-.03.765-.31.692-.133-.037-.267-.06-.399-.076 2.32 2.395 5.747 3.645 9.279 3.04l19.45-3.335c.05-.053.102-.097.162-.12.213-.083.414-.087.58-.007l11.706-2.008c-.016-.02-.034-.041-.043-.06-.054-.108-.047-.313.025-.407.469-.634 1.261-.498 1.894-.747.605-.776.605-.776 1.404-.25.155.163.36.299.455.49.051.104.063.219.051.325l32.828-5.627c-.067-.064-.123-.145-.16-.237-.088-.219-.07-.433.146-.587.268-.04.45.101.556.32.07.143.067.292-.002.41l17.192-2.95c.03-.079.079-.155.166-.217.171-.027.303.026.405.12l32.388-5.555c.044-.744.384-1.264.804-1.743.014-.074.014-.157.048-.221.455-.866.811-1.071 1.315-.76.649.393.7.757.235 1.667-.358.318-.73.61-1.143.84l18.705-3.205c.143-.47.406-.848.718-1.205.014-.076.012-.159.047-.22.455-.867.813-1.072 1.316-.763.647.396.698.76.236 1.67-.06.053-.125.1-.187.154l23.414-4.014c.813-.14 1.583-.383 2.313-.689-.991-.14-1.867.247-2.775.541-.083.028-.28-.136-.34-.25-.052-.109-.043-.314.029-.408.468-.634 1.258-.496 1.891-.744.608-.776.608-.776 1.405-.254.157.164.362.3.457.493.044.092.06.191.055.288 2.62-1.359 4.53-3.775 5.274-6.593.217-.823.332-1.677.34-2.55.004-.606-.035-1.223-.142-1.84" mask="url(#7krexnwcdb)"/>
                </g>
                <path fill="#E72B25" d="M2.212 41.458c.096-.141.28-.219.423-.327l.216.465c-.147.096-.294.273-.44.273-.24.003-.337-.21-.199-.411M4.41 56.869c-.24.003-.336-.207-.198-.411.096-.141.28-.219.423-.327l.216.465c-.147.096-.294.27-.44.273M9.212 77.458c.096-.141.28-.222.423-.327l.216.465c-.147.096-.294.27-.444.273-.237.003-.333-.21-.195-.411M9.41 90.869c-.24.003-.336-.207-.198-.411.096-.141.28-.222.423-.327l.216.465c-.147.096-.294.27-.44.273M37.812 74.15c-.26.112-.58.217-.833.152-.527-.128-.443-.484-.148-.83h-.002c.142-.167.254-.411.432-.483.374-.154.728-.072.861.4.09.327-.007.631-.31.762m-5.408-8.376c-.259.119-.42-.072-.507-.297-.084-.221-.066-.44.14-.593.256-.042.43.102.531.318.104.226.064.465-.164.572m-1.506-5.554c-.56.063-.848.093-1.04.016l1.933 6.352-3.251.587-.038-1.208c-.029-.198-.04-.393-.018-.583l-.177-5.891c-.545.111-1.067.325-1.603.508-.078.028-.268-.134-.323-.253-.054-.11-.045-.316.024-.411.452-.64 1.21-.502 1.814-.753l.057-.075-.115-3.857 1.045 3.442c.1.058.213.134.361.237.089.097.195.188.286.288.257-.268.51-.284.82-.084.62.4.668.765.225 1.685m-3.592-6.375c.071-.109.206-.174.31-.255.056.12.109.241.162.362-.109.075-.217.207-.326.21-.177.002-.248-.161-.146-.317m1.588 1.179c.26-.042.432.1.534.318.102.225.062.462-.166.57-.26.12-.419-.07-.507-.298-.085-.219-.067-.437.14-.59m-2.9 10.936c-.14.195-.76.219-.817.016-.173-.613-.11-1.215.193-1.77.024-.045.305-.014.374.067.188.23.326.502.392.606.09.512.051.811-.142 1.081m-1.05-9.442c-.177.002-.247-.16-.146-.319.071-.109.206-.17.313-.253.053.121.106.242.16.36-.11.075-.218.212-.326.212m10.477 8.69c.256-.04.43.101.531.322.104.223.062.46-.166.567-.257.121-.419-.07-.507-.297-.084-.219-.064-.437.142-.593m2.001 5.199v.002-.002.002c-.664.614-1.364 1.153-2.323 1.304-.028-.895.346-1.462.791-1.996.013-.077.013-.163.044-.228.439-.874.78-1.079 1.263-.767.01.007.015.014.026.018l-1.911-5.78c-.146.033-.292.045-.42.012-.526-.13-.441-.483-.15-.83.072-.085.138-.19.207-.28l-3.887-11.76c-.177.07-.365.117-.562.154.05.262-.042.592-.277 1.076-.664.613-1.362 1.155-2.323 1.304-.027-.893.345-1.462.79-1.997.016-.074.014-.16.045-.225.438-.874.78-1.08 1.262-.77.206.135.346.266.428.414.02-.406.12-.746.276-1.045L30.04 47 24 48.09l.058 13.425c.456-.432 1.113-.348 1.656-.574.58-.783.58-.783 1.346-.253.149.163.346.302.437.497.153.33-.029.772-.297.695-1.092-.309-2.029.147-3.003.479-.033.012-.084-.014-.135-.051l.055 13.525c.091.075.17.177.217.34.08.285.007.546-.212.697l.013 3.13 4.57-.825-.052-3.93c-.095-.05-.118-.174-.04-.293.009-.014.024-.02.033-.032l-.042-3.065 3.12-.563c.003-.834.355-1.387.782-1.903.013-.074.013-.158.047-.226.436-.871.777-1.076 1.26-.766.622.4.67.766.225 1.684-.467.435-.954.82-1.532 1.07l.682-.126 1.506 4.764c.44.304.55.604.365 1.155l.324 1.027L40 77.137l-2.378-7.197c-.05.137-.111.29-.198.467M46.84 59.025l.002-.004-1.625-9.713 2.67-.473c.766-.136 1.419.002 1.961.408.543.407.882 1.012 1.014 1.809l.75 4.475c.12.733-.02 1.403-.424 2.013-.232.35-.52.608-.85.797.05.06.1.117.131.183.154.326-.029.765-.3.689-1.1-.305-2.043.144-3.027.473-.079.027-.27-.134-.326-.25-.052-.108-.045-.313.024-.407zm-.426-13.947h-.003c.143-.163.257-.407.436-.478.377-.153.735-.069.869.395.091.321-.007.624-.313.753-.261.11-.585.213-.842.149-.53-.126-.444-.477-.147-.82zm5.263 3.03c.014-.074.011-.157.045-.223.44-.861.786-1.065 1.27-.76.628.397.677.76.228 1.666-.667.608-1.373 1.139-2.34 1.29-.03-.881.346-1.444.797-1.974zm-2.722 15.131c-.14.193-.766.216-.822.018-.176-.61-.114-1.202.194-1.753.023-.041.306-.012.376.069.19.227.328.496.395.599.091.507.053.803-.143 1.067zm-1.333.44l2.554-.45c1.921-.339 3.435-1.344 4.547-3.017 1.11-1.673 1.496-3.521 1.16-5.54l-.747-4.45c-.006-.042-.015-.084-.024-.127-.092.032-.183.066-.275.096-.08.025-.27-.135-.326-.25-.054-.11-.045-.312.022-.408.11-.15.237-.255.373-.333-.44-1.611-1.244-2.897-2.416-3.847-1.519-1.193-3.354-1.595-5.51-1.214l-1.734.303c-.032.099-.074.19-.134.28-.143.19-.769.213-.827.016-.009-.039-.01-.08-.022-.12L40 45.372 45.125 76l4.428-.78-1.931-11.54zM73.111 44.343c.626.395.677.758.23 1.664h-.002c-.67.606-1.373 1.14-2.343 1.29-.026-.883.349-1.443.798-1.971.015-.076.013-.16.047-.225.44-.863.783-1.065 1.27-.758zm-2.499 7.181c.123.732-.018 1.405-.424 2.013-.404.608-.958.975-1.661 1.097l-2.669.473-1.641-9.802 2.67-.47c.045-.01.088-.007.132-.014-.241-.165-.145-.44.092-.716h-.002c.142-.165.259-.406.435-.478.377-.153.735-.07.869.393.091.326-.007.626-.313.753-.05.023-.103.041-.154.062.328.066.63.204.902.408.543.406.882 1.01 1.014 1.809l.75 4.472zm-.323 4.902c-1.101-.307-2.044.143-3.029.473-.078.023-.27-.135-.326-.252-.053-.11-.044-.31.025-.406.455-.634 1.22-.494 1.829-.744.587-.773.587-.773 1.36-.25.15.16.348.3.44.49.154.325-.031.763-.3.69zm-5.697-.961c-.26.117-.422-.071-.512-.294-.084-.218-.067-.434.143-.585.26-.041.434.1.536.317.103.22.063.456-.167.562zm1.067 13.389c.105.22.063.456-.165.562-.261.12-.424-.069-.511-.294-.085-.218-.067-.434.14-.585.26-.041.436.1.536.317zm6.032-27.102c-.261.12-.424-.068-.511-.293-.047-.12-.058-.234-.03-.342-1.449-1-3.17-1.334-5.17-.98l-.977.172c.176.218.306.464.366.56.094.507.054.803-.14 1.067-.141.193-.767.218-.823.018-.156-.537-.113-1.062.108-1.558L59 41.372 64.127 72l4.426-.783-1.849-11.052c-.239.087-.616.066-.66-.087-.016-.055-.019-.108-.032-.166-.603.524-1.253.962-2.112 1.095-.03-.881.346-1.443.795-1.973.015-.074.013-.157.046-.22.44-.864.786-1.068 1.273-.758.134.082.237.167.317.255.096.002.237.032.284.085.19.227.328.495.393.598.047.246.058.443.038.609l2.13-.377c1.921-.337 3.435-1.345 4.547-3.015 1.11-1.676 1.496-3.52 1.16-5.543l-.747-4.45c-.321-1.925-1.096-3.444-2.311-4.564-.034.039-.078.07-.134.098zM95.087 59.242c-.261.11-.586.213-.84.149-.533-.129-.448-.477-.15-.819h-.003c.146-.165.258-.408.436-.479.378-.149.736-.069.87.394.092.326-.006.626-.313.755zm-4.463-10.696c.123.731-.018 1.4-.422 2.01-.405.61-.96.975-1.664 1.097l-2.674.472-1.641-9.793 2.672-.472c.648-.115 1.192-.071 1.632.12.047-.049.094-.088.148-.11.378-.152.735-.07.87.396.062.215.029.42-.09.573.192.332.338.74.42 1.238l.75 4.469zm-5.214 4.313c-.26.119-.422-.07-.512-.294-.085-.215-.065-.433.143-.585.26-.04.434.101.537.32.103.22.063.453-.168.559zm12.906 12.704c-.08.028-.27-.135-.329-.252-.051-.106-.042-.31.027-.404.072-.103.156-.179.244-.247L93.475 53.6c1.33-1.778 1.811-3.75 1.449-5.914l-.747-4.446c-.371-2.212-1.167-3.847-2.392-4.906-.333-.292-.7-.532-1.096-.727-.011.215-.12.396-.34.488-.261.11-.583.213-.843.151-.53-.13-.442-.476-.15-.82.061-.07.117-.152.175-.23-1.024-.25-2.202-.263-3.542-.027l-2.488.435c.029.253-.07.565-.289 1.005-.67.607-1.375 1.14-2.345 1.288-.03-.878.347-1.437.796-1.967L79 38.4l4.664 27.805c.06.041.125.083.204.138.15.16.348.298.44.488.154.323-.03.764-.3.686-.044-.012-.087-.014-.13-.023L84.132 69l4.434-.782-1.818-10.838c-.581.486-1.21.892-2.03 1.018-.029-.88.349-1.442.798-1.972.016-.073.014-.158.045-.22.443-.862.787-1.066 1.275-.759.485.307.621.594.451 1.13l1.9-.337c.142-.022.273-.048.4-.068l4.62 11.051L99 66.377l-.396-.915-.288.101zM110.5 37.6c-.26.112-.58.216-.836.151-.53-.128-.443-.483-.149-.83.143-.166.254-.41.432-.482.376-.154.734-.072.865.4.094.327-.007.631-.311.761zm4.143 17.978c.091.327-.007.634-.312.762-.26.111-.582.216-.836.153-.53-.13-.445-.483-.15-.83l-.001-.001c.144-.165.258-.41.436-.484.373-.153.73-.07.863.4zm-3.366 1.403c.122.74-.018 1.417-.423 2.025-.405.606-.956.973-1.657 1.097-.699.127-1.341-.024-1.924-.456-.583-.43-.937-1.015-1.06-1.758l-2.796-16.97c-.122-.745.025-1.419.436-2.027.412-.609.968-.976 1.669-1.104.587-.104 1.13-.002 1.63.288.052-.058.105-.109.167-.137.376-.15.732-.07.866.402.064.232.029.453-.103.606.196.312.334.66.4 1.062l2.795 16.972zm-3.372 5.556c-.26.12-.423-.07-.51-.298-.087-.216-.067-.436.14-.59.258-.039.432.103.534.321.105.225.065.462-.164.567zm-3.449-7.904v-.003.003c-.667.615-1.37 1.152-2.335 1.305-.027-.894.347-1.461.794-1.998.015-.076.013-.16.046-.227.439-.871.781-1.076 1.268-.767.623.4.672.767.227 1.687zm-1.112 3.277c-.176.002-.25-.16-.145-.318.072-.107.207-.17.312-.253l.162.36c-.11.076-.218.209-.329.21zm-.9-8.473c.26-.042.433.102.535.32.103.223.062.462-.167.57-.26.118-.422-.073-.51-.298-.084-.218-.066-.439.141-.592zm-1.954-11.844c-.03-.892.345-1.46.792-1.995.015-.077.013-.16.047-.225.438-.874.783-1.08 1.268-.767.622.4.671.764.226 1.684h-.002c-.665.613-1.368 1.155-2.331 1.303zm4.382-4.476c-1.913.344-3.437 1.36-4.567 3.05-.988 1.475-1.415 3.094-1.281 4.854.129-.03.258-.062.378-.111.585-.783.585-.783 1.355-.255.149.164.347.301.436.497.156.33-.03.77-.296.694-.627-.176-1.201-.1-1.76.058l.637 3.87c.117.111.242.223.307.364.12.256.035.579-.136.674l.007.035c.04-.035.3-.005.364.074.19.225.33.502.394.604.094.513.053.81-.14 1.08-.053.074-.174.12-.307.144l1.642 9.965c.242 1.47.814 2.72 1.704 3.755.173-.034.347-.072.507-.139.585-.783.585-.783 1.353-.253.15.162.349.302.44.497.154.327-.031.771-.298.694-.445-.125-.863-.123-1.27-.055.149.13.298.26.458.38 1.593 1.21 3.361 1.638 5.306 1.29 1.928-.346 3.459-1.364 4.59-3.052 1.131-1.689 1.527-3.566 1.187-5.626l-2.787-16.923c-.336-2.044-1.306-3.67-2.906-4.878-1.6-1.208-3.372-1.635-5.317-1.287zM129.544 52.302c-.143.195-.78.22-.84.018-.177-.614-.113-1.215.199-1.77.025-.041.314-.013.382.068.193.23.337.503.403.605.093.513.055.812-.144 1.079M118.8 35.694c-.182.002-.255-.16-.15-.318.073-.109.211-.17.318-.253.057.12.112.24.167.362-.112.074-.224.209-.335.209m12.515 11.482c.073-.107.212-.17.321-.25.055.117.11.238.164.359-.111.074-.22.208-.334.21-.182.003-.255-.162-.15-.32m.71 6.117c-.267.112-.597.216-.858.151-.162-.037-.262-.1-.321-.172-.05.019-.1.035-.15.051-.08.026-.276-.134-.333-.252-.052-.11-.046-.316.025-.413.464-.638 1.243-.5 1.867-.75.277-.361.425-.55.585-.603L133 28l-4.733.83.014 1.11c.132.057.296.161.535.324.155.162.355.301.448.494.158.33-.03.77-.305.696-.225-.065-.446-.088-.662-.095l.061 5.154c0 .002.007.004.01.007.193.227.334.5.402.603.094.512.055.812-.145 1.078-.043.06-.137.102-.246.13l.18 15.293-1.245-3.737c-.456.31-.952.554-1.555.647-.03-.89.355-1.459.813-1.992.013-.077.013-.16.045-.228.036-.07.073-.127.107-.192L120.73 30.15l-4.73.83 3.25 9.228c.117-.028.23-.056.338-.1.598-.782.598-.782 1.386-.253.152.163.355.302.448.497.157.327-.032.77-.305.693-.555-.153-1.072-.118-1.573-.005l2.525 7.168c.013-.016.025-.035.04-.051l-.001-.003c.147-.164.264-.41.446-.482.382-.155.746-.07.883.399.096.327-.007.633-.319.76-.239.1-.528.189-.774.16L126.574 61l6.207-1.088.05-7.16c-.157.009-.309.03-.462.06-.015.211-.125.39-.343.48M141.602 45.733c.403-.15.789-.07.93.398.1.323-.007.627-.333.756-.28.11-.628.214-.904.15-.568-.13-.477-.48-.16-.823.153-.166.275-.408.467-.481m-3.53-17.43c-.281.109-.629.212-.904.15-.065-.016-.12-.034-.168-.053l5.474 30.6L156 56.766l-.626-3.499c-.048.044-.103.083-.172.108-.28.11-.628.214-.904.152-.568-.131-.477-.479-.16-.824.153-.166.275-.408.467-.482.209-.078.412-.09.58-.02l-.02-.097-5.239.866-.012.018c-.122.157-.568.198-.776.11l-2.745.457-1.502-8.391 6.411-1.06-.834-4.662-6.412 1.06-1.502-8.391 5.225-.864c.51-.624.587-.633 1.265-.207l2.284-.378-.834-4.662-3.382.56.101.205c-.117.073-.235.205-.355.207-.191.002-.266-.159-.158-.313.012-.016.031-.026.046-.04L138.397 28c-.055.132-.163.238-.326.304M169.724 46.88c-.127.108-.255.21-.388.313.09.668-.054 1.292-.447 1.87-.419.616-1 .985-1.746 1.111l-2.83.47-2.586-14.595c-.066.07-.152.108-.249.082-1.168-.305-2.167.145-3.208.47-.083.028-.286-.132-.345-.25-.057-.107-.048-.312.023-.406.483-.63 1.292-.493 1.94-.741.623-.774.623-.774 1.441-.25.074.075.164.147.244.22l-1.046-5.897 2.828-.473c.729-.121 1.398.037 2.013.471.613.436.985 1.017 1.115 1.751l2.494 14.066c.156-.027.321.016.506.122.663.397.715.758.241 1.666zm-5.643 5.124c-.19.002-.265-.159-.154-.312.076-.108.22-.17.332-.253.056.12.116.239.172.358-.118.074-.232.207-.35.207zm-2.95-9.193c-.152.19-.814.213-.873.016-.185-.608-.121-1.203.205-1.752.026-.043.327-.011.398.07.201.227.35.495.419.598.097.505.056.8-.15 1.068zm-.907 1.23c-.134-.055-.239-.181-.355-.278h-.002c.156-.011.312-.036.469-.03.07.003.198.058.2.092.005.195-.125.294-.312.216zm-1.31-13.52c.075-.108.217-.167.33-.25.06.117.117.237.174.358-.116.074-.232.207-.348.207-.19.002-.268-.16-.156-.315zm12.45 1.52c-.192.055-.39.083-.56.044-.564-.129-.472-.478-.16-.822.152-.163.27-.404.46-.478.014-.004.024-.004.038-.009l-.104-.585c-.358-2.006-1.377-3.606-3.062-4.8-1.096-.778-2.272-1.226-3.521-1.35.005.003.01.003.014.007.663.395.715.756.242 1.662-.71.609-1.458 1.141-2.482 1.29-.031-.881.366-1.444.844-1.974.014-.073.012-.156.048-.22.227-.42.428-.68.636-.806-.452-.002-.916.032-1.387.11L155 25.34 160.435 56l.689-.115c.033-.294.13-.58.293-.856.026-.044.326-.011.4.069.2.227.348.496.416.599v.002l5.572-.93c2.035-.339 3.644-1.344 4.83-3.02 1.185-1.673 1.6-3.523 1.24-5.543l-2.51-14.165z" transform="translate(-345 -6374) rotate(-15 24573.817 1901.254)"/>
            </g>
        </g>
    </g>
</svg>
