<svg xmlns="http://www.w3.org/2000/svg" width="326" height="133" viewBox="0 0 326 133">
    <g fill="none" fill-rule="evenodd">
        <g fill="#000">
            <g>
                <text font-family="DaisyWheel" font-size="16" letter-spacing="-.593" transform="translate(-679 -359) translate(679 359.728)">
                    <tspan x="10.978" y="112.272">BAKKED 0000 AGE SCANNER 0101420BKD2020</tspan>
                </text>
                <g>
                    <path d="M.091.272L0 102.266 6.909 102.272 7 .276zM15 102.27L17.923 102.272 18 .274 15.077.272zM32.077.272L32 102.27 34.923 102.272 35 .272zM63 102.266L69.907 102.272 70 .276 63.091.272zM45 102.264L56.911 102.272 57 .278 45.089.272zM131 102.268L137.907 102.272 138 .274 131.091.272zM178 102.264L189.913 102.272 190 .278 178.087.272zM296 102.264L308.913 102.272 309 .278 296.085.272zM95.077.272L95 102.27 97.923 102.272 98 .272zM116.278.272L116.212 102.272 117.722 102.272 117.788.272zM106.212 102.27L107.722 102.272 107.788.274 106.278.272zM155.278.272L155.212 102.272 156.722 102.272 156.788.272zM166 102.27L168.923 102.272 169 .274 166.077.272zM144.278.272L144.212 102.27 145.722 102.272 145.788.272zM84.077.272L84 102.27 86.923 102.272 87 .272zM76 102.27L79.924 102.272 80 .276 76.071.272zM216 102.27L218.921 102.272 219 .274 216.074.272zM226 102.27L228.921 102.272 229 .274 226.077.272zM251 102.268L255.926 102.272 256 .276 251.072.272zM267 102.27L269.921 102.272 270 .276 267.077.272zM244 102.27L246.926 102.272 247 .274 244.077.272zM236.463 102.272L237.471 102.272 237.537.274 236.531.272zM277.53.272L277.464 102.272 278.47 102.272 278.536.272zM284.531.272L284.463 102.272 285.471 102.272 285.537.272zM201 102.268L207.907 102.272 208 .276 201.093.272z" transform="translate(-679 -359) translate(679 359.728) translate(9)"/>
                </g>
            </g>
        </g>
    </g>
</svg>
