<svg xmlns="http://www.w3.org/2000/svg" id="Layer_1" data-name="Layer 1" viewBox="0 0 78.07 56.52"><defs><style>.cls-1{fill:#edb51d}</style></defs><path d="M26.06 52.26c-.85-.84-1.65-1.67-2.41-2.51-6.3-6.94-7.36-11.42-6.35-13.16s5.06-2.89 13.4-1.21a46 46 0 0 0-4.64 16.88zm20.37-12.38a1.94 1.94 0 0 1 .83-.83 2.61 2.61 0 0 0 .46-.34 138 138 0 0 1 15.34 7.74c1.2.69 2.36 1.42 3.51 2.15v.14a1.44 1.44 0 0 1-.14.56c-.4.84-1.75 1.41-3.63 1.5a18.42 18.42 0 0 1-8.38-1.92 18.45 18.45 0 0 1-6.83-5.24c-1.13-1.51-1.59-2.91-1.16-3.76zm36.24 34.78c-2.84 4.87-7 7-8.65 6s-1.76-5.84.94-10.49c2.39-4.09 5.67-6.23 7.68-6.23a1.86 1.86 0 0 1 1 .23c1.75 1.04 1.73 5.83-.97 10.49z" class="cls-1" transform="translate(-11.85 -24.76)"/><path d="M64.91 39.31c-10.23-6-20.59-10.42-29.5-12.75a2.59 2.59 0 0 0-.59-.16c-.61-.15-1.23-.32-1.82-.45-10.49-2.36-17.44-1.19-20.1 3.37s-.24 11.19 7 19.15c6.49 7.14 16.21 14.66 27.37 21.16A118.13 118.13 0 0 0 72.16 80.7a12.86 12.86 0 0 0 2.83.58c4.24 0 9-3.44 12.08-8.77 3.73-6.41 3.77-13.29.32-16.55a131.06 131.06 0 0 0-22.48-16.65zm-38.85 8.24c-.85-.84-1.65-1.67-2.41-2.51-6.3-6.93-7.36-11.42-6.35-13.16s5.06-2.88 13.4-1.21a46 46 0 0 0-4.64 16.88zM41.51 60a120.76 120.76 0 0 1-10.41-7.85 39.54 39.54 0 0 1 4.68-20.22c1.93.55 3.93 1.21 6 2a6.59 6.59 0 0 0-.67 1.07c-1.25 2.65-.66 5.84 1.66 9 .25.33.51.66.79 1a51 51 0 0 0-2.05 15zm4.21-22.86a1.9 1.9 0 0 1 .82-.82A2.66 2.66 0 0 0 47 36a139.72 139.72 0 0 1 15.34 7.74c1.2.7 2.36 1.43 3.52 2.16a.58.58 0 0 0 0 .14 1.44 1.44 0 0 1-.14.55c-.4.85-1.75 1.41-3.62 1.51a18.61 18.61 0 0 1-8.39-1.93 18.54 18.54 0 0 1-6.83-5.24c-1.14-1.54-1.56-2.93-1.16-3.79zM57 69.09c-2.32-1.17-4.69-2.44-7.14-3.86-1-.59-2-1.2-3-1.81a43 43 0 0 1 1-14.75 27.12 27.12 0 0 0 3.66 2.08A25.74 25.74 0 0 0 59 53a51 51 0 0 0-2 16.09zm13.61-6.2a18.88 18.88 0 0 0-2.79 10.93q-2.76-1-5.58-2.26a45.33 45.33 0 0 1 2.23-18.68 7.85 7.85 0 0 0 5.85-4.1c3 2.06 5.78 4.18 8.37 6.32a18.93 18.93 0 0 0-8.13 7.79zM82.67 70c-2.84 4.87-7 7-8.65 6s-1.76-5.84.94-10.49c2.39-4.09 5.67-6.23 7.68-6.23a1.86 1.86 0 0 1 1 .23c1.75.99 1.73 5.8-.97 10.49z" transform="translate(-11.85 -24.76)"/></svg>