<svg xmlns="http://www.w3.org/2000/svg" id="Layer_1" data-name="Layer 1" viewBox="0 0 49.53 66.04"><defs><style>.cls-1{fill:#edb51d}</style></defs><path d="M39.1 59.63a11.66 11.66 0 0 0 20.76 2.11 15.44 15.44 0 0 1-10.72-1.57c-3.79-1.9-6.94-1.9-9.45-.82l-.59.28z" class="cls-1" transform="translate(-29.43 -17.88)"/><path d="M70.92 38.99h2.98v7.1h-2.98z" class="cls-1" transform="rotate(-45 36.106 69.134)"/><path d="M65.53 43.13L63 40.62a1.93 1.93 0 0 1 0-2.74L67.88 33a1.93 1.93 0 0 1 2.74 0l7.77 7.77a1.94 1.94 0 0 1 0 2.75l-4.85 4.85a1.94 1.94 0 0 1-2.75 0l-2.51-2.51L63 51.19a15.54 15.54 0 0 1-6.34 20V80h9.71a1.95 1.95 0 0 1 0 3.89h-35a1.95 1.95 0 0 1 0-3.89h9.72v-8.84a15.54 15.54 0 0 1 0-26.92V19.83A1.94 1.94 0 0 1 43 17.88h11.68a2 2 0 0 1 2 1.95v24.41a15.78 15.78 0 0 1 4.22 3.58l4.68-4.69zM45 80h7.77v-7.25a15.65 15.65 0 0 1-7.77 0zm7.77-58.27H45v20.92a15.65 15.65 0 0 1 7.77 0zM38 61.82a11.66 11.66 0 0 0 20.76 2.11A15.4 15.4 0 0 1 48 62.35c-3.79-1.89-6.93-1.89-9.45-.81-.23.1-.43.19-.59.28zm-.75-3.93c3.5-1.43 7.76-1.39 12.52 1 3.79 1.89 6.94 1.89 9.45.81a5.7 5.7 0 0 0 1.1-.59 1 1 0 0 1 .17-.12 10.86 10.86 0 0 0 .07-1.28 11.66 11.66 0 0 0-23.31 0zm29.89-18.64l5 5 2.11-2.11-5-5z" transform="translate(-29.43 -17.88)"/></svg>