<svg xmlns="http://www.w3.org/2000/svg" id="Layer_1" viewBox="0 0 100 100"><style>.st0{fill:#edb51d}</style><path d="M14.8 59.9c2.2 0 4.2.1 6.1.6.8.2 1.5.4 2.2.5 1.5 5.1 4.8 7.9 8.2 9.4 1.2.5 2.4.9 3.6 1.1-1.9 1-3.9 2.7-5.8 5.3-1.4 0-5.8-.2-9.5-3.4-3.4-2.9-5.3-7.4-5.9-13.5h1.1z" class="st0"/><path stroke="#000" stroke-miterlimit="10" stroke-width="1.663" d="M41.2 72.4c.2-.2.3-.3.5-.4 1.6-1.6 3.3-3.3 4.5-5.2 6.8-11.1 15-6.6 15.4-6.4.8.5 1.7 1 2.6 1.4 4.5 1.9 9.7 2.1 14.6.2 9.7-3.9 14.5-15 10.6-24.7-.1-.3-.2-.5-.3-.7 0-.1-.1-.2-.1-.3-4.3-9-14.9-13.3-24.2-9.5-5.2 2.1-8.9 6.2-10.7 11-.1.1-.1.3-.2.4-.2.5-.3.9-.4 1.4 0 0 0 .1-.1.1-.1.4-2.5 8.1-12.9 6.5-.8-.1-1.7-.3-2.6-.5-2.1-.6-4.3-.6-6.6-.7-5.1-.1-9.1.7-12.3 2.6-.5.3-.9.6-1.3.9l-.1.1c-3.4 2.6-5.3 6.9-5.2 12.1 0 2.5.3 4.7.9 6.6.6 1.9 1.9 3.5 3 5l.3.3c2 2.5 4.3 4.3 6.7 5.4 2.4 1 4.9 1.3 7.4.8 3.4-1 6.9-3 10.5-6.4zm17.9-39.2c1.7-1.9 3.9-3.5 6.4-4.6 4.3-1.7 8.9-1.5 12.9.2 3.7 1.6 6.8 4.5 8.6 8.4.2 1 1.2 6.4-1.6 10.8-1.2 1.8-2.9 3.3-5.1 4.2.3-.4.5-.7.7-1.1 1.7-3 2.1-6.5 1-10-.1-.3-.2-.5-.3-.8-1.3-3.2-3.7-5.6-6.6-6.8-7.3-3.2-12.5-2.2-16-.3zm-3.2 5.5c.6-.8 3.4-4.4 8.8-5-5.9 2.8-8.7 9.8-6.3 16 1.2 3.1 3.6 5.6 6.7 6.9 3.1 1.3 6.5 1.4 9.6.1.7-.3 1.4-.6 2-1 4.8-.9 8.3-3.1 10.4-6.4.5-.8.9-1.7 1.3-2.5-.8 5.6-4.6 10.9-10.4 13.2-8.6 3.4-18.5-.8-21.9-9.4-1.6-4-1.6-8.2-.2-11.9zm-3.2 5.8c0 2.3.4 4.6 1.3 6.8.8 2.1 2 4 3.5 5.6-3.4.3-12.6.2-15.8-8.5 5.6.4 9-1.7 11-3.9zm-21.5 2.6c2.2 0 4.2.1 6.1.6.8.2 1.5.4 2.2.5 1.5 5.1 4.8 7.9 8.2 9.4 1.2.5 2.4.9 3.6 1.1-1.9 1-3.9 2.7-5.8 5.3-1.4 0-5.8-.2-9.5-3.4-3.4-2.9-5.3-7.4-5.9-13.5h1.1zm-11.3 2.3c2.2-1.2 4.8-2 8-2.2.6 6.7 2.8 11.8 6.7 15 1.3 1.2 2.8 2 4.1 2.6 2.1.9 4 1.2 5.4 1.3-1 1.5-2.5 3-3.8 4.3l-.2.2c-1.1.2-5.6.8-10.2-2.1-5.1-3.2-8.7-9.5-10.6-18.8l.6-.3zm10.2 27c-5.4 1.1-9.5-2.4-11.7-4.9.9-2.1 1-4.1.3-5.9-1-2.4-3.3-3.8-4.4-4.3v-.8c0-2.3.4-6.2 3.1-9.1 2.1 9.3 5.9 15.7 11.4 19 .8.5 1.6.9 2.3 1.2 2.3 1 4.5 1.3 6.2 1.3-2.5 1.9-4.8 3.1-7.2 3.5z"/><path d="M60.8 49.5c-.1-.2-.2-.5-.3-.7-1.5-3.9-.6-8.1 2.1-10.9.6.8 1.5 2.4 1.3 4-.2 1.1-.9 2.1-2.3 3-.5.3-.7 1-.4 1.5.1.2.3.3.5.4.3.1.7.1 1-.1 1.9-1.2 3-2.7 3.3-4.5v-.4c1.2.5 2.8 1.4 3.1 2.6.3.9-.2 2-1.4 3.2-.6-.2-1-.3-1.2-.3-.6-.1-1.2.2-1.3.8-.1.6.2 1.2.8 1.3.2 0 .5.1.8.2-1.6.1-3.1-.1-4.6-.6-.6-.2-1.2.1-1.4.5zm10.7-.9c-.4.1-.8.3-1.1.4-.2-.2-.4-.3-.7-.5 1.4-1.7 1.8-3.2 1.4-4.8-.1-.4-.3-.8-.5-1.1.7-.4 1.3-.9 1.8-1.5.6.8 1.4 1.7 2.6 2.2.1.1.3.1.4.2.8.3 1.6.3 2.5.2-.3.6-.8 1.2-1.3 1.7-.2.1-.4.2-.5.4l-.1.2c-1.4 1.2-3.1 2.1-4.5 2.6zm4.6-6.8c-1.5-.5-2.4-2.1-2.6-2.7.2-1.4 0-2.7-.4-3.7.4.1.7.2 1.1.4 2.4 1 4.4 2.9 5.4 5.5-1.3.6-2.5.8-3.5.5zM71.3 39c0 .1-.1.1-.1.2L69.6 37c-.4-.5-1-.6-1.5-.2-.5.4-.6 1-.2 1.5l1.9 2.7c-.2.2-.5.3-.7.4-1.2-.9-2.6-1.4-3.4-1.7-.4-1.3-1.1-2.3-1.5-2.9.6-.4 1.3-.8 2.1-1.1 1.4-.6 2.9-.8 4.3-.7.3.7 1.2 2.4.7 4z" class="st0"/></svg>