<svg xmlns="http://www.w3.org/2000/svg" width="1885" height="366" viewBox="0 0 1885 366">
    <g fill="none" fill-rule="evenodd">
        <g>
            <g>
                <path fill="#000" d="M0 0H1873V202H0z" transform="translate(137 -1833) rotate(-5 22801.356 2558.697)"/>
                <g fill="#FDC013">
                    <path d="M228.427 0L136 202 203.544 202 296 0zM772.427 0L680 202 747.544 202 840 0zM500.427 0L408 202 475.544 202 568 0zM1044.427 0L952 202 1019.544 202 1112 0zM1180.427 0L1088 202 1155.544 202 1248 0zM1316.427 0L1224 202 1291.544 202 1384 0zM1452.427 0L1360 202 1427.544 202 1520 0zM1588.427 0L1496 202 1563.544 202 1656 0zM1724.427 0L1632 202 1699.544 202 1792 0zM92.427 0L0 202 67.558 202 160 0zM636.427 0L544 202 611.558 202 704 0zM364.427 0L272 202 339.558 202 432 0zM908.427 0L816 202 883.558 202 976 0z" transform="translate(137 -1833) rotate(-5 22801.356 2558.697) translate(26)"/>
                </g>
            </g>
        </g>
    </g>
</svg>
