<svg xmlns="http://www.w3.org/2000/svg" width="36" height="29" viewBox="0 0 36 29">
    <g fill="none" fill-rule="evenodd">
        <g>
            <g>
                <path stroke="#000" stroke-width="2.4" d="M0 24L24 24 24 0 0 0z" transform="translate(-143 -6360) translate(145.6 6362.2)"/>
                <path fill="#E72B25" d="M13.337 19.457c-.044-.02-.209-.067-.49-.13-.041-.013-.093-.017-.154-.02-.12-.005-.209.031-.27.11l-1.735-1.42c-.185-.27-.463-.618-.837-1.05-.032-.035-.076-.055-.137-.059L7.13 13.817l-.06-.202-2.336-2.11c-.036-.036-.052-.17-.04-.4-.06-.063-.157-.213-.294-.447.016-.06.072-.146.173-.261l.008-.178c.004-.02-.02-.103-.068-.25-.049-.146-.069-.23-.069-.249.008-.218.073-.423.19-.61.148-.102.39-.273.728-.518.234-.044.46-.143.677-.3l.78.035c.04.008.097.043.17.099.438.087.938.435 1.505 1.053.66.708 1.124 1.215 1.385 1.523.318.36 1.115 1.287 2.396 2.779.132.162.398.471.789.93.108.103.406.348.893.732L25.25 3.893c.056-.059.109-.086.157-.082.024 0 .048.008.068.023.065-.07.17-.213.319-.427.318-.02.587-.21.809-.574.036.004.076.012.133.028.048-.072.16-.147.334-.226.096-.142.253-.332.475-.57.302-.103.479-.23.527-.376.077-.067.19-.154.33-.253 1.264-.67 2.102-.998 2.508-.978.258.012.568.162.934.455.363.297.544.55.556.756l-.568 1.025c-.225.17-.535.448-.934.84-.016.007-.173.15-.467.42-.221.181-.499.3-.845.36-.733.403-1.755 1.1-3.072 2.081-.052.004-.137.04-.25.107-.245.222-8.703 9.416-9.823 10.426-.233.21-.64.581-1.211 1.116-.069.115-.153.28-.258.499l-.644.241c-.053.095-.181.226-.387.392-.245.194-.447.289-.604.28" transform="translate(-143 -6360) translate(145.6 6362.2)"/>
            </g>
        </g>
    </g>
</svg>
