<svg xmlns="http://www.w3.org/2000/svg" data-name="Layer 1" viewBox="0 0 37.44 49.8"><path fill="#ecb41e" d="M31.56 42.38c-4.16 7.25-12.57 7.44-12.57 7.44-6.66.42-11.75-6.42-11.75-6.42L.17 26.5a2.75 2.75 0 0 1 1.77-3.68c2.6-.87 3.61 1 3.61 1l3.15 7.35L8.38 14l-.1-5.54c.31-2.54 3.26-2.64 3.26-2.64a3 3 0 0 1 3.16 2.64v5.4l.07 13.18v-7.59c.52-1.53 3.33-1.28 3.33-1.28 2.45-.35 2.66 2.65 2.66 2.65v8.2l.1-6.25c.21-1.82 3.33-1.63 3.33-1.63 2.29 0 2.81 2.92 2.81 2.92l-.21 7.39.31-5.33c.52-2.33 3.43-1.73 3.43-1.73 2.18-.1 2.51 3.34 2.51 3.34v4.87a23.84 23.84 0 0 1-1.48 9.78z"/><path fill="none" stroke="#000" stroke-linecap="round" stroke-linejoin="round" stroke-width="1.66" d="M35.13 39.94c-4.16 7.25-12.57 7.4-12.57 7.4-6.66.41-11.75-6.42-11.75-6.42L3.7 24.02a2.75 2.75 0 0 1 1.77-3.66c2.6-.87 3.61 1 3.61 1l3.14 7.39-.31-17.17-.1-5.54c.31-2.54 3.25-2.68 3.25-2.68a3 3 0 0 1 3.2 2.68v5.4l.07 13.18v-7.61c.52-1.53 3.33-1.28 3.33-1.28 2.39-.31 2.6 2.68 2.6 2.68v8.2l.1-6.25c.21-1.82 3.33-1.63 3.33-1.63 2.29 0 2.8 2.91 2.8 2.91l-.2 7.4.41-5.34c.52-2.32 3.43-1.72 3.43-1.72 2.18-.1 2.51 3.33 2.51 3.33v4.88a23.84 23.84 0 0 1-1.51 9.75z"/><path d="M21.21 6.19a6.19 6.19 0 0 1-2.88 5.23v-5.4a3 3 0 0 0-3.2-2.68s-2.94.14-3.25 2.68l.1 5.54a6.19 6.19 0 1 1 9.26-5.37z"/></svg>