<svg xmlns="http://www.w3.org/2000/svg" data-name="Layer 1" viewBox="0 0 290.77 147.59"><g data-name="Layer 2"><path d="M10.56 47.83v27.76l-5.11 1.65V49.49L0 51.25v-4.83l15.93-5.15v4.83zm19.58 21.43V55.17l-5.45 1.81v14l-5.11 1.65V40.09l5.11-1.66v13.72l5.45-1.76V36.67l5.11-1.69V67.6zm15.59-24.18l6-2v4.56l-6 1.94v9.8l8.5-2.75v4.83l-13.61 4.41V33.28l13.26-4.3v4.73l-8.15 2.64zm-18.62 78.71c0 8.79-3.55 16.32-14 19.7l-12.65 4.1V91.4l12.66-4.1c10.44-3.38 14 1.86 14 10.65zm-17.84 13l3.55-1.15c4.3-1.39 5.41-3.93 5.41-8.36V100.2c0-4.43-1.11-6.25-5.41-4.86l-3.55 1.15zm32.35-58.71l10.44-3.38 9.33 53.17-8.51 2.76-1.56-11.17-9 2.89-1.55 12.18-8.51 2.76zm1.93 35.9l6.59-2.14-3.26-22.15zm44.72-24v.16c5.18.42 6.3 4 6.3 10.88 0 10.66-2.74 17-13.33 20.42l-13.18 4.26V69.53l13.77-4.46C90.94 62.12 94 66.35 94 76.55c0 5.99-1.06 9.91-5.73 13.43zm-11.33.4l3.48-1.13c3.85-1.24 4.89-4.07 4.89-9.67s-1-7.53-4.89-6.28l-3.48 1.12zm3.11 6.31l-3.11 1v17.36l3.11-1c4.89-1.58 5.85-4.15 5.85-10.38 0-5.69-.81-8.6-5.85-7zm28.29-40.21l10.44-3.38 9.33 53.17-8.52 2.76L118 97.87l-9 2.9-1.48 12.21L99 115.7zm1.92 35.88l6.59-2.13-3.26-22.14zm42.65 5.89l-6.07-21.37-3.18 1v23.34l-8.89 2.88V47.98l13.85-4.48c10.36-3.35 12.43 3.21 12.43 12.78 0 9.27-1.92 13.08-6.44 16.8l7 22.41zm-5.78-28.95c4-1.29 5.19-3.62 5.19-10.47s-1.19-8.41-5.19-7.12l-3.47 1.13v17.6zm28.81-34.69l10.43-3.38 9.33 53.17-8.51 2.76-1.56-11.18-8.95 2.9-1.56 12.17-8.51 2.76zm1.92 35.88l6.59-2.14-3.26-22.13zm36.43-40V78.4l-8.81 2.85V33.39l-9.41 3V28.1l27.47-8.89v8.33zm42.13 21.31A18.85 18.85 0 0 1 243 70.03c-8.22 2.66-13.41-1.11-13.41-9.51V17.25l8.89-2.88v43.51c0 3 1 5.13 4.52 4s4.51-4 4.51-6.91V11.45l8.89-2.87zm24.65-26.58c5.48 3.91 9.7 7.37 9.7 15.07a19.17 19.17 0 0 1-13.18 18.51c-8.14 2.63-13.18-1.73-13.18-10.06v-5.76l8.22-2.66v5.13c0 4.36 1.41 6.4 4.89 5.27 2.37-.77 4.74-2.7 4.74-6.9 0-5.22-3.7-7.52-8.22-10.57s-9.26-6.66-9.26-14.67c0-7.16 3.78-14.84 12.81-17.77 7.78-2.51 12.52.7 12.52 11.21v3.56l-8.22 2.65v-3.11c0-5.68-1.48-7.22-4.3-6.31s-4.29 3.72-4.29 6.6c0 4.36 3.11 6.57 7.77 9.86z" data-name="Layer 1-2"/></g></svg>