<svg xmlns="http://www.w3.org/2000/svg" id="Layer_1" data-name="Layer 1" viewBox="0 0 47.4 56.02"><defs><style>.cls-1{fill:#edb51d}</style></defs><path d="M56.8 52.55a63.46 63.46 0 0 1-18.49 12.51 64.94 64.94 0 0 1 8-13.33h11.3zM34.85 70.64c-1.46 2.42-3 5.39-3 6.5a3 3 0 1 0 6 0c.02-1.14-1.53-4.08-3-6.5z" class="cls-1" transform="translate(-28.18 -25)"/><path d="M69.1 44.48a4.13 4.13 0 0 1-2.93-1.21l-8.85-8.86a4.13 4.13 0 0 1 5.84-5.85L72 37.42a4.15 4.15 0 0 1 0 5.85 4.1 4.1 0 0 1-2.9 1.21zm-8.86-14.87a1.88 1.88 0 0 0-1.33 3.21l8.86 8.86A1.88 1.88 0 0 0 70.43 39l-8.86-8.85a1.87 1.87 0 0 0-1.33-.54z" transform="translate(-28.18 -25)"/><path d="M69.19 37.31a1.14 1.14 0 0 1-.8-.33l-4.78-4.79a1.11 1.11 0 0 1-.33-.79 1.14 1.14 0 0 1 .33-.8l4.28-4.28a4.51 4.51 0 0 1 6.37 6.38L70 37a1.11 1.11 0 0 1-.81.31zM66 31.4l3.19 3.19 3.48-3.49a2.21 2.21 0 0 0 .66-1.59 2.25 2.25 0 0 0-.66-1.6 2.31 2.31 0 0 0-3.19 0zM33.46 81a5.29 5.29 0 0 1-5.28-5.28c0-2.5 3.61-8.13 4.34-9.23a1.16 1.16 0 0 1 1.88 0c.72 1.1 4.33 6.73 4.33 9.23A5.28 5.28 0 0 1 33.46 81zm0-11.78c-1.47 2.42-3 5.4-3 6.5a3 3 0 0 0 6 0c.02-1.08-1.53-4.06-3-6.48z" transform="translate(-28.18 -25)"/><path d="M66.19 40.1l-5.71-5.7a1.12 1.12 0 0 0-1.43-.14A93.43 93.43 0 0 0 46.45 45a58.27 58.27 0 0 0-4.38 4.92 63.83 63.83 0 0 0-9.67 16.83 1.12 1.12 0 0 0 1.06 1.5 1.19 1.19 0 0 0 .37-.06 64.07 64.07 0 0 0 21.77-14c.93-.93 1.82-1.85 2.67-2.77a86.1 86.1 0 0 0 8-9.84 1.12 1.12 0 0 0-.08-1.48zM54 52.55a63.46 63.46 0 0 1-18.48 12.51 65.4 65.4 0 0 1 8-13.33h11.3zm3-3.07H45.35c.88-1 1.78-2 2.69-2.91a93.47 93.47 0 0 1 11.52-9.91L63.93 41A88 88 0 0 1 57 49.48z" transform="translate(-28.18 -25)"/></svg>