<svg xmlns="http://www.w3.org/2000/svg" xmlns:xlink="http://www.w3.org/1999/xlink" width="117" height="115" viewBox="0 0 117 115">
    <defs>
        <path id="9iej8fq99a" d="M0.757 0.456L6.707 0.456 6.707 6.558 0.757 6.558z"/>
        <path id="3tyh2nquic" d="M0.372 0.456L6.322 0.456 6.322 6.558 0.372 6.558z"/>
        <path id="o6dgzxr1ge" d="M0.767 0.456L6.717 0.456 6.717 6.558 0.767 6.558z"/>
        <path id="xgaqsh3gng" d="M0.384 0.456L6.335 0.456 6.335 6.558 0.384 6.558z"/>
        <path id="iau6rj4jsi" d="M0 0.261L5.737 0.261 5.737 5.999 0 5.999z"/>
        <path id="zfbwkc2agk" d="M0 0.595L5.737 0.595 5.737 6.693 0 6.693z"/>
        <path id="y3cp14ucgm" d="M0 0.026L5.737 0.026 5.737 5.911 0 5.911z"/>
        <path id="zbdpackxjo" d="M0 0.245L5.737 0.245 5.737 6.343 0 6.343z"/>
        <path id="7qr63eutvq" d="M0 0.456L5.737 0.456 5.737 6.558 0 6.558z"/>
    </defs>
    <g fill="none" fill-rule="evenodd">
        <path fill="#FEFEFE" d="M111 111.27c0-1.656 1.34-3.002 2.997-3.002 1.662 0 3.003 1.346 3.003 3.003 0 1.656-1.34 2.997-3.003 2.997-1.656 0-2.997-1.34-2.997-2.997M83 111.27c0-1.656 1.346-3.002 3.003-3.002 1.656 0 2.997 1.346 2.997 3.003 0 1.656-1.34 2.997-2.997 2.997-1.657 0-3.003-1.34-3.003-2.997M56 111.27c0-1.656 1.346-3.002 2.997-3.002 1.662 0 3.003 1.346 3.003 3.003 0 1.656-1.34 2.997-3.003 2.997-1.651 0-2.997-1.34-2.997-2.997M111 84.268c0-1.658 1.34-3 2.997-3 1.662 0 3.003 1.342 3.003 3s-1.34 3-3.003 3c-1.656 0-2.997-1.342-2.997-3M83 84.268c0-1.658 1.346-3 3.003-3 1.656 0 2.997 1.342 2.997 3s-1.34 3-2.997 3c-1.657 0-3.003-1.342-3.003-3M56 84.268c0-1.658 1.346-3 2.997-3 1.662 0 3.003 1.342 3.003 3s-1.34 3-3.003 3c-1.651 0-2.997-1.342-2.997-3M111 58.27c0-1.656 1.34-3.002 2.997-3.002 1.662 0 3.003 1.346 3.003 3.003 0 1.656-1.34 2.997-3.003 2.997-1.656 0-2.997-1.34-2.997-2.997M83 58.27c0-1.656 1.346-3.002 3.003-3.002 1.656 0 2.997 1.346 2.997 3.003 0 1.656-1.34 2.997-2.997 2.997-1.657 0-3.003-1.34-3.003-2.997M56 58.27c0-1.656 1.346-3.002 2.997-3.002 1.662 0 3.003 1.346 3.003 3.003 0 1.656-1.34 2.997-3.003 2.997-1.651 0-2.997-1.34-2.997-2.997M111 31.268c0-1.658 1.34-3 2.997-3 1.662 0 3.003 1.342 3.003 3s-1.34 3-3.003 3c-1.656 0-2.997-1.342-2.997-3M83 31.268c0-1.658 1.346-3 3.003-3 1.656 0 2.997 1.342 2.997 3s-1.34 3-2.997 3c-1.657 0-3.003-1.342-3.003-3M56 31.268c0-1.658 1.346-3 2.997-3 1.662 0 3.003 1.342 3.003 3s-1.34 3-3.003 3c-1.651 0-2.997-1.342-2.997-3"/>
        <g transform="translate(110 .268)">
            <mask id="b2s2ta766b" fill="#fff">
                <use xlink:href="#9iej8fq99a"/>
            </mask>
            <path fill="#FEFEFE" d="M.757 3.509C.757 1.824 2.087.455 3.73.455c1.648 0 2.977 1.369 2.977 3.054 0 1.685-1.33 3.049-2.977 3.049-1.643 0-2.973-1.364-2.973-3.05" mask="url(#b2s2ta766b)"/>
        </g>
        <g transform="translate(83 .268)">
            <mask id="1r30a4jwpd" fill="#fff">
                <use xlink:href="#3tyh2nquic"/>
            </mask>
            <path fill="#FEFEFE" d="M.372 3.509C.372 1.824 1.707.455 3.35.455c1.643 0 2.972 1.369 2.972 3.054 0 1.685-1.33 3.049-2.972 3.049-1.643 0-2.978-1.364-2.978-3.05" mask="url(#1r30a4jwpd)"/>
        </g>
        <g transform="translate(55 .268)">
            <mask id="fchi55jxrf" fill="#fff">
                <use xlink:href="#o6dgzxr1ge"/>
            </mask>
            <path fill="#FEFEFE" d="M.767 3.509C.767 1.824 2.102.455 3.74.455c1.648 0 2.977 1.369 2.977 3.054 0 1.685-1.33 3.049-2.977 3.049-1.638 0-2.973-1.364-2.973-3.05" mask="url(#fchi55jxrf)"/>
        </g>
        <path fill="#FEFEFE" d="M27 111.27c0-1.656 1.34-3.002 2.997-3.002 1.662 0 3.003 1.346 3.003 3.003 0 1.656-1.34 2.997-3.003 2.997-1.656 0-2.997-1.34-2.997-2.997M27 84.268c0-1.658 1.34-3 2.997-3 1.662 0 3.003 1.342 3.003 3s-1.34 3-3.003 3c-1.656 0-2.997-1.342-2.997-3M27 58.27c0-1.656 1.34-3.002 2.997-3.002 1.662 0 3.003 1.346 3.003 3.003 0 1.656-1.34 2.997-3.003 2.997-1.656 0-2.997-1.34-2.997-2.997M27 31.268c0-1.658 1.34-3 2.997-3 1.662 0 3.003 1.342 3.003 3s-1.34 3-3.003 3c-1.656 0-2.997-1.342-2.997-3"/>
        <g transform="translate(27 .268)">
            <mask id="ybnbh0kl2h" fill="#fff">
                <use xlink:href="#xgaqsh3gng"/>
            </mask>
            <path fill="#FEFEFE" d="M.384 3.509c0-1.685 1.33-3.054 2.973-3.054 1.648 0 2.978 1.369 2.978 3.054 0 1.685-1.33 3.049-2.978 3.049-1.643 0-2.973-1.364-2.973-3.05" mask="url(#ybnbh0kl2h)"/>
        </g>
        <g transform="translate(0 108.268)">
            <mask id="lpg01lec3j" fill="#fff">
                <use xlink:href="#iau6rj4jsi"/>
            </mask>
            <path fill="#FEFEFE" d="M0 3.132C0 1.548 1.287.261 2.87.261c1.585 0 2.867 1.287 2.867 2.871S4.455 5.999 2.871 5.999 0 4.716 0 3.132" mask="url(#lpg01lec3j)"/>
        </g>
        <g transform="translate(0 80.268)">
            <mask id="wwjgs75s0l" fill="#fff">
                <use xlink:href="#zfbwkc2agk"/>
            </mask>
            <path fill="#FEFEFE" d="M0 3.644C0 1.958 1.287.594 2.87.594c1.585 0 2.867 1.364 2.867 3.05 0 1.685-1.282 3.049-2.866 3.049S0 5.329 0 3.643" mask="url(#wwjgs75s0l)"/>
        </g>
        <g transform="translate(0 55.268)">
            <mask id="db93lnxo8n" fill="#fff">
                <use xlink:href="#y3cp14ucgm"/>
            </mask>
            <path fill="#FEFEFE" d="M0 2.971C0 1.346 1.287.026 2.87.026c1.585 0 2.867 1.32 2.867 2.945 0 1.625-1.282 2.94-2.866 2.94S0 4.596 0 2.971" mask="url(#db93lnxo8n)"/>
        </g>
        <g transform="translate(0 28.268)">
            <mask id="x6blu3qeep" fill="#fff">
                <use xlink:href="#zbdpackxjo"/>
            </mask>
            <path fill="#FEFEFE" d="M0 3.294C0 1.608 1.287.244 2.87.244c1.585 0 2.867 1.364 2.867 3.05 0 1.685-1.282 3.049-2.866 3.049S0 4.979 0 3.293" mask="url(#x6blu3qeep)"/>
        </g>
        <g transform="translate(0 .268)">
            <mask id="gwmd61cu7r" fill="#fff">
                <use xlink:href="#7qr63eutvq"/>
            </mask>
            <path fill="#FEFEFE" d="M0 3.509C0 1.824 1.287.455 2.87.455c1.585 0 2.867 1.369 2.867 3.054 0 1.685-1.282 3.049-2.866 3.049S0 5.194 0 3.508" mask="url(#gwmd61cu7r)"/>
        </g>
    </g>
</svg>
