<svg xmlns="http://www.w3.org/2000/svg" xmlns:xlink="http://www.w3.org/1999/xlink" width="365" height="63" viewBox="0 0 365 63">
    <defs>
        <path id="r4iplg5hda" d="M0.229 0.243L48.984 0.243 48.984 49 0.229 49z"/>
        <path id="drb2t38smc" d="M0 0.543L14.708 0.543 14.708 10.94 0 10.94z"/>
    </defs>
    <g fill="none" fill-rule="evenodd">
        <g>
            <g>
                <path fill="#201E20" d="M340.85 17.17c-2.02 0-5.252 1.48-11.437 4.95-5.372 3.014-9.188 5.423-10.35 7.396-.677 1.146-.479 2.223.562 4.272l24.741-13.88c-1.004-1.73-1.847-2.738-3.516-2.738zm-22.275 20.286l-.647-1.175c-1.63-2.957-2.751-5.434-1.156-8.14 1.306-2.214 4.274-4.403 11.346-8.371 12.63-7.087 15.323-7.085 19.232.002l.65 1.175-29.425 16.509zM147.759 28.162c-.59 0-1.2.002-1.828.009-7.086.068-11.785.424-13.3 1.985-.995 1.027-.966 3.05-.923 6.11l.016 1.229c.072 7.884 6.471 14.25 14.292 14.25h.134c7.88-.074 14.233-6.587 14.159-14.52l-.009-1.227c-.01-3.061-.02-5.084-1.034-6.091-1.408-1.4-5.44-1.745-11.507-1.745m-1.743 26.294c-9.293 0-16.897-7.564-16.983-16.935l-.017-1.214c-.05-3.605-.088-6.21 1.69-8.041 1.968-2.032 5.663-2.714 15.198-2.803 9.564-.084 13.244.521 15.25 2.516 1.812 1.795 1.823 4.401 1.839 8.007l.006 1.215c.088 9.424-7.459 17.164-16.825 17.252l-.158.003" transform="translate(-142 -6206) translate(142 6206)"/>
                <path fill="#201E20" d="M124.733 39.602c.366 5.28 2.585 10.184 6.333 13.925 4.017 4.01 9.314 6.212 14.935 6.212.07 0 .134 0 .204-.002 5.695-.053 11.03-2.36 15.022-6.496 3.675-3.812 5.806-8.756 6.076-14.044l-42.57.405zm21.268 22.854c-6.326 0-12.285-2.478-16.805-6.992-4.574-4.57-7.124-10.675-7.185-17.195L122 36.914l47.986-.458.013 1.357c.06 6.52-2.379 12.674-6.868 17.328-4.49 4.656-10.493 7.25-16.902 7.312l-.228.003z" transform="translate(-142 -6206) translate(142 6206)"/>
                <path fill="#201E20" d="M128.755 38.116c3.604.443 9.768.804 17.753.725 7.974-.072 14.141-.538 17.737-1.047-3.604-.445-9.785-.793-17.755-.725-7.974.072-14.14.538-17.735 1.047m15.076 3.34c-20.803 0-20.822-2.37-20.83-3.287-.014-1.38 1.167-2.209 7.663-2.909 4.226-.456 9.837-.738 15.8-.79 23.523-.223 23.527 2.317 23.536 3.271.013 1.38-1.17 2.21-7.666 2.909-4.226.458-9.84.738-15.8.793-.937.008-1.84.013-2.703.013M131.246 3.176c-5.447 0-10.617 2.033-14.637 5.775-8.4 7.816-9.21 20.842-2.065 29.639l31.61-29.42c-3.805-3.66-8.745-5.77-14.052-5.978-.286-.012-.572-.016-.856-.016zm-16.88 39.28l-.918-.997c-9.091-9.88-8.497-25.357 1.327-34.503 4.76-4.429 10.951-6.762 17.43-6.477 6.48.253 12.476 3.027 16.88 7.816l.915.994-35.634 33.167z" transform="translate(-142 -6206) translate(142 6206)"/>
                <path fill="#201E20" d="M144.289 12.85c-3.035 2.096-7.95 5.996-13.92 11.435-5.972 5.439-10.3 9.959-12.658 12.775 3.032-2.098 7.947-5.996 13.919-11.437 5.972-5.439 10.303-9.956 12.659-12.773m-29.833 28.606c-.617 0-.878-.278-1.058-.47-.677-.72-2.478-2.633 15.124-18.669 17.601-16.029 19.4-14.111 20.08-13.395.678.722 2.475 2.635-15.124 18.669-12.916 11.764-17.325 13.865-19.022 13.865M45.772 29.163c-.595 0-1.207.002-1.841.009-7.086.066-11.785.422-13.3 1.985-.997 1.025-.969 3.048-.925 6.111l.016 1.228c.074 7.887 6.473 14.252 14.292 14.252h.134c7.882-.075 14.235-6.588 14.16-14.521l-.008-1.228c-.01-3.063-.02-5.084-1.036-6.091-1.406-1.398-5.433-1.745-11.492-1.745m-1.758 26.293c-9.291 0-16.895-7.565-16.983-16.933l-.015-1.215c-.05-3.606-.088-6.212 1.69-8.043 1.968-2.032 5.663-2.71 15.198-2.8 9.557-.091 13.244.52 15.252 2.515 1.81 1.795 1.821 4.401 1.837 8.006l.006 1.214c.088 9.426-7.46 17.167-16.825 17.253l-.16.003" transform="translate(-142 -6206) translate(142 6206)"/>
                <g transform="translate(-142 -6206) translate(142 6206) translate(19 13.456)">
                    <mask id="rll6hk0ehb" fill="#fff">
                        <use xlink:href="#r4iplg5hda"/>
                    </mask>
                    <path fill="#201E20" d="M24.609 2.953h-.206c-11.947.115-21.576 9.925-21.463 21.87.053 5.788 2.36 11.209 6.489 15.263 4.079 4.002 9.462 6.204 15.17 6.204.071 0 .14 0 .208-.002 5.788-.056 11.21-2.36 15.264-6.489 4.052-4.13 6.257-9.593 6.201-15.38-.11-11.877-9.811-21.466-21.663-21.466M24.599 49c-6.424 0-12.477-2.473-17.07-6.981C2.884 37.458.29 31.36.23 24.847c-.061-6.51 2.417-12.655 6.978-17.302C11.77 2.898 17.867.305 24.38.243h.23c13.337 0 24.248 10.786 24.374 24.149.062 6.513-2.417 12.659-6.977 17.304-4.561 4.65-10.661 7.243-17.172 7.302-.08.002-.157.002-.234.002" mask="url(#rll6hk0ehb)"/>
                </g>
                <path fill="#201E20" d="M25.753 39.117c3.604.444 9.783.791 17.755.726 7.974-.072 14.141-.541 17.737-1.048-3.604-.445-9.778-.791-17.753-.728-7.978.075-14.144.541-17.74 1.05m15.051 3.339c-20.772 0-20.794-2.37-20.803-3.286-.013-1.38 1.17-2.21 7.664-2.912 4.226-.454 9.837-.736 15.8-.79 5.972-.062 11.583.124 15.816.502 6.511.583 7.707 1.391 7.72 2.772.013 1.38-1.172 2.208-7.666 2.908-4.226.458-9.837.74-15.8.793-.948.008-1.86.013-2.73.013" transform="translate(-142 -6206) translate(142 6206)"/>
                <g transform="translate(-142 -6206) translate(142 6206) translate(0 33.456)">
                    <mask id="dk03bbboad" fill="#fff">
                        <use xlink:href="#drb2t38smc"/>
                    </mask>
                    <path fill="#201E20" d="M13.442 10.94C2.836 10.942.382 9.67.029 7.772-.26 6.211 1.418 3.69 11.053.542l.918 2.475c-4.18 1.37-8.17 3.266-9.048 4.27.67.34 3.16 1.118 11.757 1.024l.028 2.625c-.435.002-.856.004-1.266.004" mask="url(#dk03bbboad)"/>
                </g>
                <path fill="#201E20" d="M10.06 46.456L13.259 42.936 10 39.483 12.741 39.456 16 42.909 12.801 46.426zM78.477 44.456l-.872-2.62c3.978-1.445 7.777-3.454 8.612-4.512-.638-.362-2.998-1.186-11.193-1.086L75 33.462c11.117-.115 13.625 1.258 13.972 3.346.275 1.651-1.323 4.318-10.495 7.648" transform="translate(-142 -6206) translate(142 6206)"/>
                <path fill="#201E20" d="M77.94 30.456L74.741 33.976 78 37.428 75.259 37.456 72 34.003 75.199 30.483zM229.795 48.456c-10.093 0-12.431-1.342-12.767-3.35-.273-1.654 1.324-4.322 10.496-7.65l.871 2.618c-3.977 1.448-7.776 3.455-8.612 4.517.637.36 3.014 1.16 11.191 1.084L231 48.45c-.414.002-.815.005-1.205.005" transform="translate(-142 -6206) translate(142 6206)"/>
                <path fill="#201E20" d="M226.081 50.456L230.348 45.932 226 41.492 229.656 41.456 234 45.897 229.735 50.419zM280.478 42.456l-.87-2.62c3.976-1.446 7.775-3.453 8.61-4.514-.64-.36-3.007-1.158-11.192-1.084L277 31.462c11.09-.115 13.625 1.258 13.972 3.347.275 1.651-1.324 4.319-10.494 7.647" transform="translate(-142 -6206) translate(142 6206)"/>
                <path fill="#201E20" d="M282.919 28.456L278.652 32.982 283 37.421 279.346 37.456 275 33.016 279.265 28.492zM256.759 33.163c-.59 0-1.198.002-1.828.008-7.086.067-11.785.422-13.3 1.986-.997 1.027-.966 3.047-.923 6.11l.014 1.228c.074 7.886 6.473 14.251 14.292 14.251h.134c7.88-.075 14.235-6.588 14.16-14.518l-.006-1.23c-.015-3.06-.022-5.084-1.038-6.09-1.406-1.399-5.438-1.745-11.505-1.745m-1.745 26.293c-9.293 0-16.895-7.564-16.983-16.934l-.015-1.217c-.05-3.604-.088-6.21 1.69-8.04 1.97-2.033 5.663-2.71 15.198-2.801 9.533-.088 13.242.521 15.25 2.515 1.81 1.796 1.823 4.402 1.839 8.008l.006 1.215c.088 9.425-7.46 17.163-16.825 17.251-.055 0-.107.003-.16.003" transform="translate(-142 -6206) translate(142 6206)"/>
                <path fill="#201E20" d="M240.026 40.456L240 37.749 270.974 37.456 271 40.162z" transform="translate(-142 -6206) translate(142 6206)"/>
                <path fill="#201E20" d="M252.641 43.456c-.695 0-1.35-.301-1.85-.851-.503-.555-.784-1.3-.791-2.095-.011-1.642 1.163-2.99 2.619-3.004l4.713-.05c.7.052 1.37.293 1.877.85.503.56.784 1.303.79 2.096.008.798-.26 1.548-.755 2.115-.494.567-1.154.883-1.86.891l-4.716.048h-.027z" transform="translate(-142 -6206) translate(142 6206)"/>
                <path stroke="#201E20" stroke-width="2" d="M347.529 42.284l-4.593.046c-.662.004-1.229-.552-1.236-1.266-.006-.664.55-1.228 1.212-1.235l4.593-.043c.715-.007 1.281.549 1.288 1.21.006.715-.55 1.282-1.264 1.288zM330 39.744l.02 2.347c.082 8.57 7.088 15.444 15.661 15.364 8.523-.08 15.399-7.08 15.318-15.653l-.021-2.346-30.978.288z" transform="translate(-142 -6206) translate(142 6206)"/>
                <path fill="#201E20" d="M342.625 43.456c-1.436 0-2.61-1.331-2.625-2.978-.007-.778.263-1.519.755-2.084.492-.568 1.146-.88 1.84-.888l4.709-.05h.025c1.462 0 2.658 1.303 2.67 2.917.014 1.682-1.148 3.015-2.644 3.033l-4.71.05h-.02z" transform="translate(-142 -6206) translate(142 6206)"/>
                <path fill="#201E20" d="M342.625 43.456c-1.436 0-2.61-1.331-2.625-2.978-.007-.778.263-1.519.755-2.084.492-.568 1.146-.88 1.84-.888l4.709-.05h.025c1.462 0 2.658 1.303 2.67 2.917.014 1.682-1.148 3.015-2.644 3.033l-4.71.05h-.02z" transform="translate(-142 -6206) translate(142 6206)"/>
                <path fill="#1B1D21" d="M352.258 38.282c-1.066-.454-1.548-1.654-1.077-2.682l9.782-21.931c.47-1.028 1.715-1.493 2.781-1.04 1.064.453 1.546 1.655 1.075 2.683l-9.78 21.931c-.471 1.029-1.715 1.492-2.781 1.04" transform="translate(-142 -6206) translate(142 6206)"/>
                <path fill="#201E20" d="M231.37 22.456c-28.336-22.404-64.658-1.026-65.022-.805L165 19.236c.38-.225 38.216-22.542 68 1.003l-1.63 2.217z" transform="translate(-142 -6206) translate(142 6206)"/>
                <path fill="#201E20" d="M225 21.171L231.118 20.505 230.442 14.456 233.326 16.74 234 22.787 227.882 23.456z" transform="translate(-142 -6206) translate(142 6206)"/>
            </g>
        </g>
    </g>
</svg>
