<svg xmlns="http://www.w3.org/2000/svg" data-name="Layer 1" viewBox="0 0 38.82 52.17"><path fill="#ecb41e" d="M29.99 30.58a12.53 12.53 0 0 1-3.1-5.12c-2-5.43 2-10.32 2-10.32s-5.11 1.6-7.74 4.82c.26-2.36.93-6.19-.64-10.22-2.34-6.26-5.97-8.37-5.97-8.37s1.08 13.45-3.88 20.19-3.88 11.27-2.93 14.12-.48.09-2.87-.51c-2.87-.72-4.51-5.8-4.51-5.8s-2.73 9.52 7 17.9a15.68 15.68 0 0 0 3.81 2.4c-.27-.05 2 1.41 6.1 1.6 4.48.21 11.48-2 14.21-7.43a11.67 11.67 0 0 0-1.48-13.26z"/><path fill="none" stroke="#000" stroke-miterlimit="10" stroke-width="1.66" d="M35.11 30.68a12.64 12.64 0 0 1-3.12-5.12c-2-5.44 2-10.32 2-10.32s-5.11 1.6-7.74 4.82c.25-2.36.92-6.19-.64-10.23-2.43-6.25-6.06-8.33-6.06-8.33s1.08 13.45-3.88 20.19-3.88 11.26-2.93 14.11-.48.1-2.87-.51c-2.91-.74-4.51-5.86-4.51-5.86s-2.65 9.52 7.14 17.94a15.2 15.2 0 0 0 3.8 2.41c-.27-.06 2 1.4 6.1 1.59 4.49.21 11.48-2 14.21-7.42a11.66 11.66 0 0 0-1.5-13.27z"/></svg>