<svg xmlns="http://www.w3.org/2000/svg" data-name="Layer 1" viewBox="0 0 80.85 18.06"><path fill="#edb51d" d="M67.14 17.87l-51.07-3.74v-2.49l51.07-3.73v9.96z"/><path d="M69.26.25l-67.52 5A1.88 1.88 0 0 0 0 7.14v4.11a2 2 0 0 0 1.74 1.87l67.52 5h.12a1.36 1.36 0 0 0 1.12-.5 1.76 1.76 0 0 0 .42-1.43V2.14a1.78 1.78 0 0 0-.38-1.37 1.59 1.59 0 0 0-1.28-.52zM3.61 8.84l8.72-.62v2L3.61 9.6zm63.53 5.36l-51.07-3.74V7.97l51.07-3.74zM73.99 0a1.91 1.91 0 0 0-1.87 1.87v13.7a1.87 1.87 0 0 0 3.74 0V1.87A1.91 1.91 0 0 0 73.99 0zm4.98 2.49a1.91 1.91 0 0 0-1.86 1.87v8.72a1.87 1.87 0 1 0 3.73 0V4.36a1.91 1.91 0 0 0-1.87-1.87z"/></svg>