<svg xmlns="http://www.w3.org/2000/svg" data-name="Layer 1" viewBox="0 0 49.71 51.14"><circle cx="21.66" cy="28.41" r="6.7" fill="#edb51d"/><path d="M16.78 22.61c-1.41 2.48-2.82 5-4.26 7.44a1.11 1.11 0 0 0 0 1.31 10.6 10.6 0 0 0 5 4.55 10 10 0 0 0 11.53-2.1 11.36 11.36 0 0 0 2.74-12 10.8 10.8 0 0 0-9.55-7.25 1.15 1.15 0 0 0-1.23.71c-1.38 2.48-2.8 4.93-4.21 7.39m-2.86-8.15a12.73 12.73 0 0 1 15.74.28 14.15 14.15 0 0 1 4.37 15.26c-2.62 8.15-12.19 11.89-19.17 7.35-4.74-3.09-6.92-7.68-6.31-13.54.11-1-3.62-3.16-3.59-3.28l-1.07-.66c-1.1 1.15-1.5 1.26-2.48.71-1.65-.92-1.82-1.59-.87-3.26q2-3.57 4.09-7.14c.79-1.39 1.42-1.72 2.4-1.24 1.6.79 1.86 1.4 1.32 3.11.34.21 4.59 3.07 5.53 2.36m16.77 36.61l-16.95.08c-1.53 0-1.93-.45-1.94-2.19v-1.64c0-1 .51-1.55 1.38-1.63h.63l33.9-.15c1.63 0 2 .43 2 2.28v1.19c0 1.45-.46 2-1.7 2H30.65"/><path d="M19.98 25.42a2.3 2.3 0 0 1 3.19-.9 2.53 2.53 0 0 1 .87 3.4 2.32 2.32 0 0 1-3.27.85 2.51 2.51 0 0 1-.79-3.35m8.86-2.94a1.49 1.49 0 0 1 .53 2 1.42 1.42 0 0 1-1.91.52 1.5 1.5 0 0 1-.51-2 1.34 1.34 0 0 1 1.89-.51m12.78 1.68q0 10.39.08 20.81c0 1.87-.21 2.37-1.05 2.37a6.94 6.94 0 0 1-.79 0c-.48-.05-.74-.64-.79-1.7v-.78q-.09-20.81-.16-41.62c0-2 .2-2.46 1.09-2.47h.57c.69 0 1 .57 1 2.09v21.3M12.99 8.46V2.04c0-.58.21-.73 1-.74h.79c.47 0 .74.2.78.52a1.93 1.93 0 0 1 0 .24V14.9c0 .62-.2.77-1.09.77h-.58c-.69 0-1-.17-1-.64V8.46"/><path d="M16.78 22.61c-1.41 2.48-2.82 5-4.26 7.44a1.11 1.11 0 0 0 0 1.31 10.6 10.6 0 0 0 5 4.55 10 10 0 0 0 11.53-2.1 11.36 11.36 0 0 0 2.74-12 10.8 10.8 0 0 0-9.55-7.25 1.15 1.15 0 0 0-1.23.71c-1.38 2.48-2.8 4.93-4.21 7.39m-2.86-8.15a12.73 12.73 0 0 1 15.74.28 14.15 14.15 0 0 1 4.37 15.26c-2.62 8.15-12.19 11.89-19.17 7.35-4.74-3.09-6.92-7.68-6.31-13.54.11-1-3.62-3.16-3.59-3.28l-1.07-.66c-1.1 1.15-1.5 1.26-2.48.71-1.65-.92-1.82-1.59-.87-3.26q2-3.57 4.09-7.14c.79-1.39 1.42-1.72 2.4-1.24 1.6.79 1.86 1.4 1.32 3.11.34.21 4.59 3.07 5.53 2.36m16.77 36.61l-16.95.08c-1.53 0-1.93-.45-1.94-2.19v-1.64c0-1 .51-1.55 1.38-1.63h.63l33.9-.15c1.63 0 2 .43 2 2.28v1.19c0 1.45-.46 2-1.7 2H30.65"/><path d="M19.98 25.42a2.3 2.3 0 0 1 3.19-.9 2.53 2.53 0 0 1 .87 3.4 2.32 2.32 0 0 1-3.27.85 2.51 2.51 0 0 1-.79-3.35m8.86-2.94a1.49 1.49 0 0 1 .53 2 1.42 1.42 0 0 1-1.91.52 1.5 1.5 0 0 1-.51-2 1.34 1.34 0 0 1 1.89-.51m12.78 1.68q0 10.39.08 20.81c0 1.87-.21 2.37-1.05 2.37a6.94 6.94 0 0 1-.79 0c-.48-.05-.74-.64-.79-1.7v-.78q-.09-20.81-.16-41.62c0-2 .2-2.46 1.09-2.47h.57c.69 0 1 .57 1 2.09v21.3"/><path d="M26.79.06L40.17 0c1.2 0 1.52.23 1.52 1.09v.83c0 .5-.41.78-1.09.82h-.5l-26.75.11c-1.28 0-1.59-.21-1.59-1.14v-.6c0-.73.36-1 1.34-1h13.69"/><path d="M12.99 8.46V2.04c0-.58.21-.73 1-.74h.79c.47 0 .74.2.78.52a1.93 1.93 0 0 1 0 .24V14.9c0 .62-.2.77-1.09.77h-.58c-.69 0-1-.17-1-.64V8.46"/></svg>