<svg xmlns="http://www.w3.org/2000/svg" data-name="Layer 1" viewBox="0 0 81.37 17.71"><path fill="#ff4d00" d="M79.6 7.08h-6.81a1.77 1.77 0 1 1 0-3.54H73a1.77 1.77 0 0 0 1.77-1.77A1.77 1.77 0 0 0 73 0H4.37A1.77 1.77 0 0 0 2.6 1.77a1.77 1.77 0 0 0 1.77 1.77h2.5a1.77 1.77 0 0 1 0 3.54h.11a1.77 1.77 0 0 0 0 3.54h1.19a1.78 1.78 0 0 1 0 3.55h-6.4a1.77 1.77 0 1 0 0 3.54h75.89a1.77 1.77 0 0 0 0-3.54h-.8a1.78 1.78 0 0 1 0-3.55h2.74a1.77 1.77 0 0 0 0-3.54z"/><path d="M32.63 4.49a1.81 1.81 0 0 1 2.09-2.09 1.81 1.81 0 0 1-2.09 2.09zm2.49 2.9a2.63 2.63 0 1 1-2.62-2.64 2.62 2.62 0 0 1 2.62 2.64zM32.5 5.01a2.37 2.37 0 1 0 0 4.73zm-1.05 4.13a.64.64 0 0 1-.21-.84l1-.55v1.17a.55.55 0 0 1-.79.22zm-.22-2.67a.64.64 0 0 1 .21-.84.56.56 0 0 1 .78.23v1.17zm-.19 1.57a.66.66 0 0 1 0-1.31l1.19.66zm0-4.87a1.23 1.23 0 0 1 1.33 1.32 1.23 1.23 0 0 1-1.33-1.32zm-3.83 9.34a.59.59 0 0 1-.1.33.39.39 0 0 1-.31.12.35.35 0 0 1-.33-.21 1.08 1.08 0 0 1-.11-.54 1.22 1.22 0 0 1 .11-.55.38.38 0 0 1 .33-.2.37.37 0 0 1 .27.09.49.49 0 0 1 .12.26l-.2.06a.34.34 0 0 0-.07-.16.17.17 0 0 0-.12 0 .18.18 0 0 0-.17.15 1.09 1.09 0 0 0-.06.4 1.15 1.15 0 0 0 0 .19.85.85 0 0 0 0 .17.32.32 0 0 0 .07.13.16.16 0 0 0 .12 0 .18.18 0 0 0 .15-.06.35.35 0 0 0 0-.2v-.1h-.16v-.2h.37zm.78-.65v.2a.29.29 0 0 0-.14 0 .17.17 0 0 0-.15.08v.83h-.2v-1.1h.2v.08a.22.22 0 0 1 .19-.1.24.24 0 0 1 .1.01zm.78 1.08h-.2v-.08a.28.28 0 0 1-.23.1.26.26 0 0 1-.21-.1.37.37 0 0 1-.09-.27.36.36 0 0 1 .1-.26.37.37 0 0 1 .26-.09.47.47 0 0 1 .17 0v-.11a.16.16 0 0 0 0-.11.14.14 0 0 0-.11 0 .4.4 0 0 0-.22.07l-.08-.15a.53.53 0 0 1 .31-.11.39.39 0 0 1 .25.07.37.37 0 0 1 .08.26zm-.2-.26v-.22a.31.31 0 0 0-.17 0 .14.14 0 0 0-.11 0 .17.17 0 0 0-.05.13c0 .13.05.19.14.19a.21.21 0 0 0 .19-.1zm1.17-.28a.82.82 0 0 1-.09.42.3.3 0 0 1-.26.14.27.27 0 0 1-.19-.08v.36l-.2.1v-1.5h.2v.08a.26.26 0 0 1 .21-.1.28.28 0 0 1 .24.14.83.83 0 0 1 .09.44zm-.21 0a.83.83 0 0 0 0-.31.13.13 0 0 0-.13-.09.18.18 0 0 0-.16.1v.56a.2.2 0 0 0 .17.1c.07.01.12-.11.12-.35zm1.14-.01v.07h-.57c0 .2.08.31.2.31h.11a.24.24 0 0 0 .09-.06l.12.12a.39.39 0 0 1-.32.15.34.34 0 0 1-.3-.15.71.71 0 0 1-.1-.41.74.74 0 0 1 .1-.43.34.34 0 0 1 .29-.15.32.32 0 0 1 .27.15.62.62 0 0 1 .11.4zm-.2-.1a.35.35 0 0 0-.06-.21.14.14 0 0 0-.13-.07c-.1 0-.16.09-.18.28zm.9-.68h-.09a.15.15 0 0 0-.1 0v.21h.17v.19h-.17v.91h-.2v-.91h-.11v-.19h.11v-.15a.3.3 0 0 1 .06-.2.28.28 0 0 1 .18-.06.44.44 0 0 1 .17 0zm.64.25v.2a.32.32 0 0 0-.14 0 .17.17 0 0 0-.16.08v.83h-.2v-1.1h.2v.08a.23.23 0 0 1 .19-.1.24.24 0 0 1 .11.01zm.85 1.08h-.2v-.08a.24.24 0 0 1-.21.1.24.24 0 0 1-.22-.1.59.59 0 0 1-.07-.31v-.71h.21v.68a.44.44 0 0 0 0 .19.11.11 0 0 0 .11.06.17.17 0 0 0 .16-.1v-.83h.2zm.51-1.39a.11.11 0 0 1-.12.12.12.12 0 0 1-.09 0 .12.12 0 0 1 0-.18.12.12 0 0 1 .09 0 .11.11 0 0 1 .12.12zm0 1.39h-.2v-1.1h.2zm.64-.21v.18a.35.35 0 0 1-.18 0c-.14 0-.21-.09-.21-.28v-.65h-.12v-.19h.12v-.31l.2-.11v.42h.21v.19h-.21v.63c0 .08 0 .11.08.11a.18.18 0 0 0 .11.01zm1.51.21h-.15v-.68h-.41v.68h-.2v-1.46h.2v.58h.41v-.58h.2zm.93 0h-.2v-.08a.26.26 0 0 1-.22.1.25.25 0 0 1-.21-.1.37.37 0 0 1-.09-.27.36.36 0 0 1 .1-.26.37.37 0 0 1 .26-.09.41.41 0 0 1 .16 0v-.11a.16.16 0 0 0 0-.11.12.12 0 0 0-.11 0 .4.4 0 0 0-.21.07l-.09-.15a.59.59 0 0 1 .32-.11.39.39 0 0 1 .25.07.37.37 0 0 1 .07.26zm-.2-.26v-.22a.27.27 0 0 0-.16 0 .16.16 0 0 0-.12 0 .22.22 0 0 0 0 .13c0 .13 0 .19.14.19a.2.2 0 0 0 .14-.1zm1.12.26h-.67v-.17l.36-.59.1-.15h-.43v-.19h.64v.17l-.35.59-.1.15h.45zm.88-.55v.07h-.57c0 .2.08.31.21.31h.1a.24.24 0 0 0 .09-.06l.13.12a.43.43 0 0 1-.33.15.34.34 0 0 1-.3-.15.71.71 0 0 1-.1-.41.74.74 0 0 1 .1-.43.34.34 0 0 1 .29-.15.35.35 0 0 1 .28.15.69.69 0 0 1 .1.4zm-.2-.1a.43.43 0 0 0 0-.21.16.16 0 0 0-.14-.07c-.1 0-.16.09-.18.28zm-7.46 2.34a.36.36 0 0 1-.4.4.42.42 0 0 1-.38-.24l.16-.13a.81.81 0 0 0 .11.13.28.28 0 0 0 .13 0 .18.18 0 0 0 .13 0 .21.21 0 0 0 0-.14.2.2 0 0 0 0-.15.89.89 0 0 0-.19-.16.86.86 0 0 1-.22-.19.39.39 0 0 1-.08-.25.34.34 0 0 1 .37-.36.46.46 0 0 1 .21 0 1.06 1.06 0 0 1 .15.15l-.15.14s-.07-.09-.1-.1a.2.2 0 0 0-.11 0 .16.16 0 0 0-.12 0 .21.21 0 0 0 0 .11.22.22 0 0 0 0 .14.69.69 0 0 0 .17.14 1 1 0 0 1 .24.2.46.46 0 0 1 .08.31zm1.03.38h-.25v-.39h-.32l-.08.39h-.22l.36-1.46h.21zm-.35-.58v-.25s0-.14-.06-.32a2.33 2.33 0 0 0-.06.32l-.06.25zm1.1-.68h-.27v1.26h-.2v-1.26h-.27v-.2h.74zm.42 1.26h-.2v-1.46h.2zm1.11-1.46l-.38 1.46h-.15L33 13.55h.22l.15.77c0 .09 0 .19.06.31 0-.09 0-.19.07-.31l.17-.73zm.89 1.46h-.22l-.08-.39h-.32l-.08.39h-.22l.36-1.46h.21zm-.35-.58v-.25s0-.14-.06-.32a2.33 2.33 0 0 0-.06.32l-.06.25zM20.17 4.84a2.71 2.71 0 0 0-1.93-.43 2.85 2.85 0 0 1 1.13-.69.17.17 0 0 0 .12-.19.17.17 0 0 0-.17-.15h-.05a2.63 2.63 0 0 0-1.57.18 1.72 1.72 0 0 0-.34-.59 2.09 2.09 0 0 1-.33-.53.18.18 0 0 0-.33 0 1.82 1.82 0 0 1-.32.53 1.72 1.72 0 0 0-.34.59 2.67 2.67 0 0 0-1.58-.18h-.09a.17.17 0 0 0 0 .34 2.75 2.75 0 0 1 1.15.69 2.68 2.68 0 0 0-1.92.43.17.17 0 0 0-.05.18.16.16 0 0 0 .13.12 4.66 4.66 0 0 0 .49.07c.35 0 .8.1 1.16.18a2.56 2.56 0 0 0-.43.44 3.16 3.16 0 0 0-.63 1.61v.72a3.13 3.13 0 0 0 .63 1.6 2.53 2.53 0 0 0 1.33.94 2.29 2.29 0 0 0 1.34 0 2.56 2.56 0 0 0 1.33-.93 3.2 3.2 0 0 0 .63-1.62v-.71a3.13 3.13 0 0 0-.63-1.61 2.56 2.56 0 0 0-.43-.44c.36-.08.81-.13 1.16-.18l.49-.07a.16.16 0 0 0 .13-.12.17.17 0 0 0-.08-.18zm-4 .42l.41.42-.81.81-.56-.56a2.27 2.27 0 0 1 1-.67zm.66 2.79l.81.81-.81.8-.81-.81zm-1.06.55l-.8-.8.8-.81.81.81zm1.31-.8l.81-.81.81.81-.81.81zm-.25-.25l-.81-.81.81-.81.81.81zm-.26-2.38a1.57 1.57 0 0 1 .53 0l-.27.26zm-1.58 1l.53.53-.8.81-.16-.16a3 3 0 0 1 .47-1.14zm0 3.17a2.79 2.79 0 0 1-.43-1.18l.16-.15.4.4.4.4zm.21.29l.57-.57.81.81-.42.42a2.22 2.22 0 0 1-.92-.62zm1.36.76l.27-.27.27.27a1.63 1.63 0 0 1-.5.04zm.94-.1l-.42-.42.41-.4.4-.4.56.56a2.13 2.13 0 0 1-.91.69zm1.17-.94l-.53-.53.81-.81.15.15a2.89 2.89 0 0 1-.39 1.23zm0-3.18a3 3 0 0 1 .43 1.18l-.15.16-.81-.81zm-.22-.29l-.56.57-.81-.81.42-.42a2.37 2.37 0 0 1 .99.7zm-.43-.8a3.43 3.43 0 0 0-.52-.23 2.35 2.35 0 0 0-1.34 0 3.43 3.43 0 0 0-.52.23 12 12 0 0 0-1.44-.25 3.77 3.77 0 0 1 1.55-.08.17.17 0 0 0 .15 0 .2.2 0 0 0 0-.16 1.62 1.62 0 0 0-.82-.88.94.94 0 0 1 .86.32.19.19 0 0 0 .2.06.19.19 0 0 0 .12-.17 1.09 1.09 0 0 1 .32-.73q.11-.13.21-.3.11.16.21.3a1.09 1.09 0 0 1 .32.73.19.19 0 0 0 .12.17.19.19 0 0 0 .2-.06.94.94 0 0 1 .86-.32 1.62 1.62 0 0 0-.82.88.2.2 0 0 0 0 .16.17.17 0 0 0 .15 0 3.77 3.77 0 0 1 1.55.08 12 12 0 0 0-1.32.29zm-5.65 6.88a.45.45 0 0 1-.12.33.48.48 0 0 1-.3.11h-.17v.6h-.21v-1.46h.39a.39.39 0 0 1 .29.11.39.39 0 0 1 .12.31zm-.21 0a.21.21 0 0 0-.06-.17.21.21 0 0 0-.16-.06h-.16v.46h.17a.2.2 0 0 0 .15-.06.22.22 0 0 0 .06-.16zm.61-.35a.16.16 0 0 1 0 .09h-.18a.16.16 0 0 1 0-.09.14.14 0 0 1 0-.09.12.12 0 0 1 .18 0 .14.14 0 0 1 0 .09zm0 1.39h-.2v-1.1h.2zm.93 0h-.2v-.68a.44.44 0 0 0 0-.19.11.11 0 0 0-.11-.06.17.17 0 0 0-.16.1V13h-.2v-1.1h.2v.08a.24.24 0 0 1 .21-.1.24.24 0 0 1 .22.1.59.59 0 0 1 .07.31zm.96-.55v.07h-.57c0 .2.08.31.21.31h.1l.09-.06.13.12a.43.43 0 0 1-.33.15.34.34 0 0 1-.3-.15.93.93 0 0 1 0-.84.34.34 0 0 1 .29-.15.35.35 0 0 1 .28.15.69.69 0 0 1 .1.4zm-.2-.11a.39.39 0 0 0-.05-.2.16.16 0 0 0-.14-.07q-.15 0-.18.27zm1.06.66h-.15v-.08a.26.26 0 0 1-.22.1.24.24 0 0 1-.21-.1.37.37 0 0 1-.09-.27.34.34 0 0 1 .36-.36.42.42 0 0 1 .16.03v-.1a.16.16 0 0 0 0-.11.12.12 0 0 0-.11 0 .37.37 0 0 0-.21.07l-.09-.16a.57.57 0 0 1 .32-.1.34.34 0 0 1 .25.07.37.37 0 0 1 .07.26zm-.2-.26v-.22a.27.27 0 0 0-.16 0 .16.16 0 0 0-.12 0 .22.22 0 0 0 0 .13c0 .12.05.19.14.19a.2.2 0 0 0 .19-.1zm1.17-.28a.76.76 0 0 1-.09.41.27.27 0 0 1-.25.15.26.26 0 0 1-.19-.08v.38l-.2.11v-1.5h.2v.08a.26.26 0 0 1 .2-.1.29.29 0 0 1 .25.14.93.93 0 0 1 .08.41zm-.2 0a.83.83 0 0 0 0-.31.14.14 0 0 0-.13-.09.17.17 0 0 0-.16.1v.56a.19.19 0 0 0 .17.1c.07.01.12-.11.12-.35zm1.13 0a.76.76 0 0 1-.09.41.28.28 0 0 1-.44.07v.38l-.2.11v-1.5h.2v.08a.26.26 0 0 1 .21-.1.28.28 0 0 1 .24.14.82.82 0 0 1 .08.41zm-.2 0a.83.83 0 0 0 0-.31.14.14 0 0 0-.13-.09.18.18 0 0 0-.16.1v.56a.19.19 0 0 0 .17.1c.07.01.12-.11.12-.35zm.61.54h-.2v-1.42l.2-.1zm.99-.55v.07h-.58c0 .2.09.31.21.31h.11l.09-.06.12.12a.41.41 0 0 1-.32.15.34.34 0 0 1-.3-.15.86.86 0 0 1 0-.84.34.34 0 0 1 .56 0 .68.68 0 0 1 .11.4zm-.21-.13a.39.39 0 0 0 0-.2.14.14 0 0 0-.13-.07q-.16 0-.18.27zm1.61-.6a1.1 1.1 0 0 1 .15.6 1.2 1.2 0 0 1-.11.54.36.36 0 0 1-.66 0 1.17 1.17 0 0 1-.11-.54 1.22 1.22 0 0 1 .11-.55.37.37 0 0 1 .66 0zm-.1.55a1.14 1.14 0 0 0 0-.27.68.68 0 0 0-.07-.2.19.19 0 0 0-.14-.08.14.14 0 0 0-.11.05.24.24 0 0 0-.07.12 1 1 0 0 0 0 .18 1.21 1.21 0 0 0 0 .2 1.34 1.34 0 0 0 0 .2.85.85 0 0 0 0 .17.4.4 0 0 0 .07.13.16.16 0 0 0 .11 0 .15.15 0 0 0 .14-.09.52.52 0 0 0 .08-.2 2 2 0 0 0-.01-.16zm1.25.3a.53.53 0 0 1-.1.32.36.36 0 0 1-.31.13.35.35 0 0 1-.33-.21 1.2 1.2 0 0 1-.11-.54 1.22 1.22 0 0 1 .11-.55.36.36 0 0 1 .33-.2.37.37 0 0 1 .27.09.49.49 0 0 1 .12.26l-.2.06a.34.34 0 0 0-.07-.16.17.17 0 0 0-.12-.05c-.08 0-.13.05-.17.15a1.09 1.09 0 0 0-.06.4 1.15 1.15 0 0 0 0 .19.85.85 0 0 0 0 .17.32.32 0 0 0 .07.13.16.16 0 0 0 .12.05.18.18 0 0 0 .15-.06.35.35 0 0 0 0-.2v-.1h-.16v-.2h.46zm-6.62 2.12a.36.36 0 0 1-.4.4.42.42 0 0 1-.38-.24l.16-.13a.5.5 0 0 0 .11.13.27.27 0 0 0 .12 0 .17.17 0 0 0 .13 0 .22.22 0 0 0 .05-.14.25.25 0 0 0-.05-.15 1.26 1.26 0 0 0-.19-.16.72.72 0 0 1-.22-.19.39.39 0 0 1-.08-.25.36.36 0 0 1 .1-.26.37.37 0 0 1 .27-.11.39.39 0 0 1 .2.05.54.54 0 0 1 .15.15l-.14.13s-.07-.08-.1-.09a.21.21 0 0 0-.12 0 .15.15 0 0 0-.11 0 .21.21 0 0 0 0 .11.22.22 0 0 0 .05.14.52.52 0 0 0 .17.13 1.05 1.05 0 0 1 .24.21.46.46 0 0 1 .04.27zm1.03.37h-.22l-.09-.38h-.31l-.09.38h-.21l.36-1.45h.21zm-.35-.57v-.25s0-.14-.06-.32c0 .17-.06.28-.07.32l-.05.25zm1.09-.68h-.27v1.25h-.2v-1.25h-.27v-.2h.74zm.43 1.25h-.21v-1.45h.21zm1.11-1.45l-.38 1.45h-.15l-.37-1.45h.21l.17.73c0 .09 0 .19.06.31 0-.09 0-.19.07-.31l.16-.73zm.89 1.45h-.22l-.09-.38h-.27l-.08.38h-.22l.3-1.45h.21zm-.35-.57l-.05-.25s0-.14-.06-.32c0 .17-.06.28-.07.32l-.05.25z"/><path fill="#8331a7" d="M79.6 7.08h-6.81a1.77 1.77 0 1 1 0-3.54H73A1.77 1.77 0 1 0 73 0H45.45c-4 5.75-1.72 11.59-5.19 17.71h37.4a1.77 1.77 0 0 0 0-3.54h-.8a1.78 1.78 0 0 1 0-3.55h2.74a1.77 1.77 0 0 0 0-3.54z"/><path d="M54.93 4.74a2.84 2.84 0 0 0-2.51.13.82.82 0 0 0-.64-.24.84.84 0 0 0-.64.24 2.82 2.82 0 0 0-2.5-.13c-.75.32-1.14 1.15-1.15 2.42a8.09 8.09 0 0 0 .22 1.8.1.1 0 0 0 .1.07.09.09 0 0 0 .07-.12s-.81-3.29.82-4a2.51 2.51 0 0 1 1.67-.12 2.16 2.16 0 0 0-1.13.3 2.36 2.36 0 0 0-.92 2.51 7.16 7.16 0 0 0 .4 1.73.09.09 0 0 0 .09.06.1.1 0 0 0 .06-.13s-1.16-3.09.43-4a2 2 0 0 1 1.36-.25 2 2 0 0 0-.9.4c-1.29 1-.07 4.16 0 4.3a.11.11 0 0 0 .1.06.1.1 0 0 0 .06-.13s-1.21-3.19-.05-4.07a1.54 1.54 0 0 1 1.16-.36 1.37 1.37 0 0 0-.67.41c-.95 1 .48 4.31.54 4.45a.11.11 0 0 0 .09.06.1.1 0 0 0 .06-.13 13.06 13.06 0 0 1-.62-1.8c-.32-1.23-.31-2.07 0-2.43a1.13 1.13 0 0 1 .65-.37.92.92 0 0 0 .57.18.9.9 0 0 0 .57-.18 1.15 1.15 0 0 1 .66.37c.34.36.36 1.2 0 2.43a14.81 14.81 0 0 1-.62 1.8.09.09 0 0 0 0 .13.09.09 0 0 0 .09-.06c.06-.14 1.49-3.46.54-4.45a1.39 1.39 0 0 0-.66-.41 1.56 1.56 0 0 1 1.16.36c1.17.88 0 4-.05 4.07a.1.1 0 0 0 .06.13.09.09 0 0 0 .09-.06c.06-.14 1.27-3.33 0-4.3a2.07 2.07 0 0 0-.89-.4 1.91 1.91 0 0 1 1.34.25c1.59.89.45 3.95.44 4a.09.09 0 0 0 .06.13.1.1 0 0 0 .1-.07 7.41 7.41 0 0 0 .4-1.72 2.38 2.38 0 0 0-.57-2.51 2.14 2.14 0 0 0-1.14-.3 2.57 2.57 0 0 1 1.66.13c1.62.7.82 3.95.81 4a.1.1 0 0 0 .07.12.12.12 0 0 0 .1-.07 8.42 8.42 0 0 0 .21-1.8c-.01-1.28-.41-2.11-1.15-2.43zM45 12.39a.53.53 0 0 1-.1.32.39.39 0 0 1-.31.12.34.34 0 0 1-.33-.2 1.1 1.1 0 0 1-.11-.55 1 1 0 0 1 .11-.54.36.36 0 0 1 .33-.21.38.38 0 0 1 .27.09.52.52 0 0 1 .12.27l-.2.05a.4.4 0 0 0-.07-.16.16.16 0 0 0-.12 0q-.12 0-.18.15a1.37 1.37 0 0 0 0 .39 1.27 1.27 0 0 0 0 .2 1.36 1.36 0 0 0 0 .17.27.27 0 0 0 .07.13.21.21 0 0 0 .12.05.18.18 0 0 0 .15-.06.46.46 0 0 0 0-.2v-.11h-.16v-.2h.37zm.78-.66v.2a.29.29 0 0 0-.14 0 .16.16 0 0 0-.15.09v.82h-.2v-1.12h.2v.07a.23.23 0 0 1 .19-.09.33.33 0 0 1 .1.03zm.78 1.08h-.19v-.07a.32.32 0 0 1-.23.09.29.29 0 0 1-.21-.09.37.37 0 0 1-.09-.27.39.39 0 0 1 .1-.27.37.37 0 0 1 .26-.09.33.33 0 0 1 .17 0V12a.21.21 0 0 0 0-.12.14.14 0 0 0-.11 0 .52.52 0 0 0-.21.07l-.09-.15a.57.57 0 0 1 .32-.1.28.28 0 0 1 .33.32zm-.2-.26v-.23a.47.47 0 0 0-.17 0 .13.13 0 0 0-.11.05.15.15 0 0 0-.05.12c0 .13.05.19.14.19a.21.21 0 0 0 .2-.13zm1.13.26h-.2v-.67a.49.49 0 0 0 0-.2h-.11a.18.18 0 0 0-.16.1v.82h-.2v-1.14h.2v.07a.26.26 0 0 1 .21-.09.23.23 0 0 1 .22.1.49.49 0 0 1 .07.31zm.88 0h-.2v-.07a.25.25 0 0 1-.2.09.26.26 0 0 1-.24-.13.84.84 0 0 1-.09-.45.78.78 0 0 1 .09-.41.28.28 0 0 1 .26-.14.22.22 0 0 1 .18.08v-.38l.2-.08zm-.2-.26v-.57a.21.21 0 0 0-.17-.1c-.1 0-.16.12-.16.36a1 1 0 0 0 0 .31.13.13 0 0 0 .13.1.19.19 0 0 0 .24-.1zm1.78-.47a1 1 0 0 1-.12.53.36.36 0 0 1-.34.2h-.35v-1.49h.35a.38.38 0 0 1 .35.19 1.07 1.07 0 0 1 .11.57zm-.22.19a1.15 1.15 0 0 0 0-.19 1.09 1.09 0 0 0 0-.19.85.85 0 0 0 0-.17.25.25 0 0 0-.08-.12.19.19 0 0 0-.13-.05h-.15v1.06h.15a.16.16 0 0 0 .12 0 .35.35 0 0 0 .08-.13.85.85 0 0 0 .01-.16zm1.1.54h-.2v-.07a.28.28 0 0 1-.22.09.26.26 0 0 1-.21-.09.37.37 0 0 1-.09-.27.35.35 0 0 1 .1-.27.36.36 0 0 1 .26-.09.29.29 0 0 1 .16 0V12a.21.21 0 0 0 0-.12.16.16 0 0 0-.11 0 .47.47 0 0 0-.21.07l-.09-.15a.57.57 0 0 1 .32-.1.26.26 0 0 1 .32.32zm-.2-.26v-.23a.38.38 0 0 0-.16 0 .17.17 0 0 0-.1 0 .19.19 0 0 0 0 .12c0 .13.05.19.14.19a.19.19 0 0 0 .12-.08zm1.13.26h-.2v-.07a.27.27 0 0 1-.2.09.25.25 0 0 1-.24-.13.84.84 0 0 1-.09-.45.78.78 0 0 1 .09-.41.28.28 0 0 1 .25-.14.22.22 0 0 1 .19.08v-.38l.2-.11zm-.2-.26v-.57a.21.21 0 0 0-.17-.1c-.1 0-.16.12-.16.36a1 1 0 0 0 0 .31.13.13 0 0 0 .13.1.19.19 0 0 0 .2-.1zm1.14.26h-.2v-.07a.29.29 0 0 1-.21.09.27.27 0 0 1-.24-.13.84.84 0 0 1-.09-.45.78.78 0 0 1 .09-.41.28.28 0 0 1 .26-.14.25.25 0 0 1 .19.08v-.38l.2-.11zm-.2-.26v-.57a.22.22 0 0 0-.18-.1q-.15 0-.15.36a.76.76 0 0 0 0 .31.12.12 0 0 0 .12.1.21.21 0 0 0 .21-.1zm1.17-.83l-.43 1.48h-.19l.11-.39-.3-1.09h.21l.13.52a2.47 2.47 0 0 1 .06.29c0-.08 0-.18.07-.29l.13-.52zm1.45.06a.41.41 0 0 1-.12.32.42.42 0 0 1-.3.12h-.17v.59h-.16v-1.49h.39a.43.43 0 0 1 .29.1.41.41 0 0 1 .07.36zm-.21 0a.24.24 0 0 0-.06-.18.21.21 0 0 0-.16-.06h-.16v.47h.17a.2.2 0 0 0 .15-.06.24.24 0 0 0 .06-.16zm1.07 1.03h-.2v-.07a.26.26 0 0 1-.21.09.25.25 0 0 1-.22-.09.62.62 0 0 1-.07-.31v-.71h.2v.67a.49.49 0 0 0 0 .2.11.11 0 0 0 .11.06.19.19 0 0 0 .16-.1v-.83h.2zm.78-1.08v.2a.25.25 0 0 0-.13 0 .18.18 0 0 0-.16.09v.82h-.2v-1.12h.2v.07a.25.25 0 0 1 .19-.09.33.33 0 0 1 .1.03zm.89.59a.76.76 0 0 1-.09.41.27.27 0 0 1-.25.14.22.22 0 0 1-.19-.08v.36l-.2.1v-1.53h.2v.07a.28.28 0 0 1 .2-.09.28.28 0 0 1 .25.13 1 1 0 0 1 .08.49zm-.2 0a.8.8 0 0 0 0-.31.15.15 0 0 0-.13-.1.19.19 0 0 0-.16.1v.57a.21.21 0 0 0 .17.1c.04-.03.12-.15.12-.36zm.61.49h-.2V11.4l.2-.11zm.99-.55a.35.35 0 0 1 0 .07h-.58c0 .21.08.31.21.31h.11l.08-.07.13.13a.42.42 0 0 1-.33.14.34.34 0 0 1-.29-.15.69.69 0 0 1-.11-.37.74.74 0 0 1 .11-.43.34.34 0 0 1 .28-.14.32.32 0 0 1 .28.14.72.72 0 0 1 .11.37zm-.21-.1a.39.39 0 0 0 0-.2.16.16 0 0 0-.13-.08c-.11 0-.17.1-.19.28zm-9.47 2.72h-.21v-1.46h.21zm1.1 0h-.17l-.35-.78-.06-.13a.36.36 0 0 1 0-.11v1h-.2v-1.44h.2l.32.7a.7.7 0 0 1 .05.13.64.64 0 0 1 0 .11v-.94h.2zm1.1-.73a1 1 0 0 1-.12.53.38.38 0 0 1-.34.2h-.35v-1.46h.35a.39.39 0 0 1 .35.19 1 1 0 0 1 .11.54zm-.2.17a1.15 1.15 0 0 0 0-.19 1.27 1.27 0 0 0 0-.2.94.94 0 0 0 0-.16.25.25 0 0 0-.08-.12.19.19 0 0 0-.13-.05h-.14v1.06h.15a.17.17 0 0 0 .12 0 .25.25 0 0 0 .08-.12 1 1 0 0 0 0-.22zm.66.56h-.21v-1.46h.21zm1.06-.35a.56.56 0 0 1-.12.28.37.37 0 0 1-.27.09.33.33 0 0 1-.25-.1.57.57 0 0 1-.13-.27 1.38 1.38 0 0 1 0-.38 1.48 1.48 0 0 1 0-.38.69.69 0 0 1 .14-.27.33.33 0 0 1 .25-.1c.21 0 .34.12.38.36l-.21.05a.34.34 0 0 0-.06-.16h-.12c-.06 0-.21.18-.21.54a1.06 1.06 0 0 0 0 .26.4.4 0 0 0 .07.2.16.16 0 0 0 .14.09.14.14 0 0 0 .11 0 .45.45 0 0 0 .07-.18zm1.05.35h-.22l-.09-.38h-.31l-.09.38h-.21l.36-1.46h.21zm-.35-.56l-.05-.24-.07-.32c0 .17 0 .28-.06.32l-.05.24zM63.94 6.6h.16a1.75 1.75 0 0 1 1.91-.1.17.17 0 0 0 .12 0l.08-.08a.44.44 0 0 1 .06-.1.15.15 0 0 0 0-.13 3.52 3.52 0 0 0-3-1.22.13.13 0 0 0-.13.13 1.93 1.93 0 0 0 .8 1.5zm2.62.16h.07a1.78 1.78 0 0 1 1.65-.06.14.14 0 0 0 .15 0 2.53 2.53 0 0 0 .8-2.14.13.13 0 0 0-.16-.1 3.67 3.67 0 0 0-2.63 2.17.14.14 0 0 0 0 .15.11.11 0 0 0 .12-.02zm1 0a1.44 1.44 0 0 0-1 .43 1.46 1.46 0 0 0-.43 1 1.47 1.47 0 0 0 1.46 1.46 1.5 1.5 0 0 0 1-.43 1.47 1.47 0 0 0 .42-1 1.45 1.45 0 0 0-1.46-1.46zm.48 1.23h-.28v.2a.15.15 0 0 1-.11.11.14.14 0 0 1-.12-.07l-.16-.11h-.23a.14.14 0 0 1-.11-.11.15.15 0 0 1 .07-.14l.18-.09V7.5a.13.13 0 0 1 .09-.18l.15.11.19-.1a.14.14 0 0 1 .14 0 .16.16 0 0 1 .06.13v.21l.15.11a.1.1 0 0 1 0 .13.11.11 0 0 1-.07.12zm-2.17.69h-.15l-.17.15h-.18a.14.14 0 0 1-.06-.15v-.19l-.24-.14a.15.15 0 0 1-.07-.13.15.15 0 0 1 .1-.12h.18v-.21a.13.13 0 0 1 .23-.07l.14.17h.09a1.71 1.71 0 0 1 .37-.81.14.14 0 0 0 0-.18 1.41 1.41 0 0 0-1-.43 1.46 1.46 0 0 0 0 2.92 1.42 1.42 0 0 0 .77-.23.13.13 0 0 0 0-.17 1.51 1.51 0 0 1-.06-.37zm-2.26 3.69a.49.49 0 0 1-.11.33.42.42 0 0 1-.3.11h-.39v-1.49h.37a.44.44 0 0 1 .29.09.34.34 0 0 1 .11.29.39.39 0 0 1 0 .18.25.25 0 0 1-.13.12.35.35 0 0 1 .15.12.46.46 0 0 1 .01.25zm-.24-.62a.18.18 0 0 0-.19-.2h-.17v.4h.16a.2.2 0 0 0 .14-.05.2.2 0 0 0 .06-.15zm0 .62a.24.24 0 0 0-.06-.17.21.21 0 0 0-.16-.06h-.16v.47h.18c.2 0 .2-.08.2-.24zm.65.44h-.2V11.4l.2-.11zm.94 0h-.2v-.07a.26.26 0 0 1-.21.09.24.24 0 0 1-.22-.09.53.53 0 0 1-.07-.31v-.71h.2v.67a.49.49 0 0 0 0 .2.11.11 0 0 0 .11.06.2.2 0 0 0 .16-.1v-.83h.2zm.97-.55v.06h-.56c0 .21.08.31.2.31h.11l.09-.07.12.13a.39.39 0 0 1-.32.14.34.34 0 0 1-.3-.15.69.69 0 0 1-.1-.41.74.74 0 0 1 .1-.43.36.36 0 0 1 .29-.14.31.31 0 0 1 .27.14.66.66 0 0 1 .1.42zm-.2-.1a.39.39 0 0 0-.06-.2.14.14 0 0 0-.13-.08c-.1 0-.16.1-.18.28zm1.14.16a.86.86 0 0 1-.09.41.28.28 0 0 1-.26.14.24.24 0 0 1-.19-.08v.06h-.2V11.4l.24-.08v.5a.29.29 0 0 1 .21-.09.27.27 0 0 1 .24.13.84.84 0 0 1 .05.46zm-.21 0a.8.8 0 0 0 0-.31.14.14 0 0 0-.13-.1.2.2 0 0 0-.16.1v.57a.21.21 0 0 0 .17.1c.07-.03.12-.15.12-.36zm1.14-.06v.06h-.57c0 .21.08.31.2.31h.11l.09-.07.12.13a.39.39 0 0 1-.32.14.34.34 0 0 1-.3-.15.69.69 0 0 1-.1-.41.74.74 0 0 1 .1-.43.36.36 0 0 1 .29-.14.31.31 0 0 1 .27.14.66.66 0 0 1 .11.42zm-.2-.1a.39.39 0 0 0-.06-.2.14.14 0 0 0-.13-.08c-.1 0-.16.1-.18.28zm.94-.43v.2a.32.32 0 0 0-.14 0 .18.18 0 0 0-.16.09v.82h-.2v-1.12h.2v.07a.25.25 0 0 1 .19-.09.33.33 0 0 1 .11.03zm.7 0v.2a.32.32 0 0 0-.14 0 .18.18 0 0 0-.16.09v.82h-.2v-1.12h.2v.07a.25.25 0 0 1 .19-.09.33.33 0 0 1 .11.03zm.91-.01l-.43 1.48h-.2l.12-.39-.27-1.09h.21l.13.52.06.29c0-.08 0-.18.07-.29l.13-.52zm-5.96 3.16h-.21v-1.46h.21zm1.12 0h-.17l-.35-.78-.06-.13a.36.36 0 0 1 0-.11v1h-.2v-1.44h.2l.32.7.06.13v.11-.94h.2zm1.06-.73a1 1 0 0 1-.12.53.37.37 0 0 1-.34.2h-.35v-1.46h.35a.39.39 0 0 1 .35.19 1 1 0 0 1 .11.54zm-.22.19a1.15 1.15 0 0 0 0-.19 1.27 1.27 0 0 0 0-.2.94.94 0 0 0 0-.16.25.25 0 0 0-.08-.12.18.18 0 0 0-.12-.05h-.15v1.06h.15a.17.17 0 0 0 .12 0 .25.25 0 0 0 .08-.12 1 1 0 0 0 .04-.24zm.72.54h-.21v-1.46h.21zm1.06-.35a.56.56 0 0 1-.12.28.36.36 0 0 1-.26.09.3.3 0 0 1-.25-.1.5.5 0 0 1-.14-.27 1.38 1.38 0 0 1 0-.38 1.48 1.48 0 0 1 0-.38.69.69 0 0 1 .14-.27.33.33 0 0 1 .25-.1c.21 0 .34.12.38.36l-.21.05a.34.34 0 0 0-.06-.16.12.12 0 0 0-.11 0c-.15 0-.22.18-.22.54a1.06 1.06 0 0 0 0 .26.52.52 0 0 0 .07.2.16.16 0 0 0 .14.09.14.14 0 0 0 .11 0 .45.45 0 0 0 .07-.18zm1.05.35h-.22l-.09-.38h-.3l-.09.38h-.21l.36-1.46h.21zm-.35-.56l-.05-.24s0-.14-.06-.32c0 .17-.06.28-.07.32l-.08.24z"/></svg>