<svg xmlns="http://www.w3.org/2000/svg" data-name="Layer 1" viewBox="0 0 49.26 50.88"><path fill="#ecb41e" d="M22.41.58c1.6 1.66 2 3.83 2.47 5.93a90.44 90.44 0 0 1 2 17v1.06s.07.09.19.22c.31-.46.61-.9.92-1.33a54.82 54.82 0 0 1 8.4-10 7.65 7.65 0 0 1 1.26-.87c1.12-.62 1.78-.27 1.64 1a20.69 20.69 0 0 1-.87 4.12 78 78 0 0 1-6.92 14.94c-.15.24-.28.49-.53.93.56-.17.93-.3 1.31-.4 3-.84 6-1.7 9.05-2.5a4.62 4.62 0 0 1 1.62-.03c.38 0 .92.18 1.06.44a1.19 1.19 0 0 1-.41 1.02 28 28 0 0 1-3.88 3.11c-3.21 1.91-6.53 3.64-9.81 5.46 1.82.88 4.06 1.41 5.61 3.08l-.06.36a11.36 11.36 0 0 1-1.82.19 31.06 31.06 0 0 1-9.04-1.82l-.88-.31v5.9a1.67 1.67 0 0 1-1.69 1.72 1.64 1.64 0 0 1-1.58-1.73v-5.81c-3.98 1.19-7.78 2.39-11.85 1.71 1.48-1.87 3.68-2.42 5.8-3.41-1.19-.55-2.26-1-3.31-1.52a47.76 47.76 0 0 1-9.72-6 5.37 5.37 0 0 1-1-1c-.2-.28-.44-.76-.33-1a1.2 1.2 0 0 1 1-.43 22.76 22.76 0 0 1 3.88.5c2.32.61 4.6 1.37 6.89 2.07l1.26.4c-.19-.37-.3-.61-.43-.84a78 78 0 0 1-7-15 21.21 21.21 0 0 1-.88-4c-.15-1.41.59-1.87 1.71-1.05a22.07 22.07 0 0 1 3.78 3.37c2.15 2.54 4.11 5.23 6.15 7.87.2.26.38.55.73 1 .11-2 .17-3.76.3-5.5.4-5.33.91-10.66 2.57-15.79A18.66 18.66 0 0 1 21.6.58z"/><path fill="none" stroke="#000" stroke-miterlimit="10" stroke-width="1.66" d="M26.8.83c1.6 1.65 2 3.83 2.47 5.93a89.52 89.52 0 0 1 2 17v1.06l.19.22c.32-.46.61-.9.92-1.33a54.54 54.54 0 0 1 8.41-10 7.75 7.75 0 0 1 1.25-.87c1.12-.62 1.78-.26 1.64 1a20.84 20.84 0 0 1-.87 4.12 78 78 0 0 1-6.93 15c-.15.24-.28.49-.53.93l1.31-.41c3-.83 6-1.69 9.05-2.49a4.62 4.62 0 0 1 1.62-.09c.38 0 .92.17 1.06.44s-.12.83-.38 1.05a28.59 28.59 0 0 1-3.89 3.1c-3.21 1.92-6.53 3.65-9.81 5.46 1.82.89 4.06 1.42 5.61 3.08l-.06.37a11.24 11.24 0 0 1-1.82.19 31.38 31.38 0 0 1-9.09-1.82l-.88-.32v5.91a1.67 1.67 0 0 1-1.69 1.72 1.64 1.64 0 0 1-1.58-1.73v-5.81c-3.91 1.2-7.71 2.41-11.8 1.73 1.48-1.87 3.68-2.42 5.8-3.41-1.19-.55-2.26-1-3.3-1.53a47.51 47.51 0 0 1-9.73-6 6 6 0 0 1-1-1c-.2-.29-.44-.77-.33-1a1.17 1.17 0 0 1 1-.43 23 23 0 0 1 3.89.5c2.31.6 4.59 1.37 6.88 2.07l1.26.4c-.19-.38-.3-.61-.43-.84a78 78 0 0 1-7-15 20.6 20.6 0 0 1-.87-4c-.16-1.41.58-1.87 1.7-1.05a22 22 0 0 1 3.73 3.29c2.15 2.54 4.11 5.24 6.15 7.88.2.26.39.55.73 1 .11-2 .17-3.76.3-5.5.4-5.34.91-10.66 2.57-15.79A18.66 18.66 0 0 1 26.01.79z"/></svg>