<svg xmlns="http://www.w3.org/2000/svg" viewBox="0 0 272.45 89.01"><defs><linearGradient id="a" x1="30.18" x2="30.18" y2="89.01" gradientUnits="userSpaceOnUse"><stop offset="0" stop-color="#fabe18"/><stop offset=".51" stop-color="#fabe18"/><stop offset="1" stop-color="#f98f1d"/></linearGradient></defs><g data-name="Layer 2"><g data-name="Layer 1"><path fill="url(#a)" d="M54 41.37c-3.79-5.71-11.33-14-11.33-14l-3.87 6.86s7.67 8 10.31 12.08c3.3 5.08 8 15.85.19 25.9-5.66 7.25-12.86 9.64-19.11 9.59s-14-2-19.1-9.59c-7.9-11.74-2.49-21.12.6-27C13.81 41.3 28 17 29.89 13.75 35 5 30.14 0 30.14 0 17 25.43 8.84 36.77 6 41.83S-5.63 60.4 5.45 76.62C12.14 86.43 22.06 89.08 30.14 89s18-2.58 24.68-12.39C66.14 60.05 57.12 46 54 41.37zM15.52 69.24a16.91 16.91 0 0 0 14.67 7.36 16.91 16.91 0 0 0 14.66-7.36c6.73-9.84 1.15-17.87-.65-20.67C42 45 36 39 36 39l-3.88 7a49 49 0 0 1 5.33 6.18c1.56 2.22 4.5 7.3.74 12.8A9.45 9.45 0 0 1 30 69a9.33 9.33 0 0 1-8.19-4.11 10.5 10.5 0 0 1 .05-11.55c1-1.67 3.48-5.69 8.14-13.87 0 0 4.74-8.18 5.83-10.13 5.41-9.67.82-16.38.82-16.38C29.27 29 17.71 45.54 16 48.51s-7.06 11.09-.48 20.73zm.42-20.67c-1.59 2.74-1.09 1.82 0 0zm10 8v-.07zm.14 5.1a4.53 4.53 0 0 0 3.93 2 4.53 4.53 0 0 0 3.92-2 4.74 4.74 0 0 0-.15-5.59c-.46-.76-3.77-6.58-3.77-6.58-2.33 4.09-3.43 6-3.85 6.71l-.18.3.15-.25-.18.31a4.53 4.53 0 0 0 .18 5.14z"/><path d="M90.59 53.58v.15c5.28 2 6.41 5.88 6.41 12.51 0 10.33-2.79 15.61-13.57 15.61H70V27.42h14c9.27 0 12.37 5.05 12.37 14.93.03 5.8-1.03 9.27-5.78 11.23zm-11.54-3.16h3.55c3.92 0 5-2.41 5-7.84S86.52 35 82.6 35h-3.55zm3.17 7.08h-3.17v16.82h3.17c5 0 6-2.18 6-8.22-.04-5.5-.87-8.6-6-8.6zM111 27.42h10.63l9.5 54.44h-8.63l-1.59-11.31h-9.13l-1.58 11.31h-8.67zm2 35.37h6.71l-3.32-22.47zm33.85-12.37l9.58-23h8.89l-9.42 21.71 10.18 32.72h-9.2l-6.78-24.12-3.24 7v17.13h-9V27.42h9zm34.62 0l9.57-23h8.9l-9.43 21.72 10.19 32.72h-9.2l-6.79-24.13-3.24 7v17.13h-9V27.42h9zm34.69-.53h10.56v7.61h-10.56v16.29h14.93v8.07h-23.9V27.42h23.3v7.92h-14.33zm49.63 17.26c0 8.52-3.62 14.71-14.25 14.71h-12.9V27.42h12.9c10.63 0 14.25 6.18 14.25 14.7zm-18.17 7h3.62c4.37 0 5.5-2.11 5.5-6.41V41.52c0-4.3-1.13-6.41-5.5-6.41h-3.62zm19.44-45.83v4.92h-1v-4.92h-1v-.86h3v.86zm4.53 4.91v-4.35l-.82 4.36h-.58l-.8-4.35v4.35h-.84v-5.78h1.28l.68 3.61.69-3.61h1.26v5.77z"/></g></g></svg>