<svg xmlns="http://www.w3.org/2000/svg" id="Layer_1" data-name="Layer 1" viewBox="0 0 54.9 80.97"><defs><style>.cls-1{fill:#fff}</style></defs><title>bakked_w</title><path d="M157.93 41.66a141.18 141.18 0 0 0-10.3-12.73l-3.52 6.24s7 7.27 9.37 11c3 4.63 7.28 14.42.17 23.56a21.34 21.34 0 0 1-17.37 8.71c-5.69 0-12.73-1.82-17.37-8.71-7.18-10.67-2.27-19.2.54-24.55 1.9-3.63 14.78-25.7 16.51-28.66 4.65-7.93.24-12.5.24-12.5-11.92 23.17-19.37 33.47-21.94 38.07S103.63 59 113.74 73.7c6.08 8.92 15.1 11.3 22.46 11.3s16.36-2.35 22.44-11.27c10.28-15.09 2.09-27.86-.71-32.07zM122.89 67a16.63 16.63 0 0 0 26.68 0c6.11-8.94 1-16.24-.59-18.79-2-3.26-7.43-8.67-7.43-8.67L138 45.83a43.21 43.21 0 0 1 4.84 5.62c1.42 2 4.1 6.64.69 11.63a8.62 8.62 0 0 1-7.46 3.74 8.46 8.46 0 0 1-7.45-3.74 9.54 9.54 0 0 1 0-10.49c.88-1.54 3.15-5.17 7.4-12.61 0 0 4.31-7.45 5.31-9.22 4.91-8.78.75-14.88.75-14.88-6.72 14.54-17.24 29.56-18.81 32.26s-6.36 10.09-.38 18.86zm.39-18.79c-1.44 2.48-.99 1.64 0-.01zm9.1 7.27zm.16 4.68a4.46 4.46 0 0 0 6.24.9 4.79 4.79 0 0 0 .9-.9 4.31 4.31 0 0 0-.14-5.09c-.42-.69-3.43-6-3.43-6-2.11 3.72-3.11 5.46-3.5 6.11a2.54 2.54 0 0 0-.16.28l.14-.23-.18.28a4.14 4.14 0 0 0 .13 4.64z" class="cls-1" transform="translate(-108.78 -4)"/></svg>