<svg xmlns="http://www.w3.org/2000/svg" viewBox="0 0 60.38 89.06"><title>Asset 1</title><g id="Layer_2" data-name="Layer 2"><g id="Layer_1-2" data-name="Layer 1"><path d="M30.24,0a10.18,10.18,0,0,1,1.22,10.34,55.22,55.22,0,0,1-3.63,7C22.19,27.2,16.54,37,11,46.89A28.72,28.72,0,0,0,7.19,58.16C6.27,67.16,13,79,24.73,81.31a24.25,24.25,0,0,0,26.4-11.84c2.8-4.89,3-10.07,1.53-15.41S48,44.4,44.33,40.36c-1.66-1.84-3.36-3.65-5-5.52a1.2,1.2,0,0,1-.21-1.08c1.12-2.11,2.32-4.17,3.59-6.44C44.37,29.23,46,31,47.49,32.83a71.27,71.27,0,0,1,10.1,14.71c8.6,17.75-3.78,39-22.4,41.2-8.67,1-16.87-.16-23.91-5.76A30.33,30.33,0,0,1,.45,65.24c-.13-.47-.28-.94-.45-1.4V58.32C.22,57,.37,55.56.66,54.2c1.11-5.29,3.81-9.87,6.53-14.44C12.8,30.33,18.46,20.92,24,11.44,26.15,7.72,28,3.82,30,0Zm6,13.71A258.5,258.5,0,0,1,19.54,42.9c-1.83,2.85-3.73,5.69-5.35,8.64-6.09,11.67,3,25.35,15.6,25.11,5.2-.1,9.83-1.37,13.4-5.28,3.9-4.27,5.76-9.25,4.56-15.09a22.78,22.78,0,0,0-4.82-9.54c-2.13-2.67-4.47-5.17-6.84-7.9l-4,7.11c.86.92,1.65,1.72,2.38,2.56,2,2.27,3.91,4.55,4.92,7.45A9.82,9.82,0,0,1,34,68.29c-4,1.55-10.25,1-12.91-4.8-1.58-3.47-1.06-6.78.79-10Q28.62,41.83,35.42,30.2a20,20,0,0,0,3.08-9.83A13.21,13.21,0,0,0,36.67,13c-.2.38-.31.56-.39.73ZM25.51,57.66a4.36,4.36,0,0,0,1.68,5.2,5.24,5.24,0,0,0,6-.13,4.51,4.51,0,0,0,1.42-5.28c-1.34-2.66-2.89-5.21-4.49-8.06C28.44,52.29,26.84,54.91,25.51,57.66Z"/></g></g></svg>