<?xml version="1.0" encoding="UTF-8"?>
<svg width="240px" height="77px" viewBox="0 0 240 77" version="1.1" xmlns="http://www.w3.org/2000/svg" xmlns:xlink="http://www.w3.org/1999/xlink">
    <title>38EF88FB-65AD-4C6B-9F25-30AD4A94E0D3</title>
    <defs>
        <polygon id="path-1" points="0 0.56844277 52.3720268 0.56844277 52.3720268 76.8831026 0 76.8831026"></polygon>
    </defs>
    <g id="Page-1" stroke="none" stroke-width="1" fill="none" fill-rule="evenodd">
        <g id="Bakked-Landing---Desktop-HD" transform="translate(-67.000000, -51.000000)">
            <g id="Bakked-Logo-|-Header" transform="translate(67.000000, 51.000000)">
                <path d="M77.4079289,48.9717824 L74.7090772,48.9717824 L74.7090772,63.4899638 L77.4079289,63.4899638 C81.6489816,63.4899638 82.4817702,61.6031667 82.4817702,56.395919 C82.4817702,51.6418152 81.7762132,48.9717824 77.4079289,48.9717824 L77.4079289,48.9717824 Z M74.7090772,42.8562939 L77.7298634,42.8562939 C81.0706563,42.8562939 81.9670606,40.7741761 81.9670606,36.0864813 C81.9670606,31.3987865 81.0706563,29.5100362 77.7298634,29.5100362 L74.7090772,29.5100362 L74.7090772,42.8562939 Z M84.5386807,45.5888293 L84.5386807,45.7196941 C89.0380521,47.4756265 90,50.796077 90,56.5228774 C90,65.44317 87.621155,70 78.4354203,70 L67,70 L67,23 L78.9501299,23 C86.8500545,23 89.4872182,27.3615094 89.4872182,35.8892075 C89.4872182,40.8991813 88.5869583,43.8973528 84.5386807,45.5888293 L84.5386807,45.5888293 Z" id="Fill-1" fill="#FEFEFE"></path>
                <path d="M104.055424,53.5325188 L109.944576,53.5325188 L107.032751,34.1293687 L104.055424,53.5325188 Z M102.338499,23 L111.663486,23 L120,70 L112.393923,70 L111.002519,60.2359224 L102.997481,60.2359224 L101.610047,70 L94,70 L102.338499,23 Z" id="Fill-3" fill="#FEFEFE"></path>
                <polygon id="Fill-5" fill="#FEFEFE" points="133.319188 42.8571191 141.129151 23 148.383764 23 140.697417 41.7496052 149 70 141.49631 70 135.964945 49.1681905 133.319188 55.221428 133.319188 70 126 70 126 23 133.319188 23"></polygon>
                <polygon id="Fill-7" fill="#FEFEFE" points="162.317259 42.8571191 170.125411 23 177.387306 23 169.697264 41.7496052 178 70 170.498195 70 164.959961 49.1681905 162.317259 55.221428 162.317259 70 155 70 155 23 162.317259 23"></polygon>
                <polygon id="Fill-9" fill="#FEFEFE" points="192.885933 42.3992437 202.161397 42.3992437 202.161397 48.9717824 192.885933 48.9717824 192.885933 63.0329136 206 63.0329136 206 70 185 70 185 23 205.471223 23 205.471223 29.8362216 192.885933 29.8362216"></polygon>
                <path d="M219.604684,63.3607763 L222.671862,63.3607763 C226.373562,63.3607763 227.333972,61.5383592 227.333972,57.82516 L227.333972,35.1709334 C227.333972,31.463594 226.373562,29.6392237 222.671862,29.6392237 L219.604684,29.6392237 L219.604684,63.3607763 Z M235,57.3036323 C235,64.663619 231.932822,70 222.926821,70 L212,70 L212,23 L222.926821,23 C231.932822,23 235,28.3383343 235,35.6924611 L235,57.3036323 Z" id="Fill-11" fill="#FEFEFE"></path>
                <g id="Group-15">
                    <mask id="mask-2" fill="white">
                        <use xlink:href="#path-1"></use>
                    </mask>
                    <g id="Clip-14"></g>
                    <path d="M22.6690815,53.4788982 C23.5916741,54.8116064 24.9598593,55.1763068 26.0748222,55.1646674 C27.1858593,55.1763068 28.5540444,54.8116064 29.4746741,53.4788982 C31.0352296,51.21892 29.741637,49.3314017 29.3451185,48.6815367 C28.9486,48.0277919 26.0748222,43.0364408 26.0748222,43.0364408 C24.0529704,46.5398921 23.1028963,48.1655245 22.7318963,48.7940506 C22.6867481,48.8677666 22.6337481,48.9550619 22.5787852,49.0501168 C22.6101926,48.9977396 22.6533778,48.9259635 22.7063778,48.8367283 C22.6200074,48.9841604 22.5689704,49.0733956 22.5473778,49.1063738 C22.056637,49.9696273 21.367637,51.5933198 22.6690815,53.4788982 M13.8318222,42.2119852 C12.4498963,44.5573189 12.8837111,43.775541 13.8318222,42.2119852 M13.4647481,59.9348704 C16.9117111,64.9339811 22.0232667,66.2860882 26.1926,66.2453504 C30.3501556,66.2860882 35.4676,64.9339811 38.914563,59.9348704 C44.7484889,51.4982649 39.8764148,44.6174556 38.3492296,42.2119852 C36.4000074,39.1314312 31.2590074,34.0333858 31.2590074,34.0333858 L27.8650444,39.9772256 C27.8650444,39.9772256 30.5071926,42.4855105 32.4878222,45.2750802 C33.8422667,47.1800576 36.3901926,51.5370628 33.1356,56.249069 C31.2060074,59.0366988 28.3518593,59.793258 26.0257481,59.7699793 C23.7016,59.793258 20.8081926,59.0638573 18.9198222,56.249069 C15.9930444,51.8843041 18.0836,47.7794853 18.9649704,46.3478424 C19.8070815,44.9220192 21.9840074,41.4690052 26.0257481,34.4543432 C26.0257481,34.4543432 30.1381556,27.441621 31.0862667,25.7694311 C35.7797111,17.4783177 31.7968593,11.7284675 31.7968593,11.7284675 C25.3917111,25.4202499 15.3609704,39.6164051 13.8632296,42.159608 C12.2830444,44.72221 7.75448889,51.6650959 13.4647481,59.9348704 M46.8881185,36.0450575 C43.6040815,31.1507011 37.059563,24.0759023 37.059563,24.0759023 L33.7009333,29.9615452 C33.7009333,29.9615452 40.3534148,36.8248954 42.6500815,40.3205871 C45.5101185,44.6756525 49.6186,53.9134348 42.8130074,62.5304506 C37.903637,68.7419959 31.653563,70.7982851 26.2318593,70.7497877 C20.8081926,70.7982851 14.1046741,69.0678984 9.65856296,62.5304506 C2.80585926,52.4682127 7.49341481,44.4195863 10.1748222,39.3777979 C11.9827111,35.979101 24.2747852,15.1388038 25.9315259,12.3569937 C30.3678222,4.87481676 26.1513778,0.56824878 26.1513778,0.56824878 C14.7760074,22.374614 7.67204444,32.0954302 5.21637778,36.4310967 C2.73715556,40.8113807 -4.88895556,52.3518189 4.72563704,66.2628095 C10.5281556,74.6722564 19.1357481,76.9458139 26.1533407,76.8817974 C33.1493407,76.9458139 41.7608593,74.6722564 47.5633778,66.2628095 C57.3821185,52.0588947 49.5577481,40.0199033 46.8881185,36.0450575" id="Fill-13" fill="#FEFEFE" mask="url(#mask-2)"></path>
                </g>
                <polygon id="Fill-16" fill="#FEFEFE" points="235.327231 20.7425549 235.327231 25 234.686499 25 234.686499 20.7425549 234 20.7425549 234 20 236 20 236 20.7425549"></polygon>
                <polygon id="Fill-18" fill="#FEFEFE" points="239.118056 25 239.118056 21.226489 238.275463 25 237.678241 25 236.858796 21.2323668 236.858796 25 236 25 236 20 237.310185 20 238.00463 23.1308777 238.708333 20 240 20 240 25"></polygon>
            </g>
        </g>
    </g>
</svg>