<?xml version="1.0" encoding="UTF-8"?>
<svg width="144px" height="41px" viewBox="0 0 144 41" version="1.1" xmlns="http://www.w3.org/2000/svg" xmlns:xlink="http://www.w3.org/1999/xlink">
    <title>F9F1FD56-D743-4E29-A6B9-326D11871F26</title>
    <defs>
        <polygon id="path-1" points="0 39 143.719833 39 143.719833 0.184363636 0 0.184363636"></polygon>
    </defs>
    <g id="Page-1" stroke="none" stroke-width="1" fill="none" fill-rule="evenodd">
        <g id="Bakked-Landing---Desktop-HD" transform="translate(-1189.000000, -9054.000000)">
            <g id="Slang-Logo" transform="translate(1189.000000, 9054.863636)">
                <polygon id="Fill-1" fill="#FEFEFE" points="56.0711504 33.1363636 53.9947456 29.2211475 51.899796 33.1363636 49 26.3076157 50.6881993 26.3076157 52.0889535 29.727043 53.9947456 26.1363636 55.9023923 29.727043 57.3322 26.3076157 59 26.3076157"></polygon>
                <g id="Group-83" transform="translate(0.000000, 0.136364)">
                    <path d="M65.5395213,27.9861045 C65.1912703,28.1929227 64.913513,28.4659227 64.7068519,28.8080591 C64.5001908,29.1496045 64.3971615,29.5165591 64.3971615,29.9101045 C64.3971615,30.3012864 64.5001908,30.6706045 64.7068519,31.0156955 C64.913513,31.3607864 65.1912703,31.6367409 65.5395213,31.8453318 C65.8877724,32.0545136 66.268559,32.1591045 66.6818812,32.1591045 C67.0939983,32.1591045 67.4765925,32.0545136 67.8290611,31.8453318 C68.1803247,31.6367409 68.4574795,31.3607864 68.661128,31.0156955 C68.8641741,30.6706045 68.9659983,30.3012864 68.9659983,29.9101045 C68.9659983,29.5165591 68.8641741,29.1496045 68.661128,28.8080591 C68.4574795,28.4659227 68.1803247,28.1929227 67.8290611,27.9861045 C67.4765925,27.78165 67.0939983,27.6782409 66.6818812,27.6782409 C66.268559,27.6782409 65.8877724,27.78165 65.5395213,27.9861045 M64.7743331,33.0318773 C64.1941155,32.70865 63.7325925,32.2713773 63.3903665,31.7171045 C63.0481406,31.1634227 62.8776301,30.5606955 62.8776301,29.9101045 C62.8776301,29.26365 63.0481406,28.6644682 63.3903665,28.1096045 C63.7325925,27.5565136 64.1941155,27.1180591 64.7743331,26.7948318 C65.3545506,26.4716045 65.9908017,26.3114682 66.6818812,26.3114682 C67.3717556,26.3114682 68.0104167,26.4716045 68.5978644,26.7948318 C69.1853121,27.1180591 69.6498477,27.5565136 69.9920736,28.1096045 C70.3342996,28.6644682 70.5042075,29.26365 70.5042075,29.9101045 C70.5042075,30.5606955 70.3342996,31.1634227 69.9920736,31.7171045 C69.6498477,32.2713773 69.1853121,32.70865 68.5978644,33.0318773 C68.0104167,33.3551045 67.3717556,33.5164227 66.6818812,33.5164227 C65.9908017,33.5164227 65.3545506,33.3551045 64.7743331,33.0318773" id="Fill-2" fill="#FEFEFE"></path>
                    <path d="M78.3840201,29.9180818 C78.6485222,29.9180818 78.8871163,29.8259 79.0998025,29.6385818 C79.3130912,29.4518545 79.4197356,29.1912636 79.4197356,28.8550364 C79.4197356,28.5838091 79.3456268,28.3297182 79.1974092,28.0957182 C79.0485891,27.8617182 78.7774594,27.7447182 78.3840201,27.7447182 L76.7578444,27.7447182 L76.7578444,29.9180818 L78.3840201,29.9180818 Z M75.2377105,33.3837636 L75.2377105,26.4441273 L78.3840201,26.4441273 C78.8871163,26.4441273 79.3329741,26.5457636 79.7197858,26.7478545 C80.1072,26.9511273 80.4066477,27.2359455 80.6199364,27.6017182 C80.8326226,27.9698545 80.9386644,28.3876273 80.9386644,28.8550364 C80.9386644,29.3561273 80.8097272,29.8016727 80.5518527,30.1940364 C80.2945808,30.5864 79.9421121,30.8747636 79.4968569,31.0585364 C79.9553674,31.6275818 80.5645054,32.4028545 81.3266812,33.3837636 L79.4968569,33.3837636 C79.0835347,32.8773545 78.5195849,32.1558545 77.8032,31.2198545 L76.7578444,31.2198545 L76.7578444,33.3837636 L75.2377105,33.3837636 Z" id="Fill-4" fill="#FEFEFE"></path>
                    <polygon id="Fill-6" fill="#FEFEFE" points="91.0161941 33.3839409 85.7695331 33.3839409 85.7695331 26.4443045 87.3089473 26.4443045 87.3089473 32.08335 91.0161941 32.08335"></polygon>
                    <path d="M98.3621824,32.0832318 C98.9683079,32.0832318 99.4768268,31.9272318 99.8859314,31.6181864 C100.296844,31.3079591 100.501697,30.7412773 100.501697,29.9181409 C100.501697,29.0961864 100.294433,28.5295045 99.8823163,28.2204591 C99.4689941,27.9102318 98.9622828,27.7542318 98.3621824,27.7542318 L96.9685757,27.7542318 L96.9685757,32.0832318 L98.3621824,32.0832318 Z M95.4381992,26.4441864 L98.3621824,26.4441864 C99.4135632,26.4441864 100.275756,26.7349136 100.94635,27.3181409 C101.308459,27.6283682 101.582601,28.0024136 101.769379,28.44205 C101.95676,28.8828682 102.050149,29.3709591 102.050149,29.9098682 C102.050149,30.4351864 101.953145,30.9232773 101.760341,31.3759136 C101.565731,31.8279591 101.295203,32.2102773 100.94635,32.5193227 C100.624007,32.7988227 100.241413,33.0121409 99.7997724,33.1598682 C99.3575297,33.3099591 98.8779314,33.3838227 98.3621824,33.3838227 L95.4381992,33.3838227 L95.4381992,26.4441864 Z" id="Fill-8" fill="#FEFEFE"></path>
                    <polygon id="Fill-10" fill="#FEFEFE" points="112.726574 33.6401591 110.703946 29.51975 108.660833 33.6401591 105.835059 26.4535227 107.481118 26.4535227 108.845202 30.0521591 110.703946 26.2732955 112.563294 30.0521591 113.956298 26.4535227 115.582474 26.4535227"></polygon>
                    <mask id="mask-2" fill="white">
                        <use xlink:href="#path-1"></use>
                    </mask>
                    <g id="Clip-13"></g>
                    <polygon id="Fill-12" fill="#FEFEFE" mask="url(#mask-2)" points="120.161071 33.384 121.690243 33.384 121.690243 26.4443636 120.161071 26.4443636"></polygon>
                    <path d="M129.821001,32.0832318 C130.427126,32.0832318 130.935645,31.9272318 131.345352,31.6181864 C131.755059,31.3079591 131.960515,30.7412773 131.960515,29.9181409 C131.960515,29.0961864 131.753854,28.5295045 131.340532,28.2204591 C130.92721,27.9102318 130.421101,27.7542318 129.821001,27.7542318 L128.426792,27.7542318 L128.426792,32.0832318 L129.821001,32.0832318 Z M126.897018,26.4441864 L129.821001,26.4441864 C130.872382,26.4441864 131.734574,26.7349136 132.405168,27.3181409 C132.766674,27.6283682 133.040214,28.0024136 133.228197,28.44205 C133.414976,28.8828682 133.508967,29.3709591 133.508967,29.9098682 C133.508967,30.4351864 133.411963,30.9232773 133.218557,31.3759136 C133.023946,31.8279591 132.754022,32.2102773 132.405168,32.5193227 C132.082223,32.7988227 131.700231,33.0121409 131.258591,33.1598682 C130.815746,33.3099591 130.33675,33.3838227 129.821001,33.3838227 L126.897018,33.3838227 L126.897018,26.4441864 Z" id="Fill-14" fill="#FEFEFE" mask="url(#mask-2)"></path>
                    <polygon id="Fill-15" fill="#FEFEFE" mask="url(#mask-2)" points="139.500633 29.2914227 142.887344 29.2914227 142.887344 30.60265 139.500633 30.60265 139.500633 32.0834682 143.333202 32.0834682 143.333202 33.3840591 137.970859 33.3840591 137.970859 26.4444227 143.333202 26.4444227 143.333202 27.7450136 139.500633 27.7450136"></polygon>
                    <path d="M59.4325958,12.3501182 C58.7065707,12.0948455 57.7919598,11.8643909 56.6875582,11.6540273 L55.9687632,11.5181182 C55.2361105,11.3609364 54.7071063,11.2409818 54.3817506,11.1547091 C54.0545874,11.0713909 53.7557423,10.9331182 53.482805,10.7434364 C53.2092653,10.5543455 53.0724954,10.3038 53.0724954,9.99002727 C53.0724954,9.48125455 53.34001,9.11843636 53.8720268,8.90393636 C54.404646,8.68825455 54.9764285,8.58070909 55.5891816,8.58070909 C56.2814661,8.58070909 56.9803782,8.7113 57.685918,8.97189091 C58.3908552,9.23307273 59.069282,9.59175455 59.7218008,10.0485273 L61.4793238,7.69907273 C60.6002611,7.05852727 59.7187883,6.5793 58.8337004,6.25961818 C57.9486126,5.93993636 56.9074745,5.7798 55.7084787,5.7798 C54.1515916,5.7798 52.7965456,6.11661818 51.6457506,6.78848182 C50.4943531,7.46152727 49.9189556,8.56711818 49.9189556,10.1076182 C49.9189556,11.1523455 50.2443113,11.9808 50.8968301,12.5947545 C51.549349,13.2087091 52.2747715,13.6394818 53.0724954,13.8876636 C53.8720268,14.1352545 54.750487,14.3373455 55.7084787,14.4933455 C56.4278762,14.6239364 57.0068887,14.7462545 57.4455163,14.8567545 C57.885349,14.9666636 58.2480603,15.1338909 58.5336502,15.3554818 C58.8198427,15.5770727 58.9632402,15.8642545 58.9632402,16.2164364 C58.9632402,16.6478 58.7204285,17.0194818 58.2342025,17.3338455 C57.7485791,17.6464364 57.0930477,17.8036182 56.2682109,17.8036182 C55.4825372,17.8036182 54.6173322,17.6174818 53.6713908,17.2446182 C52.7266544,16.8729364 51.9680937,16.4516182 51.3963113,15.9818455 L49.7189222,18.3513909 C51.5029556,19.8404818 53.6985038,20.5838455 56.3073741,20.5838455 C58.090805,20.5838455 59.5054996,20.2050727 60.5502527,19.4481182 C61.5956084,18.6905727 62.1179849,17.5873455 62.1179849,16.1390273 C62.1179849,15.0683 61.8516753,14.2327545 61.3196586,13.6323909 C60.7864368,13.0320273 60.1580184,12.6042091 59.4325958,12.3501182" id="Fill-16" fill="#FEFEFE" mask="url(#mask-2)"></path>
                    <polygon id="Fill-17" fill="#FEFEFE" mask="url(#mask-2)" points="72.4401339 17.6186636 70.3759331 17.6186636 72.4401339 17.0555273 72.4401339 5.99548182 69.2655063 5.99548182 69.2655063 20.3102545 80.0877992 20.3102545 80.0877992 17.6269364 72.4401339 17.6269364"></polygon>
                    <path d="M90.0906176,17.6267591 L90.0954377,17.6184864 L88.2626008,17.6184864 L90.4045255,17.0334864 L93.2055967,11.7324409 L96.333831,17.6267591 L90.0906176,17.6267591 Z M85.1988351,20.3100773 L87.0557724,20.3100773 L88.6723079,20.3100773 L97.7581657,20.3100773 L98.4173121,20.3100773 L101.211756,20.3100773 L93.2055967,5.54444091 L85.1988351,20.3100773 Z" id="Fill-18" fill="#FEFEFE" mask="url(#mask-2)"></path>
                    <polygon id="Fill-19" fill="#FEFEFE" mask="url(#mask-2)" points="117.743739 14.2786091 107.680609 5.54438182 107.680609 20.3100182 110.815471 20.3100182 110.815471 13.9323364 110.810651 13.9323364 110.810651 10.9157455 111.275789 12.5555182 120.898484 20.7602909 120.898484 6.01533636 117.743739 6.01533636"></polygon>
                    <path d="M143.679946,12.3397182 L134.854976,12.3397182 L134.854976,15.0620364 L140.305285,15.0620364 C140.158875,15.5584 139.866658,16.0157636 139.426825,16.4323545 C138.988197,16.8501273 138.468833,17.1798545 137.869336,17.4215364 C137.271043,17.6626273 136.66552,17.7837636 136.052767,17.7837636 C135.200817,17.7837636 134.412131,17.5716273 133.686708,17.1467636 C132.961888,16.7230818 132.385888,16.1552182 131.959913,15.4431727 C131.533938,14.7323091 131.320649,13.9718091 131.320649,13.1628545 C131.320649,12.3521273 131.533938,11.5951727 131.959913,10.8914 C132.385888,10.1858545 132.961888,9.62153636 133.686708,9.19726364 C134.412131,8.7724 135.200817,8.56026364 136.052767,8.56026364 C136.81193,8.56026364 137.530725,8.76294545 138.209754,9.16830909 C138.888181,9.5719 139.467796,10.0948545 139.946189,10.7342182 L142.661704,9.18662727 C141.929654,8.12949091 140.981302,7.29158182 139.817252,6.67053636 C138.651394,6.05067273 137.39757,5.74044545 136.052767,5.74044545 C134.629034,5.74044545 133.314356,6.07371818 132.109938,6.73967273 C130.904315,7.40562727 129.949938,8.30971818 129.243796,9.45076364 C128.538256,10.5935818 128.18639,11.8309455 128.18639,13.1628545 C128.18639,14.5071727 128.538256,15.7469 129.243796,16.8820364 C129.949938,18.0177636 130.904315,18.9194909 132.109938,19.5854455 C133.314356,20.2514 134.629034,20.5834909 136.052767,20.5834909 C137.356599,20.5834909 138.57126,20.3158091 139.69675,19.7804455 C140.821637,19.2462636 141.73926,18.5017182 142.45203,17.5479909 C143.164197,16.5960364 143.573905,15.5194 143.679946,14.3180818 C143.706457,13.9269 143.719712,13.6521273 143.719712,13.4949455 C143.719712,13.2479455 143.706457,12.8626727 143.679946,12.3397182" id="Fill-20" fill="#FEFEFE" mask="url(#mask-2)"></path>
                    <path d="M25.6232033,25.3177955 C25.6527264,25.3018409 25.6822494,25.2864773 25.7111699,25.2705227 L25.6286259,25.2705227 C25.6274209,25.2864773 25.6250109,25.3018409 25.6232033,25.3177955" id="Fill-21" fill="#FEFEFE" mask="url(#mask-2)"></path>
                    <path d="M8.46930879,19.3463636 L5.95503264,19.3463636 C6.01528368,17.5966818 6.41715816,15.9060909 7.12872301,14.3490455 L9.29836318,14.3490455 C8.79466444,15.9185 8.51148452,17.6061364 8.46930879,19.3463636 L8.46930879,19.3463636 Z M9.93642176,10.3639545 C10.2804552,10.0259545 10.640154,9.70804545 11.0131079,9.412 L11.9476017,9.412 C11.8548151,9.52486364 11.762631,9.63890909 11.6716519,9.7565 C10.8323548,10.8485 10.1454929,12.0858636 9.62612887,13.4225 L7.59747615,13.4225 C8.21504937,12.3121818 8.99831297,11.2828182 9.93642176,10.3639545 L9.93642176,10.3639545 Z M13.4821958,7.85022727 C13.2454092,8.04995455 13.0146477,8.26209091 12.7893088,8.48722727 L12.3301958,8.48722727 C12.7043548,8.255 13.089359,8.04404545 13.4821958,7.85022727 L13.4821958,7.85022727 Z M12.7121874,20.2717273 C12.7097774,20.0489545 12.7073674,19.8261818 12.7073674,19.6016364 C12.7073674,19.5159545 12.7085724,19.4320455 12.7091749,19.3463636 L9.41284017,19.3463636 C9.45923347,17.5724545 9.77012887,15.8842273 10.2949155,14.3490455 L13.2032335,14.3490455 C13.261677,14.0364545 13.3243381,13.728 13.3900117,13.4225 L10.6443715,13.4225 C11.2884552,11.8743182 12.1578778,10.5128636 13.1954008,9.412 L14.5245389,9.412 C14.6335933,9.09645455 14.7462628,8.78740909 14.8607397,8.48722727 L14.1811079,8.48722727 C14.4871833,8.23431818 14.8047063,8.00268182 15.1318695,7.7935 C15.3897439,7.14940909 15.6548485,6.54254545 15.9181456,5.97468182 C13.4243548,6.604 11.1366226,7.87563636 9.26823766,9.70804545 C6.51777741,12.4067273 5.0024636,15.9935455 5.0024636,19.8090455 C5.0024636,20.7314545 5.09223766,21.6408636 5.26515816,22.5272273 C5.59051381,22.5869091 5.92671464,22.6530909 6.27255565,22.7281364 C6.0912,21.9268636 5.98395314,21.1066818 5.95503264,20.2717273 L8.46930879,20.2717273 C8.49521674,21.3324091 8.61150126,22.3724091 8.81153473,23.3775455 C9.15677322,23.4827273 9.50381925,23.5932273 9.8526728,23.7137727 C9.59781088,22.6182273 9.44417071,21.4653636 9.41284017,20.2717273 L12.7121874,20.2717273 Z" id="Fill-22" fill="#FEFEFE" mask="url(#mask-2)"></path>
                    <path d="M30.6650711,19.3463636 C30.6228954,17.6061364 30.340318,15.9185 29.8366192,14.3490455 L32.0056569,14.3490455 C32.7172218,15.9060909 33.1184937,17.5966818 33.1787448,19.3463636 L30.6650711,19.3463636 Z M29.5088536,13.4225 C28.9894895,12.0858636 28.3026276,10.8485 27.462728,9.7565 C27.371749,9.63890909 27.2795649,9.52486364 27.1873808,9.412 L28.121272,9.412 C28.4942259,9.70804545 28.8545272,10.0259545 29.1985607,10.3639545 C30.1360669,11.2828182 30.9193305,12.3121818 31.5369038,13.4225 L29.5088536,13.4225 Z M26.3450711,8.48722727 C26.1197322,8.26209091 25.8889707,8.04995455 25.6521841,7.85022727 C26.0456234,8.04404545 26.4300251,8.255 26.8047866,8.48722727 L26.3450711,8.48722727 Z M29.8661423,9.70804545 C27.8555649,7.73618182 25.3599665,6.41313636 22.6438494,5.84290909 C22.8728033,6.33277273 23.1041674,6.85395455 23.3325188,7.40231818 C23.8994812,7.70131818 24.4423431,8.06354545 24.9538745,8.48722727 L23.7627113,8.48722727 C23.8771883,8.78740909 23.9892552,9.09645455 24.0995146,9.412 L25.9395816,9.412 C26.9765021,10.5128636 27.8459247,11.8743182 28.4900084,13.4225 L25.2334393,13.4225 C25.2997155,13.728 25.3617741,14.0364545 25.4196151,14.3490455 L28.8400669,14.3490455 C29.3648536,15.8842273 29.6751464,17.5724545 29.7203347,19.3463636 L25.9142762,19.3463636 C25.9148787,19.4320455 25.9160837,19.5159545 25.9160837,19.6016364 C25.9160837,19.8261818 25.9136736,20.0489545 25.9106611,20.2717273 L29.7203347,20.2717273 C29.6896067,21.4653636 29.5377741,22.6182273 29.2823096,23.7137727 C29.6311632,23.5932273 29.9782092,23.4827273 30.3234477,23.3775455 C30.5228787,22.3724091 30.6391632,21.3324091 30.6650711,20.2717273 L33.1787448,20.2717273 C33.1504268,21.1066818 33.0431799,21.9268636 32.8618243,22.7281364 C33.2076653,22.6530909 33.5438661,22.5869091 33.8698243,22.5272273 C34.0427448,21.6408636 34.1319163,20.7314545 34.1319163,19.8090455 C34.1319163,15.9935455 32.617205,12.4067273 29.8661423,9.70804545 L29.8661423,9.70804545 Z" id="Fill-23" fill="#FEFEFE" mask="url(#mask-2)"></path>
                    <path d="M4.2364318,19.9834227 C4.31596318,19.9834227 4.37862427,19.9213773 4.37862427,19.8439682 L4.37862427,19.8079227 C4.37862427,19.7269682 4.37982929,19.6454227 4.38223933,19.5644682 C4.38223933,19.4858773 4.31897573,19.42265 4.24125188,19.4214682 C4.16292552,19.4297409 4.0984569,19.4823318 4.09544435,19.5597409 C4.09423933,19.6430591 4.09423933,19.7251955 4.09423933,19.8079227 L4.09423933,19.8439682 C4.09423933,19.9213773 4.15870795,19.9834227 4.2364318,19.9834227" id="Fill-24" fill="#FEFEFE" mask="url(#mask-2)"></path>
                    <path d="M4.29288703,21.1063864 C4.37121339,21.1004773 4.43086192,21.0325227 4.42423431,20.9551136 C4.41700418,20.8641136 4.41097908,20.7695682 4.40555649,20.6767955 C4.40013389,20.5999773 4.33205021,20.5349773 4.25432636,20.5444318 C4.176,20.5503409 4.11394142,20.6171136 4.11876151,20.6945227 C4.12538912,20.7878864 4.13081172,20.8836136 4.13804184,20.9769773 C4.14346444,21.0508409 4.20733054,21.1063864 4.28023431,21.1063864 L4.29288703,21.1063864 Z" id="Fill-25" fill="#FEFEFE" mask="url(#mask-2)"></path>
                    <path d="M4.35114979,21.6649727 C4.27342594,21.6744273 4.21739247,21.7459273 4.22884017,21.8221545 C4.24089038,21.9167 4.25474812,22.0100636 4.26860586,22.1034273 C4.28005356,22.1725636 4.3403046,22.2222 4.41140084,22.2222 C4.41682343,22.2222 4.42525858,22.2222 4.4324887,22.2210182 C4.51081506,22.2097909 4.56443849,22.1382909 4.55238828,22.0608818 C4.53792803,21.9698818 4.5246728,21.8771091 4.51202008,21.7861091 C4.5011749,21.7087 4.42525858,21.6525636 4.35114979,21.6649727" id="Fill-26" fill="#FEFEFE" mask="url(#mask-2)"></path>
                    <path d="M34.8655933,20.7913136 C34.790882,20.7842227 34.7191833,20.8433136 34.7119531,20.9207227 C34.705928,21.0140864 34.6980954,21.1062682 34.6896603,21.19845 C34.6812251,21.2758591 34.7402711,21.3444045 34.8185975,21.3509045 L34.8330577,21.3509045 C34.905359,21.3509045 34.9680201,21.2965409 34.9758527,21.2238591 C34.9830828,21.1304955 34.9921205,21.03595 34.9993506,20.9414045 C35.0035682,20.8639955 34.9463297,20.7972227 34.8655933,20.7913136" id="Fill-27" fill="#FEFEFE" mask="url(#mask-2)"></path>
                    <path d="M34.8979481,19.6002773 C34.8184167,19.6002773 34.7557556,19.6635045 34.7557556,19.7409136 L34.7557556,19.8082773 C34.7557556,19.9004591 34.7551531,19.9950045 34.7521406,20.0871864 C34.7497305,20.1645955 34.8129941,20.2278227 34.8925255,20.2301864 L34.8955381,20.2301864 C34.9732619,20.2301864 35.035923,20.1693227 35.0389356,20.0919136 C35.0413456,19.99855 35.0413456,19.9040045 35.0413456,19.8082773 L35.0413456,19.7409136 C35.0413456,19.6635045 34.975672,19.6002773 34.8979481,19.6002773" id="Fill-28" fill="#FEFEFE" mask="url(#mask-2)"></path>
                    <path d="M34.8702929,22.0689182 C34.8829456,21.9915091 34.8275146,21.9211909 34.7497908,21.9105545 C34.6726695,21.8969636 34.5991632,21.9513273 34.5877155,22.0287364 C34.5738577,22.1209182 34.558795,22.2095545 34.5437322,22.3023273 C34.5365021,22.3401455 34.5461423,22.3767818 34.5660251,22.4045545 C34.6521841,22.3921455 34.7359331,22.3779636 34.819682,22.3643727 C34.8214895,22.3596455 34.8251046,22.3549182 34.8251046,22.3496 C34.8413724,22.2556455 34.8570377,22.1622818 34.8702929,22.0689182" id="Fill-29" fill="#FEFEFE" mask="url(#mask-2)"></path>
                    <path d="M26.4946142,6.23444545 C26.4078527,6.19308182 26.3216937,6.14994545 26.2331247,6.11094545 C26.162631,6.07608182 26.0770745,6.10503636 26.0433339,6.17535455 C26.0089908,6.24508182 26.0385138,6.33017273 26.1108151,6.36385455 C26.1969741,6.40285455 26.280723,6.44362727 26.365677,6.48617273 C26.3855598,6.4974 26.4078527,6.50094545 26.4301456,6.50094545 C26.482564,6.50094545 26.5331749,6.47199091 26.5578778,6.42353636 C26.5934259,6.35321818 26.5651079,6.27049091 26.4946142,6.23444545" id="Fill-30" fill="#FEFEFE" mask="url(#mask-2)"></path>
                    <path d="M27.5107481,6.78145 C27.4276017,6.73417727 27.3438527,6.68572273 27.2595013,6.63845 C27.1914176,6.60004091 27.1046561,6.62190455 27.0648904,6.69045 C27.0245222,6.75722273 27.0480201,6.84349545 27.1179113,6.88190455 C27.1998527,6.92799545 27.2805891,6.97526818 27.3625305,7.02254091 C27.3854259,7.03554091 27.4107314,7.04204091 27.4360368,7.04204091 C27.4842377,7.04204091 27.531836,7.01781364 27.558949,6.97526818 C27.6005222,6.90849545 27.5782293,6.82281364 27.5107481,6.78145" id="Fill-31" fill="#FEFEFE" mask="url(#mask-2)"></path>
                    <path d="M28.2415331,7.23964091 C28.1770644,7.19709545 28.0866879,7.21305 28.0427046,7.27745909 C27.9981188,7.34127727 28.0155916,7.42873182 28.0806628,7.47305 C28.1583866,7.52445909 28.2373155,7.57764091 28.3144368,7.63082273 C28.3391397,7.64914091 28.3680603,7.65623182 28.3969808,7.65623182 C28.4427715,7.65623182 28.4861523,7.63673182 28.5132653,7.59655 C28.5596586,7.53391364 28.5445958,7.44645909 28.4801272,7.40095909 C28.4011983,7.34718636 28.3222695,7.29282273 28.2415331,7.23964091" id="Fill-32" fill="#FEFEFE" mask="url(#mask-2)"></path>
                    <path d="M29.1740987,7.91020455 C29.1138477,7.86293182 29.0216636,7.87356818 28.9728603,7.93443182 C28.9228519,7.99588636 28.9349021,8.08334091 28.9963582,8.13297727 C29.0704669,8.18852273 29.1433707,8.24820455 29.2174795,8.30729545 C29.24399,8.32797727 29.275923,8.33979545 29.3078561,8.33979545 C29.3500318,8.33979545 29.3910025,8.32088636 29.4181155,8.28779545 C29.4681238,8.22870455 29.4596887,8.14006818 29.3994377,8.08925 C29.3253289,8.03015909 29.2494126,7.97047727 29.1740987,7.91020455" id="Fill-33" fill="#FEFEFE" mask="url(#mask-2)"></path>
                    <path d="M30.0531615,8.64884091 C29.993513,8.59565909 29.9037389,8.60038636 29.850718,8.65593182 C29.7970946,8.71443182 29.8001071,8.80247727 29.8591531,8.85565909 C29.9290444,8.91888636 29.997128,8.98211364 30.0658142,9.04593182 C30.0929272,9.07134091 30.1290778,9.08375 30.1652285,9.08375 C30.2025841,9.08375 30.2405423,9.07015909 30.2682577,9.04120455 C30.3230862,8.98565909 30.3212787,8.89702273 30.2646427,8.84147727 C30.194149,8.77825 30.1236552,8.71325 30.0531615,8.64884091" id="Fill-34" fill="#FEFEFE" mask="url(#mask-2)"></path>
                    <path d="M4.26583431,18.8605182 L4.2766795,18.8605182 C4.35139079,18.8605182 4.41284686,18.8049727 4.41766695,18.7299273 C4.42549958,18.6365636 4.43272971,18.5455636 4.44176736,18.4533818 C4.44779247,18.3747909 4.38995146,18.3074273 4.31102259,18.3021091 C4.23510628,18.2973818 4.16280502,18.3505636 4.15617741,18.4279727 C4.14713975,18.5213364 4.13990962,18.6170636 4.13328201,18.7104273 C4.1272569,18.7878364 4.18750795,18.8546091 4.26583431,18.8605182" id="Fill-35" fill="#FEFEFE" mask="url(#mask-2)"></path>
                    <path d="M22.1681674,4.86448182 C22.1862427,4.90111818 22.2049205,4.93716364 22.2235983,4.97439091 C22.2223933,4.93007273 22.2025105,4.89107273 22.1681674,4.86448182" id="Fill-36" fill="#FEFEFE" mask="url(#mask-2)"></path>
                    <path d="M23.2384669,5.06296818 C23.1450778,5.04110455 23.0504837,5.01924091 22.9564921,4.99737727 C22.8793707,4.98083182 22.8034544,5.02810455 22.7847766,5.10433182 C22.7685088,5.18055909 22.8179146,5.25560455 22.8944335,5.27215 C22.9866176,5.29283182 23.0781992,5.31351364 23.1715883,5.33537727 C23.1824335,5.33892273 23.1932787,5.34010455 23.2041238,5.34010455 C23.2697975,5.34010455 23.328241,5.29696818 23.3445088,5.23255909 C23.3625841,5.15633182 23.3155883,5.08010455 23.2384669,5.06296818" id="Fill-37" fill="#FEFEFE" mask="url(#mask-2)"></path>
                    <path d="M25.4407632,5.76355 C25.3509891,5.72868636 25.2624201,5.69323182 25.170236,5.65836818 C25.0991397,5.63059545 25.0147883,5.66545909 24.9858678,5.73814091 C24.9569473,5.81082273 24.9937004,5.89295909 25.0678092,5.92073182 C25.1551732,5.95382273 25.2437423,5.98868636 25.3311063,6.02295909 C25.3497841,6.03241364 25.3672569,6.03477727 25.3859347,6.03477727 C25.4431732,6.03477727 25.4967967,6.00109545 25.5190895,5.94732273 C25.5492151,5.87523182 25.5142695,5.79368636 25.4407632,5.76355" id="Fill-38" fill="#FEFEFE" mask="url(#mask-2)"></path>
                    <path d="M24.3516653,5.37112727 C24.2612887,5.34335455 24.1678996,5.31558182 24.0757155,5.28780909 C24.0004017,5.26476364 23.9196653,5.30671818 23.8961674,5.38058182 C23.873272,5.45444545 23.9160502,5.53362727 23.9919665,5.55549091 C24.0835481,5.58208182 24.1739247,5.61103636 24.2643013,5.63999091 C24.2799665,5.64353636 24.2932218,5.64708182 24.307682,5.64708182 C24.3691381,5.64708182 24.424569,5.60749091 24.4444519,5.54899091 C24.4685523,5.47512727 24.4275816,5.39653636 24.3516653,5.37112727" id="Fill-39" fill="#FEFEFE" mask="url(#mask-2)"></path>
                    <path d="M34.7791331,17.9187273 C34.8568569,17.9092727 34.9128904,17.8377727 34.9014427,17.7615455 C34.88879,17.667 34.8743297,17.5724545 34.860472,17.4802727 C34.8484218,17.4040455 34.7737105,17.3520455 34.6959866,17.3626818 C34.6182628,17.3750909 34.5652418,17.4465909 34.5766895,17.524 C34.5911498,17.6138182 34.6050075,17.7077727 34.6176603,17.7999545 C34.6273004,17.8702727 34.6899615,17.9210909 34.7580452,17.9210909 C34.7664803,17.9210909 34.7731079,17.9199091 34.7791331,17.9187273" id="Fill-40" fill="#FEFEFE" mask="url(#mask-2)"></path>
                    <path d="M34.4213623,15.5446909 C34.3954544,15.4536909 34.3671364,15.3621 34.3382159,15.2722818 C34.3141155,15.1984182 34.2333791,15.1570545 34.1580653,15.1812818 C34.083354,15.2031455 34.0411782,15.2829182 34.0646762,15.3567818 C34.0923916,15.4454182 34.1201071,15.5340545 34.1472201,15.6221 C34.1646929,15.6829636 34.2225339,15.7249182 34.2833874,15.7249182 C34.2978477,15.7249182 34.3111029,15.7225545 34.3231531,15.7178273 C34.4002745,15.6959636 34.4436552,15.6197364 34.4213623,15.5446909" id="Fill-41" fill="#FEFEFE" mask="url(#mask-2)"></path>
                    <path d="M34.7038192,16.6434273 C34.6845389,16.5512455 34.663451,16.4590636 34.6417607,16.3662909 C34.6236854,16.2912455 34.5483715,16.2451545 34.4694427,16.2617 C34.3929238,16.2800182 34.343518,16.3550636 34.3615933,16.4312909 C34.3844887,16.5211091 34.4043715,16.6121091 34.4230494,16.7037 C34.4381121,16.7681091 34.4983632,16.8130182 34.5640368,16.8130182 C34.573677,16.8130182 34.5845222,16.8130182 34.5929573,16.8106545 C34.6706812,16.7935182 34.7212921,16.7196545 34.7038192,16.6434273" id="Fill-42" fill="#FEFEFE" mask="url(#mask-2)"></path>
                    <path d="M31.6312569,10.3038591 C31.581851,10.2447682 31.4902695,10.2347227 31.4300184,10.2831773 C31.3679598,10.3316318 31.3583197,10.4202682 31.4077255,10.4805409 C31.4673741,10.5532227 31.5264201,10.6259045 31.5842611,10.6997682 C31.6113741,10.7346318 31.6541523,10.7541318 31.696328,10.7541318 C31.7270561,10.7541318 31.7583866,10.7434955 31.7848971,10.7239955 C31.8469556,10.6755409 31.8590059,10.5874955 31.8102025,10.5278136 C31.750554,10.4527682 31.6921105,10.3777227 31.6312569,10.3038591" id="Fill-43" fill="#FEFEFE" mask="url(#mask-2)"></path>
                    <path d="M34.7079163,18.62965 C34.715749,18.7218318 34.7217741,18.8134227 34.7284017,18.9067864 C34.7320167,18.98065 34.7958828,19.03915 34.8705941,19.03915 C34.8730042,19.03915 34.8766192,19.03915 34.8790293,19.0379682 C34.9579582,19.0350136 35.0182092,18.96765 35.0121841,18.8890591 C35.007364,18.7956955 35.0007364,18.70115 34.9935063,18.6054227 C34.9874812,18.5291955 34.918795,18.47365 34.8392636,18.4771955 C34.7603347,18.4842864 34.7012887,18.5510591 34.7079163,18.62965" id="Fill-44" fill="#FEFEFE" mask="url(#mask-2)"></path>
                    <path d="M32.9409941,12.1700682 C32.9012285,12.1021136 32.8126594,12.0814318 32.7445757,12.1204318 C32.6770946,12.1594318 32.6535967,12.2451136 32.6927598,12.3118864 C32.7409607,12.3916591 32.7879565,12.4726136 32.8331448,12.5529773 C32.8602577,12.5996591 32.9084586,12.6238864 32.9584669,12.6238864 C32.9825674,12.6238864 33.0054628,12.6191591 33.0289607,12.6073409 C33.0988519,12.5695227 33.1223498,12.4826591 33.0837891,12.4170682 C33.0361908,12.3325682 32.9885925,12.2510227 32.9409941,12.1700682" id="Fill-45" fill="#FEFEFE" mask="url(#mask-2)"></path>
                    <path d="M34.056,14.4679364 C34.0210544,14.3793 33.9873138,14.2912545 33.9505607,14.2038 C33.9222427,14.1311182 33.8378912,14.0950727 33.7649874,14.1240273 C33.6920837,14.1541636 33.6565356,14.2357091 33.6848536,14.3078 C33.7197992,14.3928909 33.7541423,14.4797545 33.7878828,14.5672091 C33.8089707,14.6215727 33.8637992,14.6593909 33.9204351,14.6593909 C33.9379079,14.6593909 33.9553808,14.6558455 33.971046,14.6493455 C34.0457573,14.6215727 34.0837155,14.5429818 34.056,14.4679364" id="Fill-46" fill="#FEFEFE" mask="url(#mask-2)"></path>
                    <path d="M32.3214326,11.2132682 C32.2780519,11.1500409 32.1876753,11.1334955 32.1220017,11.1772227 C32.0575331,11.2215409 32.0406628,11.3089955 32.085851,11.3728136 C32.138872,11.44845 32.1912904,11.5246773 32.2437088,11.6032682 C32.2702192,11.6440409 32.31601,11.6670864 32.3642109,11.6670864 C32.3907213,11.6670864 32.4172318,11.6599955 32.4419347,11.6440409 C32.5076084,11.5997227 32.5256837,11.51345 32.4835079,11.44845 C32.430487,11.37045 32.3762611,11.2906773 32.3214326,11.2132682" id="Fill-47" fill="#FEFEFE" mask="url(#mask-2)"></path>
                    <path d="M33.4852418,13.16835 C33.4515013,13.0992136 33.3635347,13.0690773 33.294246,13.1039409 C33.2225473,13.1382136 33.1930243,13.2227136 33.2273674,13.29185 C33.2683381,13.3751682 33.3087063,13.4590773 33.3490745,13.5423955 C33.3725724,13.5932136 33.4243883,13.62335 33.4786142,13.62335 C33.4984971,13.62335 33.5201874,13.6198045 33.5400703,13.61035 C33.611769,13.5790318 33.6424971,13.4939409 33.609359,13.4236227 C33.5671833,13.3379409 33.5268151,13.2540318 33.4852418,13.16835" id="Fill-48" fill="#FEFEFE" mask="url(#mask-2)"></path>
                    <path d="M30.8739615,9.44751364 C30.817928,9.39078636 30.7287565,9.38842273 30.6721205,9.44160455 C30.612472,9.49478636 30.6106644,9.58342273 30.6642879,9.64015 C30.7287565,9.70810455 30.7920201,9.77546818 30.8558862,9.84460455 C30.8842042,9.87592273 30.9227649,9.89187727 30.9625305,9.89187727 C30.9968736,9.89187727 31.0312167,9.87887727 31.0583297,9.85583182 C31.1167732,9.80442273 31.1227983,9.71637727 31.0685724,9.65728636 C31.0053088,9.58696818 30.9390326,9.51665 30.8739615,9.44751364" id="Fill-49" fill="#FEFEFE" mask="url(#mask-2)"></path>
                    <path d="M9.11357322,8.95120909 C9.14912134,8.95120909 9.18225941,8.9388 9.21117992,8.91457273 C9.28107113,8.84957273 9.34975732,8.78752727 9.42025105,8.72607273 C9.47809205,8.67407273 9.48411715,8.58543636 9.43049372,8.52870909 C9.37928033,8.46902727 9.28830126,8.46548182 9.22865272,8.51748182 C9.15695397,8.57952727 9.08585774,8.64393636 9.01536402,8.70775455 C8.95812552,8.7633 8.95511297,8.84957273 9.0087364,8.90748182 C9.03705439,8.93643636 9.07501255,8.95120909 9.11357322,8.95120909" id="Fill-50" fill="#FEFEFE" mask="url(#mask-2)"></path>
                    <path d="M6.87946444,11.5076 C6.92585774,11.5076 6.97044351,11.4845545 6.99876151,11.4455545 C7.05117992,11.3681455 7.10661088,11.2931 7.16023431,11.2168727 C7.20662762,11.1542364 7.19035983,11.0656 7.1252887,11.0206909 C7.06142259,10.9781455 6.97164854,10.9905545 6.92585774,11.0526 C6.87102929,11.1311909 6.81620084,11.2086 6.76016736,11.2871909 C6.71678661,11.3516 6.7336569,11.4396455 6.79993305,11.4833727 C6.82463598,11.4981455 6.85174895,11.5076 6.87946444,11.5076" id="Fill-51" fill="#FEFEFE" mask="url(#mask-2)"></path>
                    <path d="M7.55789121,10.6027409 C7.60006695,10.6027409 7.64224268,10.5844227 7.67116318,10.5471955 C7.73081172,10.4756955 7.78985774,10.4030136 7.85010879,10.3315136 C7.90011715,10.2712409 7.89228452,10.1837864 7.82962343,10.13415 C7.7699749,10.0845136 7.67959833,10.0927864 7.62838494,10.1524682 C7.56753138,10.2263318 7.50788285,10.2990136 7.44702929,10.3728773 C7.39762343,10.4343318 7.40786611,10.5217864 7.46992469,10.5690591 C7.49583264,10.5909227 7.52776569,10.6027409 7.55789121,10.6027409" id="Fill-52" fill="#FEFEFE" mask="url(#mask-2)"></path>
                    <path d="M8.30512469,9.74757727 C8.34308285,9.74757727 8.38224603,9.73398636 8.41056402,9.70385 C8.47503264,9.63589545 8.53950126,9.56616818 8.60457238,9.50057727 C8.65940084,9.44503182 8.65879833,9.35521364 8.60095732,9.30203182 C8.54311632,9.24885 8.45334226,9.25003182 8.39730879,9.30557727 C8.33103264,9.37353182 8.265359,9.44385 8.20028787,9.51239545 C8.14606192,9.56971364 8.14907448,9.65894091 8.20691548,9.71153182 C8.23523347,9.73575909 8.27078159,9.74757727 8.30512469,9.74757727" id="Fill-53" fill="#FEFEFE" mask="url(#mask-2)"></path>
                    <path d="M5.67444351,13.4430636 C5.69372385,13.4525182 5.71481172,13.4566545 5.73529707,13.4566545 C5.78952301,13.4566545 5.8407364,13.4259273 5.86483682,13.3762909 C5.90701255,13.2917909 5.94858577,13.2096545 5.990159,13.1257455 C6.02630962,13.0566091 5.99738912,12.9721091 5.9268954,12.9354727 C5.85640167,12.9029727 5.77024268,12.9283818 5.73469456,12.9998818 C5.6907113,13.0855636 5.64853556,13.1694727 5.60635983,13.2551545 C5.57201674,13.3242909 5.60274477,13.4082 5.67444351,13.4430636" id="Fill-54" fill="#FEFEFE" mask="url(#mask-2)"></path>
                    <path d="M4.4670728,17.1870045 C4.39416904,17.1745955 4.31584268,17.2260045 4.30379247,17.3034136 C4.28692218,17.3967773 4.27306444,17.48955 4.25800167,17.5829136 C4.247759,17.6603227 4.30198494,17.7306409 4.37910628,17.7418682 C4.38513138,17.74305 4.39416904,17.7442318 4.40019414,17.7442318 C4.47129038,17.7442318 4.53093891,17.6945955 4.54118159,17.6254591 C4.55624435,17.5320955 4.5707046,17.4410955 4.58636987,17.3495045 C4.59902259,17.2726864 4.54660418,17.1994136 4.4670728,17.1870045" id="Fill-55" fill="#FEFEFE" mask="url(#mask-2)"></path>
                    <path d="M5.22665774,14.4794591 C5.24352803,14.48655 5.26160335,14.4889136 5.27907615,14.4889136 C5.33691715,14.4889136 5.38993808,14.4552318 5.41283347,14.3996864 C5.44717657,14.3122318 5.48151967,14.22655 5.5182728,14.1402773 C5.54719331,14.0687773 5.51405523,13.9866409 5.43994644,13.9576864 C5.36704268,13.9263682 5.28269121,13.9635955 5.25437322,14.0327318 C5.21581255,14.1219591 5.18026444,14.2082318 5.14471632,14.2968682 C5.11579582,14.3707318 5.15315146,14.4516864 5.22665774,14.4794591" id="Fill-56" fill="#FEFEFE" mask="url(#mask-2)"></path>
                    <path d="M4.70831799,16.0871455 C4.63179916,16.0700091 4.55467782,16.1161 4.53539749,16.1923273 C4.5131046,16.2845091 4.49081172,16.3755091 4.46972385,16.4682818 C4.45164854,16.5439182 4.50045188,16.6177818 4.57817573,16.6366909 C4.5878159,16.6390545 4.59866109,16.6402364 4.60890377,16.6402364 C4.67457741,16.6402364 4.73422594,16.5935545 4.7492887,16.5291455 C4.77037657,16.4393273 4.79266946,16.3489182 4.81435983,16.2579182 C4.83243515,16.1852364 4.78604184,16.1078273 4.70831799,16.0871455" id="Fill-57" fill="#FEFEFE" mask="url(#mask-2)"></path>
                    <path d="M5.12429121,15.1869545 C5.14959665,15.1142727 5.10802343,15.0345 5.03391464,15.0079091 C4.95860084,14.9848636 4.87726192,15.0256364 4.85195649,15.0995 C4.82303598,15.1893182 4.79411548,15.2815 4.76459247,15.3713182 C4.74229958,15.4451818 4.78507782,15.5249545 4.86039163,15.5468182 C4.87485188,15.5503636 4.88810711,15.5539091 4.90196485,15.5539091 C4.96342092,15.5539091 5.02065941,15.5137273 5.03873473,15.4534545 C5.0658477,15.3636364 5.09537071,15.2755909 5.12429121,15.1869545" id="Fill-58" fill="#FEFEFE" mask="url(#mask-2)"></path>
                    <path d="M6.19868787,12.4436 C6.22098075,12.4542364 6.24628619,12.4595545 6.27098912,12.4595545 C6.31918996,12.4595545 6.36739079,12.4353273 6.39390126,12.3904182 C6.44149958,12.3094636 6.48970042,12.2291 6.53970879,12.1505091 C6.57947448,12.0825545 6.5577841,11.9968727 6.48970042,11.9566909 C6.42161674,11.9171 6.33425272,11.9383727 6.29388452,12.0051455 C6.24447866,12.0861 6.19447029,12.1676455 6.14566695,12.2497818 C6.10710628,12.3177364 6.13060418,12.4034182 6.19868787,12.4436" id="Fill-59" fill="#FEFEFE" mask="url(#mask-2)"></path>
                    <path d="M15.0010042,5.59159545 C15.0142594,5.59159545 15.0293222,5.59041364 15.0437824,5.58568636 C15.132954,5.55791364 15.2251381,5.53132273 15.3155146,5.50591364 C15.391431,5.48405 15.4354142,5.40605 15.4125188,5.33218636 C15.3902259,5.25832273 15.3112971,5.21282273 15.2353808,5.23586818 C15.1419916,5.26245909 15.05041,5.29023182 14.9588285,5.31800455 C14.8835146,5.34105 14.8407364,5.41964091 14.8636318,5.49350455 C14.8835146,5.55495909 14.9401506,5.59159545 15.0010042,5.59159545" id="Fill-60" fill="#FEFEFE" mask="url(#mask-2)"></path>
                    <path d="M16.0741958,5.02142727 C15.997677,5.03856364 15.9494762,5.11360909 15.966949,5.18983636 C15.9832167,5.25483636 16.0416603,5.29856364 16.1073339,5.29856364 C16.1163715,5.29856364 16.1284218,5.29738182 16.1398695,5.29501818 C16.1778276,5.28556364 16.2157858,5.27906364 16.2537439,5.27079091 C16.3055598,5.16442727 16.3567732,5.06160909 16.4079866,4.95938182 C16.3911163,4.95701818 16.374246,4.95701818 16.3567732,4.96115455 C16.2621791,4.97888182 16.1675849,5.00074545 16.0741958,5.02142727" id="Fill-61" fill="#FEFEFE" mask="url(#mask-2)"></path>
                    <path d="M11.8654795,6.94536818 C11.8895799,6.94536818 11.9142828,6.94064091 11.9359732,6.92705 C12.0197222,6.88095909 12.1010611,6.83486818 12.183605,6.78936818 C12.2534962,6.75155 12.2769941,6.66468636 12.239036,6.59791364 C12.1998728,6.52995909 12.1119063,6.50691364 12.0438226,6.54473182 C11.9600736,6.58964091 11.8757222,6.63632273 11.7931782,6.68359545 C11.7250946,6.72377727 11.7021992,6.81005 11.7413623,6.87741364 C11.7672703,6.92114091 11.8160736,6.94536818 11.8654795,6.94536818" id="Fill-62" fill="#FEFEFE" mask="url(#mask-2)"></path>
                    <path d="M9.97968201,8.21718182 C10.0110126,8.21718182 10.0423431,8.20536364 10.068251,8.18586364 C10.1429623,8.12854545 10.2176736,8.07063636 10.2929874,8.01154545 C10.3544435,7.96545455 10.3652887,7.87681818 10.3164854,7.81536364 C10.268887,7.75568182 10.1767029,7.7415 10.1170544,7.79113636 C10.0411381,7.84904545 9.96461925,7.90813636 9.88990795,7.96545455 C9.82724686,8.01509091 9.81700418,8.10313636 9.86821757,8.164 C9.89472803,8.19886364 9.93810879,8.21718182 9.97968201,8.21718182" id="Fill-63" fill="#FEFEFE" mask="url(#mask-2)"></path>
                    <path d="M10.8975464,7.5478 C10.9258644,7.5478 10.9553874,7.53952727 10.9794879,7.52120909 C11.0578142,7.47039091 11.1361406,7.41839091 11.2138644,7.36757273 C11.2807431,7.32502727 11.2982159,7.23875455 11.2554377,7.17257273 C11.2114544,7.10934545 11.1228854,7.08984545 11.0572117,7.13239091 C10.9770778,7.18439091 10.8957389,7.23757273 10.8174126,7.29016364 C10.7523414,7.33448182 10.7342661,7.42193636 10.7800569,7.48634545 C10.8083749,7.52593636 10.8529607,7.5478 10.8975464,7.5478" id="Fill-64" fill="#FEFEFE" mask="url(#mask-2)"></path>
                    <path d="M13.9201004,5.96664545 C13.9381757,5.96664545 13.9574561,5.9631 13.9731213,5.95719091 C14.0616904,5.92291818 14.1490544,5.88923636 14.2382259,5.85673636 C14.3117322,5.82955455 14.3496904,5.7486 14.3225774,5.6771 C14.2948619,5.60323636 14.2129205,5.56600909 14.1376067,5.59378182 C14.0478326,5.62628182 13.9574561,5.65937273 13.867682,5.69541818 C13.7947782,5.72319091 13.7580251,5.80532727 13.7875481,5.87800909 C13.8092385,5.93296364 13.8634644,5.96664545 13.9201004,5.96664545" id="Fill-65" fill="#FEFEFE" mask="url(#mask-2)"></path>
                    <path d="M12.8739615,6.41792273 C12.8956519,6.41792273 12.9167397,6.41319545 12.9372251,6.40433182 C13.0215766,6.36355909 13.1089406,6.32455909 13.192087,6.28496818 C13.2655933,6.25305909 13.2963213,6.16974091 13.2631833,6.09942273 C13.2294427,6.02910455 13.1438862,5.99778636 13.07279,6.03028636 C12.986631,6.07046818 12.8986644,6.11065 12.8119029,6.15142273 C12.7402042,6.18451364 12.7106812,6.27019545 12.7462293,6.33933182 C12.7703297,6.38896818 12.8215431,6.41792273 12.8739615,6.41792273" id="Fill-66" fill="#FEFEFE" mask="url(#mask-2)"></path>
                    <path d="M3.6145205,19.8091636 C3.6145205,12.1480273 9.25823598,5.75675455 16.6817674,4.4213 C16.8552904,4.0898 17.0233908,3.77720909 17.1848636,3.48648182 C9.03892218,4.62575455 2.75473808,11.5098455 2.75473808,19.8091636 C2.75473808,20.6122091 2.81559163,21.4016636 2.9288636,22.1739818 C3.2054159,22.2064818 3.50185105,22.2443 3.81636151,22.2903909 C3.68441172,21.4814364 3.6145205,20.6529818 3.6145205,19.8091636" id="Fill-67" fill="#FEFEFE" mask="url(#mask-2)"></path>
                    <path d="M35.5193172,19.8091636 C35.5193172,20.6529818 35.4500285,21.4814364 35.3180787,22.2903909 C35.6319866,22.2443 35.9290243,22.2064818 36.2055766,22.1739818 C36.319451,21.4016636 36.3797021,20.6122091 36.3797021,19.8091636 C36.3797021,11.3254818 29.8117356,4.3173 21.4006895,3.41970909 C21.5591498,3.70216364 21.7242377,4.00707273 21.8947481,4.33148182 C29.5918192,5.43943636 35.5193172,11.9577545 35.5193172,19.8091636" id="Fill-68" fill="#FEFEFE" mask="url(#mask-2)"></path>
                    <path d="M17.6328904,38.2450545 C17.3924887,38.0636455 17.1930577,37.8538727 17.0321874,37.6181 C14.1377272,37.0679636 10.3726393,35.2905091 7.08052218,32.8494636 C2.77437992,29.6573727 1.63503264,24.9726455 1.35245523,23.2359636 C3.29012887,23.3825091 8.77417908,24.0065091 13.1381623,26.4995545 C13.0755013,26.0173727 13.0182628,25.5281 12.9688569,25.0293727 C11.9506142,24.5064182 10.8962209,24.0726909 9.8526728,23.7134182 C9.50381925,23.5934636 9.15677322,23.4829636 8.81153473,23.3777818 C7.93668954,23.1148273 7.08052218,22.9009182 6.27255565,22.7277818 C5.92671464,22.6527364 5.59051381,22.5871455 5.26515816,22.5268727 C4.75181925,22.4323273 4.26619582,22.3549182 3.8161205,22.2905091 C3.50221255,22.2444182 3.20577741,22.2060091 2.9292251,22.1741 C1.6332251,22.0216455 0.780070293,21.9938727 0.6710159,21.9903273 L-0.000180753138,21.9708273 L0.0407899582,22.6273273 C0.057660251,22.9068273 0.528823431,29.5013727 6.34124184,33.8096909 C10.5943632,36.9627818 15.4650577,38.9996455 18.7487397,38.9996455 L18.7493423,38.9996455 C19.0361372,38.9996455 19.3090745,38.9836909 19.5675515,38.9535545 C18.7812753,38.8590091 18.1329741,38.6226455 17.6328904,38.2450545" id="Fill-69" fill="#FEFEFE" mask="url(#mask-2)"></path>
                    <path d="M16.1948184,36.5000409 C16.1634879,36.45395 16.1327598,36.4066773 16.1032368,36.3605864 C15.2440569,36.4663591 14.6204586,36.5656318 14.613831,36.6016773 C14.6059983,36.6383136 15.277195,36.5945864 16.1948184,36.5000409" id="Fill-70" fill="#FEFEFE" mask="url(#mask-2)"></path>
                    <path d="M13.32,31.4865318 C12.9783766,31.2288955 12.629523,30.9683045 12.2752469,30.70535 C12.3746611,30.3206682 12.5072134,29.7055318 12.6385607,29.0129864 C12.8578745,27.8548045 12.9880167,26.9217591 12.9289707,26.9264864 C12.8693222,26.9347591 12.6427782,27.8790318 12.4240669,29.0372136 C12.3035649,29.6724409 12.2101757,30.2379409 12.1601674,30.62085 C12.110159,30.5842136 12.0601506,30.5458045 12.0107448,30.51035 C11.6938243,30.2733955 11.3793138,30.0429409 11.0696234,29.8142591 C11.1660251,29.4390318 11.2955649,28.8445773 11.4226946,28.1744864 C11.6353808,27.0452591 11.7613054,26.13585 11.7016569,26.1441227 C11.6426109,26.1500318 11.420887,27.0694864 11.2069958,28.1987136 C11.0913138,28.8103045 11.0021423,29.3568955 10.9521339,29.7297591 C10.5406192,29.4254409 10.1345272,29.1288045 9.73807531,28.8392591 C9.82302929,28.5124864 9.9332887,28.0161227 10.037523,27.46185 C10.2224937,26.4844864 10.324318,25.6997591 10.266477,25.7056682 C10.2062259,25.7127591 10.0073975,26.5098955 9.82242678,27.4854864 C9.72843515,27.9836227 9.65613389,28.4315318 9.61576569,28.7500318 C9.22594142,28.4675773 8.84575732,28.1928045 8.47641841,27.9274864 C8.55715481,27.6261227 8.65656904,27.17585 8.75116318,26.6747591 C8.92046862,25.7795318 9.01084519,25.0580318 8.95059414,25.0663045 C8.89154812,25.0728045 8.70657741,25.8037591 8.53606695,26.6989864 C8.45231799,27.14335 8.38724686,27.54635 8.35169874,27.8370773 C7.93837657,27.5404409 7.54071967,27.2556227 7.15752301,26.9832136 C7.22741423,26.7291227 7.31176569,26.3586227 7.39069456,25.9455773 C7.53409205,25.1850773 7.60398326,24.5734864 7.54373222,24.5799864 C7.48468619,24.5870773 7.31959833,25.2093045 7.17559833,25.9686227 C7.10811715,26.3267136 7.05630126,26.64935 7.02858577,26.8933955 C6.59176569,26.5813955 6.177841,26.29185 5.78801674,26.0218045 C5.84525523,25.8291682 5.90791632,25.5603045 5.9645523,25.26485 C6.07420921,24.6851682 6.11457741,24.2213045 6.05492887,24.2283955 C5.99588285,24.2354864 5.85851046,24.7093955 5.74945607,25.2867136 C5.70366527,25.5301682 5.66992469,25.7505773 5.65064435,25.9248955 C5.1867113,25.6016682 4.76194142,25.3121227 4.38175732,25.05685 C4.42031799,24.9380773 4.45948117,24.7868045 4.49141423,24.6183955 C4.56010042,24.2549864 4.56793305,23.9683955 4.50888703,23.9743045 C4.44923849,23.9813955 4.34500418,24.2803955 4.27571548,24.6414409 C4.2540251,24.7566682 4.24016736,24.8630318 4.2305272,24.9563955 C3.10925523,24.2065318 2.41516318,23.7923045 2.34406695,23.8448955 C2.2723682,23.8992591 2.82908787,24.4115773 3.83588285,25.2394409 C3.71658577,25.2459409 3.58222594,25.2577591 3.43641841,25.2748955 C2.95260251,25.3280773 2.55374059,25.4090318 2.54410042,25.4539409 C2.53626778,25.4976682 2.92127197,25.4911682 3.40629289,25.4368045 C3.62259414,25.4113955 3.82021757,25.3812591 3.97506276,25.3523045 C4.31969874,25.6341682 4.71133054,25.9491227 5.14513808,26.2930318 C4.91317155,26.3078045 4.62637657,26.3343955 4.31367364,26.3692591 C3.54065272,26.4578955 2.90741423,26.5642591 2.89837657,26.6079864 C2.88994142,26.6517136 3.50992469,26.6174409 4.2823431,26.5317591 C4.66915481,26.4880318 5.02102092,26.4395773 5.27648536,26.3970318 C5.64100418,26.6842136 6.03263598,26.9903045 6.44957322,27.3141227 C6.12662762,27.33835 5.70306276,27.3779409 5.23611715,27.4311227 C4.21968201,27.5439864 3.3900251,27.6722136 3.38098745,27.7171227 C3.37134728,27.7620318 4.18895397,27.7058955 5.20538912,27.5912591 C5.74764854,27.5315773 6.2350795,27.4653955 6.57549791,27.4116227 C6.94061925,27.6952591 7.32502092,27.9895318 7.72388285,28.2956227 C7.33707113,28.3239864 6.80806695,28.3748045 6.22423431,28.4421682 C5.02764854,28.5745318 4.05158159,28.7210773 4.04254393,28.7653955 C4.03350628,28.8103045 4.99752301,28.7364409 6.19350628,28.6034864 C6.85385774,28.5284409 7.44612552,28.4510318 7.84739749,28.3889864 C8.20589121,28.6625773 8.57643515,28.94385 8.95722176,29.2328045 C8.53245188,29.2658955 7.9401841,29.3238045 7.28646025,29.3964864 C5.9820251,29.5430318 4.91799163,29.69785 4.90895397,29.7427591 C4.90051883,29.7864864 5.95189958,29.7031682 7.25633473,29.5566227 C7.98717992,29.4762591 8.64210879,29.3905773 9.07892887,29.3261682 C9.46815063,29.6180773 9.86821757,29.9194409 10.2773222,30.2249409 C9.78025105,30.2645318 9.05964854,30.33485 8.25168201,30.4246682 C6.74359833,30.5942591 5.51568201,30.7685773 5.50664435,30.8123045 C5.49820921,30.8566227 6.71287029,30.7561682 8.22095397,30.5865773 C9.10483682,30.4873045 9.89171548,30.38685 10.3942092,30.3118045 C10.7038996,30.5434409 11.0202176,30.7780318 11.3395481,31.0155773 C11.3865439,31.0504409 11.4335397,31.0835318 11.4799331,31.1195773 C10.9702092,31.1597591 10.2218912,31.2336227 9.38500418,31.3269864 C7.83594979,31.5013045 6.5748954,31.6779864 6.56525523,31.7228955 C6.5580251,31.7672136 7.80582427,31.6620318 9.35367364,31.4888955 C10.268887,31.3860773 11.0810711,31.2820773 11.5968201,31.2046682 C11.9516987,31.4682136 12.3017573,31.7264409 12.6463933,31.9781682 C12.1414895,32.0195318 11.4040167,32.0910318 10.5773724,32.1838045 C9.04699582,32.3557591 7.79979916,32.5324409 7.79136402,32.5749864 C7.78292887,32.6210773 9.01566527,32.5170773 10.5460418,32.3463045 C11.4510126,32.2446682 12.2535565,32.14185 12.7632803,32.0656227 C13.1277992,32.3327136 13.4856904,32.5933045 13.8363515,32.8485773 C13.3326527,32.8887591 12.5873473,32.9614409 11.7516653,33.0548045 C10.2212887,33.2267591 8.97469456,33.4010773 8.96625941,33.4459864 C8.95782427,33.4914864 10.1911632,33.3874864 11.7215397,33.2155318 C12.6349456,33.1138955 13.4453222,33.0098955 13.9544435,32.9336682 C14.2207531,33.1274864 14.4810377,33.3159864 14.7383096,33.50035 C14.6545607,33.2687136 14.5714142,33.0293955 14.4906778,32.7823955 C14.4334393,32.6051227 14.3774059,32.42135 14.3219749,32.2375773 C14.0315649,32.0195318 13.7363347,31.7967591 13.434477,31.5710318 C13.524251,31.2235773 13.6417406,30.6876227 13.7598326,30.0772136 C13.722477,29.9064409 13.6857238,29.7333045 13.6495732,29.5601682 C13.6266778,29.6777591 13.6031799,29.7994864 13.579682,29.9229864 C13.4609874,30.5481682 13.3688033,31.1077591 13.32,31.4865318" id="Fill-71" fill="#FEFEFE" mask="url(#mask-2)"></path>
                    <path d="M12.9263197,33.9263364 C11.3965456,34.0971091 10.1499515,34.2726091 10.1402742,34.3175182 C10.1324787,34.3612455 11.3658176,34.2584273 12.8961941,34.0864727 C13.6662025,34.0002 14.3614996,33.9127455 14.8664033,33.8418364 C14.8519431,33.8063818 14.8386879,33.7703364 14.8248301,33.7348818 C14.3313741,33.7762455 13.664395,33.8418364 12.9263197,33.9263364" id="Fill-72" fill="#FEFEFE" mask="url(#mask-2)"></path>
                    <path d="M14.0919364,34.8034818 C12.5525222,34.9766182 11.2980954,35.1521182 11.2896603,35.1970273 C11.2806226,35.2419364 12.5223967,35.1367545 14.0618109,34.9636182 C14.4956184,34.9151636 14.9071331,34.8667091 15.2740619,34.8206182 C15.2535766,34.7757091 15.2330912,34.7308 15.2126059,34.6847091 C14.8697774,34.7178 14.4914008,34.7585727 14.0919364,34.8034818" id="Fill-73" fill="#FEFEFE" mask="url(#mask-2)"></path>
                    <path d="M13.131113,35.8375727 C13.1220753,35.8813 14.1728536,35.7985727 15.4784937,35.6532091 C15.5447699,35.6449364 15.6092385,35.6378455 15.6743096,35.6295727 C15.6477992,35.5811182 15.6212887,35.5314818 15.5953808,35.4806636 C15.5664603,35.4842091 15.5381423,35.4877545 15.5086192,35.4913 C14.2041841,35.6378455 13.1401506,35.7926636 13.131113,35.8375727" id="Fill-74" fill="#FEFEFE" mask="url(#mask-2)"></path>
                    <path d="M38.463605,21.9904455 C38.3539481,21.9939909 37.5007933,22.0217636 36.2053958,22.1742182 C35.9288435,22.2061273 35.6324084,22.2445364 35.3178979,22.2906273 C35.1570276,22.3136727 34.9901322,22.3390818 34.8196218,22.3644909 C34.7358728,22.3780818 34.6521238,22.3922636 34.5659649,22.4046727 C34.3400234,22.4430818 34.1080569,22.4832636 33.8700653,22.5269909 C33.5441071,22.5872636 33.2073038,22.6528545 32.8620653,22.7279 C32.0534962,22.9010364 31.1979314,23.1143545 30.3230862,23.3779 C29.9784502,23.4824909 29.6314042,23.5935818 29.2825506,23.7135364 C28.0829523,24.1265818 26.8682912,24.6377182 25.7108686,25.2705818 C25.6819481,25.2865364 25.6524251,25.3019 25.6229021,25.3178545 C25.5704837,25.8301727 25.5096301,26.3348091 25.4415464,26.8305818 C29.8796385,24.0645364 35.7595381,23.3903091 37.7821657,23.2354909 C37.4983833,24.9739455 36.3596385,29.6586727 32.0534962,32.8495818 C28.4775967,35.5004 24.3425674,37.3712182 21.3721908,37.7316727 C20.7275046,38.2959909 20.0376301,38.5843545 19.3122075,38.5843545 C18.447605,38.5843545 17.6354209,38.1760364 16.8889105,37.3806727 C16.9328937,37.4616273 16.9804921,37.5408091 17.0323079,37.6182182 C17.1925757,37.8539909 17.3920067,38.0637636 17.6330109,38.2451727 C18.1330946,38.6221727 18.7813958,38.8591273 19.567672,38.9536727 C19.8249439,38.9838091 20.0984837,38.9997636 20.3858812,38.9997636 C23.6689607,38.9997636 28.5390527,36.9629 32.7927766,33.8098091 C38.605195,29.5014909 39.0769607,22.9069455 39.093831,22.6274455 L39.1341992,21.9709455 L38.463605,21.9904455 Z" id="Fill-75" fill="#FEFEFE" mask="url(#mask-2)"></path>
                    <path d="M26.2386678,34.0867682 C27.7690444,34.2587227 29.0017808,34.3615409 28.9939481,34.3178136 C28.985513,34.2723136 27.7377138,34.0974045 26.2079397,33.9266318 C25.3584,33.8291318 24.6010444,33.75645 24.0961406,33.71745 C24.4474042,33.4621773 24.8101155,33.2027682 25.1806594,32.9339045 C25.6891782,33.0101318 26.4995548,33.1141318 27.4123582,33.2151773 C28.9427347,33.3871318 30.1766762,33.4911318 30.1676385,33.4462227 C30.1598059,33.4013136 28.9126092,33.2269955 27.3822326,33.0550409 C26.5477556,32.9616773 25.8024502,32.8889955 25.2975464,32.8482227 C25.64881,32.5935409 26.0067013,32.3323591 26.3706176,32.0658591 C26.8797389,32.1420864 27.6834879,32.2449045 28.5878561,32.3465409 C30.1176301,32.5173136 31.350969,32.6213136 31.3419314,32.5746318 C31.3340987,32.5320864 30.0875046,32.3554045 28.557128,32.18345 C27.7310862,32.0912682 26.9924084,32.0197682 26.4881071,31.9784045 C26.8327431,31.7266773 27.1828017,31.4678591 27.5376803,31.2049045 C28.0534293,31.2823136 28.8650109,31.3863136 29.7802243,31.4891318 C31.3286762,31.6616773 32.5764753,31.7668591 32.5692452,31.7231318 C32.559605,31.6782227 31.2979481,31.5015409 29.7494962,31.3272227 C28.9120067,31.2338591 28.1642912,31.1599955 27.6545674,31.1198136 C27.7009607,31.0837682 27.7479565,31.0500864 27.7955548,31.0158136 C28.1142828,30.7776773 28.4306008,30.5436773 28.7402912,30.31145 C29.2427849,30.3864955 30.0296636,30.48695 30.9135464,30.5862227 C32.4210276,30.7558136 33.6362912,30.8562682 33.6272536,30.8125409 C33.6194209,30.7688136 32.3909021,30.5944955 30.8828184,30.4249045 C30.0754544,30.3344955 29.3548519,30.2641773 28.8577808,30.2251773 C29.2656803,29.9190864 29.6657473,29.6183136 30.0555715,29.3258136 C30.4923916,29.3908136 31.146718,29.4759045 31.8781657,29.5568591 C33.1819983,29.7034045 34.2339816,29.7867227 34.2255464,29.7424045 C34.2165088,29.6974955 33.1524753,29.5432682 31.8480402,29.3967227 C31.1943163,29.32345 30.602651,29.2661318 30.1766762,29.23245 C30.5586678,28.9440864 30.9286092,28.6622227 31.2871029,28.3886318 C31.6877724,28.4512682 32.2806427,28.5286773 32.9409941,28.6037227 C34.1369774,28.7360864 35.1003916,28.80995 35.0919565,28.7650409 C35.0829188,28.7213136 34.1074544,28.5747682 32.9102661,28.4418136 C32.325831,28.3750409 31.7974293,28.3242227 31.4100151,28.2952682 C31.810082,27.9897682 32.1932787,27.6954955 32.5590025,27.4112682 C32.8988184,27.4656318 33.3868519,27.5312227 33.9285088,27.5914955 C34.9449439,27.7055409 35.7631531,27.7622682 35.7541155,27.7173591 C35.7444753,27.67245 34.9142159,27.5442227 33.8977808,27.4307682 C33.4314377,27.3775864 33.0066678,27.3385864 32.6843247,27.3143591 C33.1012619,26.98995 33.4934962,26.68445 33.8580151,26.3966773 C34.112877,26.4398136 34.4653456,26.4882682 34.8521573,26.5319955 C35.6239732,26.6170864 36.2439565,26.65195 36.2361238,26.6082227 C36.2264837,26.5644955 35.5932452,26.4581318 34.8214293,26.3689045 C34.5081238,26.3346318 34.2213289,26.3080409 33.9893623,26.2932682 C34.4225674,25.9493591 34.8141992,25.6338136 35.1594377,25.3525409 C35.3142828,25.3814955 35.5119063,25.4110409 35.7282075,25.43645 C36.2126259,25.4908136 36.5982326,25.4979045 36.5897975,25.4541773 C36.5807598,25.4086773 36.1818979,25.3283136 35.698082,25.2751318 C35.5522745,25.2579955 35.4179146,25.2461773 35.2980151,25.2390864 C36.3054126,24.4118136 36.8621322,23.8994955 36.7904335,23.8451318 C36.7187347,23.79195 36.0252452,24.2061773 34.9039732,24.9566318 C34.8943331,24.8632682 34.8798728,24.7569045 34.8581824,24.6416773 C34.7882912,24.2800409 34.6852619,23.9810409 34.6256134,23.9745409 C34.5665674,23.9686318 34.5744,24.2546318 34.6430862,24.6186318 C34.6744167,24.7870409 34.7135799,24.9383136 34.7533456,25.0570864 C34.372559,25.3117682 33.9471866,25.6019045 33.4832536,25.9245409 C33.4645757,25.7508136 33.4308351,25.5304045 33.3844418,25.2863591 C33.27599,24.7096318 33.1386176,24.2351318 33.0795715,24.2280409 C33.019923,24.2215409 33.0602912,24.6854045 33.1699481,25.2644955 C33.2259816,25.55995 33.2892452,25.8288136 33.3458812,26.0220409 C32.9566594,26.2920864 32.5433372,26.5816318 32.1065172,26.8930409 C32.0769941,26.6495864 32.0263833,26.3263591 31.9595046,25.9688591 C31.8149021,25.2095409 31.6492117,24.5873136 31.5901657,24.5802227 C31.5305172,24.5731318 31.5998059,25.1853136 31.7438059,25.9458136 C31.8227347,26.3588591 31.9064837,26.7293591 31.9769774,26.98345 C31.5937808,27.2552682 31.1961238,27.5406773 30.7828017,27.8373136 C30.7460485,27.5465864 30.6815799,27.1435864 30.597831,26.6992227 C30.4273205,25.8034045 30.2429523,25.0730409 30.1839063,25.06595 C30.1236552,25.0582682 30.2134293,25.7791773 30.3821322,26.6749955 C30.4779314,27.1760864 30.5779481,27.6257682 30.658082,27.9271318 C30.2887431,28.19245 29.908559,28.4672227 29.5187347,28.7502682 C29.478969,28.4317682 29.4066678,27.9838591 29.3126762,27.4851318 C29.1271029,26.5101318 28.9282745,25.7124045 28.8686259,25.7053136 C28.8095799,25.6999955 28.9120067,26.4847227 29.0963749,27.4620864 C29.2012117,28.0163591 29.3114711,28.5121318 29.3964251,28.8389045 C28.9999732,29.12845 28.5938812,29.4250864 28.1823665,29.7299955 C28.1329607,29.3571318 28.0431866,28.80995 27.9269021,28.1983591 C27.7130109,27.0697227 27.4918895,26.1496773 27.432241,26.1443591 C27.3737975,26.1360864 27.4991197,27.0454955 27.7118059,28.1741318 C27.8395381,28.8448136 27.9684753,29.4392682 28.064877,29.8144955 C27.7551866,30.0425864 27.4406762,30.2736318 27.1243582,30.5099955 C27.0743498,30.5460409 27.0243414,30.5838591 26.9743331,30.6210864 C26.9243247,30.2375864 26.8309356,29.6720864 26.7104335,29.03745 C26.4911197,27.8786773 26.2651782,26.9344045 26.2055297,26.9267227 C26.1470862,26.9219955 26.2760234,27.85445 26.4965423,29.0132227 C26.627287,29.7057682 26.7598393,30.3209045 26.8592536,30.7049955 C26.5043749,30.9685409 26.1567264,31.2291318 25.8145004,31.4867682 C25.7656971,31.1079955 25.673513,30.5484045 25.5554209,29.9226318 C25.4325088,29.2761773 25.3077891,28.6970864 25.2113874,28.3147682 C25.1878895,28.4536318 25.1619816,28.5895409 25.1366762,28.7272227 C25.1878895,29.0581318 25.2577808,29.4623136 25.3403247,29.8972227 C25.4698644,30.5826773 25.6012117,31.1901318 25.6994209,31.5706773 C25.3391197,31.8419045 24.9860485,32.1072227 24.6414126,32.3672227 C24.6124921,32.1409045 24.5673038,31.8466318 24.5100653,31.5109955 C24.4733121,31.6445409 24.436559,31.7751318 24.3979983,31.9069045 C24.4449941,32.1190409 24.4895799,32.3045864 24.5281406,32.4534955 C24.3979983,32.5515864 24.2708686,32.6484955 24.1437389,32.7448136 C24.1401238,32.7572227 24.1365088,32.7696318 24.1322912,32.7826318 C23.9919063,33.2128136 23.8454962,33.6205409 23.6942661,34.0046318 C23.7894628,33.9366773 23.8828519,33.8699045 23.9792536,33.8007682 C24.4865674,33.8769955 25.3089941,33.9827682 26.2386678,34.0867682" id="Fill-76" fill="#FEFEFE" mask="url(#mask-2)"></path>
                    <path d="M24.5211515,36.6016182 C24.5127163,36.5602545 23.6529339,36.4296636 22.5581724,36.3026182 C22.5262393,36.3522545 22.4943063,36.4007091 22.4623732,36.4491636 C23.6155782,36.5762091 24.5295866,36.6453455 24.5211515,36.6016182" id="Fill-77" fill="#FEFEFE" mask="url(#mask-2)"></path>
                    <path d="M26.0038695,35.8375727 C25.9942293,35.7926636 24.9301958,35.6378455 23.6257607,35.4913 C23.4287397,35.4694364 23.2377439,35.4487545 23.0551833,35.4304364 C23.0304803,35.4777091 23.0057774,35.5273455 22.980472,35.5734364 C23.1955682,35.6000273 23.4209071,35.6266182 23.6564887,35.6532091 C24.9615264,35.7985727 26.0123046,35.8813 26.0038695,35.8375727" id="Fill-78" fill="#FEFEFE" mask="url(#mask-2)"></path>
                    <path d="M25.0724485,34.9639136 C26.6124653,35.13705 27.8530343,35.2422318 27.8446419,35.1973227 C27.836164,35.1518227 26.5817372,34.9763227 25.042323,34.8037773 C24.43921,34.7352318 23.8855029,34.6790955 23.43121,34.6371409 C23.4137372,34.6779136 23.3962644,34.7180955 23.3781891,34.7570955 C23.8493523,34.8209136 24.4361975,34.8924136 25.0724485,34.9639136" id="Fill-79" fill="#FEFEFE" mask="url(#mask-2)"></path>
                    <path d="M22.1405121,37.0563227 C22.1387046,37.0456864 22.1043615,37.0332773 22.048328,37.0185045 C22.0326628,37.0368227 22.0176,37.0563227 22.0025372,37.0746409 C22.0923113,37.0746409 22.1429222,37.0687318 22.1405121,37.0563227" id="Fill-80" fill="#FEFEFE" mask="url(#mask-2)"></path>
                    <path d="M24.6894326,19.6014591 C24.6894326,29.9376409 21.9317423,37.1821864 19.4150561,37.3771864 C19.3813155,37.6300955 19.3475749,37.7648227 19.3120268,37.7648227 C19.2764787,37.7648227 19.2415331,37.6300955 19.208395,37.3771864 C17.9648134,37.2790955 16.6453155,35.4419591 15.6596084,32.4159136 C14.5467715,29.0016409 13.9334159,24.45105 13.9334159,19.6014591 C13.9334159,11.4912318 17.8925121,4.54686818 19.3120268,2.31855 C20.733349,4.54568636 24.6894326,11.4823682 24.6894326,19.6014591 M16.4079264,4.95932273 C16.356713,5.06214091 16.3054996,5.16436818 16.2536837,5.27073182 C16.1422192,5.49823182 16.0307548,5.73223182 15.9180854,5.97450455 C15.6547883,6.54236818 15.3896837,7.14982273 15.1318092,7.79391364 C15.0396251,8.01964091 14.949851,8.25068636 14.861282,8.48705 C14.7462025,8.78723182 14.6341356,9.09686818 14.5244787,9.41182273 C14.0912736,10.6533227 13.6990393,11.99705 13.3899515,13.4223227 C13.3242778,13.7284136 13.2616167,14.0362773 13.2037757,14.3488682 C12.9091481,15.9348682 12.7259849,17.6095045 12.7091146,19.3461864 C12.7085121,19.4318682 12.7073071,19.5157773 12.7073071,19.6014591 C12.7073071,19.8265955 12.7097172,20.0493682 12.7121272,20.2721409 C12.730805,21.9036409 12.816964,23.5002773 12.9687967,25.02955 C13.0182025,25.5276864 13.075441,26.0169591 13.1381021,26.4997318 C13.277282,27.5639591 13.448395,28.5862318 13.6496335,29.5606409 C13.6857841,29.7331864 13.7225372,29.9063227 13.7598929,30.0776864 C13.9285958,30.8322773 14.1159766,31.5549591 14.3220351,32.23805 C14.3774661,32.4212318 14.4334996,32.6050045 14.4907381,32.7828682 C14.5714745,33.0298682 14.6546209,33.2685955 14.7383699,33.5002318 C14.7672904,33.5800045 14.7962109,33.6574136 14.8251314,33.7348227 C14.8383866,33.7708682 14.8522444,33.8063227 14.8661021,33.8423682 C14.978169,34.1366409 15.093851,34.4167318 15.2125456,34.6844136 C15.233031,34.7310955 15.2535163,34.7760045 15.2740017,34.8209136 C15.3788385,35.0507773 15.4860854,35.2723682 15.5951397,35.4809591 C15.6210477,35.5317773 15.6475582,35.5814136 15.6740686,35.6298682 C15.813851,35.8904591 15.956646,36.1333227 16.1030561,36.3602318 C16.1331816,36.4063227 16.1639096,36.4541864 16.1946377,36.5002773 C16.418169,36.83355 16.6507381,37.1254591 16.8893322,37.3807318 C17.6352402,38.1760955 18.4480268,38.5844136 19.3120268,38.5844136 C20.0374494,38.5844136 20.7279264,38.29605 21.37201,37.7317318 C21.5877088,37.5432318 21.7973824,37.3240045 22.002236,37.0746409 C22.0172987,37.0563227 22.032964,37.0368227 22.0480268,37.0185045 C22.1890142,36.8430045 22.3269891,36.6533227 22.462554,36.4494591 C22.4938845,36.4010045 22.5264201,36.35255 22.5583531,36.3029136 C22.7023531,36.0765955 22.8433406,35.8331409 22.980713,35.5731409 C23.0060184,35.52705 23.0307213,35.4774136 23.0554243,35.4301409 C23.1650812,35.2156409 23.272328,34.9928682 23.3783699,34.7570955 C23.3964452,34.7180955 23.413918,34.6779136 23.4313908,34.6371409 C23.5205623,34.4344591 23.6085289,34.2229136 23.6946879,34.0048682 C23.845918,33.6207773 23.9917255,33.21305 24.1321105,32.7828682 C24.136328,32.7698682 24.1399431,32.7574591 24.1441607,32.7444591 C24.2321272,32.47205 24.3164787,32.1919591 24.3984201,31.90655 C24.4363782,31.7753682 24.4737339,31.6447773 24.5098845,31.5106409 C24.7484787,30.6360955 24.9563448,29.7036409 25.1364954,28.7268682 C25.1618008,28.5897773 25.1877088,28.4532773 25.2112067,28.3150045 C25.2955582,27.8304591 25.372077,27.3352773 25.4413657,26.8306409 C25.5094494,26.3348682 25.5703029,25.8302318 25.6233238,25.3179136 C25.6251314,25.3013682 25.6275414,25.2865955 25.6287464,25.2706409 C25.7956418,23.6675045 25.891441,21.9905045 25.9107213,20.2721409 C25.9137339,20.0493682 25.9161439,19.8265955 25.9161439,19.6014591 C25.9161439,19.5157773 25.9149389,19.4318682 25.9143364,19.3461864 C25.8974661,17.6095045 25.7137004,15.9348682 25.4196753,14.3488682 C25.3618343,14.0362773 25.2997757,13.7284136 25.2334996,13.4223227 C24.9250142,11.99705 24.5321774,10.6533227 24.0995749,9.41182273 C23.9893155,9.09686818 23.8772485,8.78723182 23.7627715,8.48705 C23.6217841,8.11477727 23.4777841,7.75195909 23.3325791,7.40214091 C23.1042276,6.85436818 22.8728636,6.33259545 22.6433071,5.84332273 C22.5023197,5.54195909 22.3619347,5.25241364 22.2233573,4.97409545 C22.2046795,4.93745909 22.1866042,4.90141364 22.1679264,4.86477727 C22.0763448,4.68100455 21.9847632,4.50432273 21.8943866,4.33118636 C21.7244787,4.00677727 21.5593908,3.70245909 21.4009305,3.41941364 C20.5471732,1.89368636 19.8910393,0.97955 19.8109054,0.870231818 L19.3120268,0.184777273 L18.8125456,0.870231818 C18.7312067,0.981913636 18.0576,1.92027727 17.1851649,3.48677727 C17.0230895,3.77750455 16.8549891,4.09009545 16.6820686,4.42159545 C16.5922946,4.59532273 16.5001105,4.77436818 16.4079264,4.95932273" id="Fill-81" fill="#FEFEFE" mask="url(#mask-2)"></path>
                    <path d="M19.5598393,35.3724682 C19.7899983,35.1969682 20.1346343,34.8967864 20.5093958,34.5451955 C21.1420318,33.9495591 21.6150025,33.43015 21.5668017,33.3840591 C21.5179983,33.33915 20.9660987,33.7841045 20.3328603,34.3797409 C20.02799,34.6675136 19.7610778,34.9363773 19.5706845,35.1437864 C19.5887598,34.7331045 19.6068351,34.2792864 19.6225004,33.78765 C19.9641238,33.5111045 20.5220485,33.0159227 21.1372117,32.4362409 C22.1162912,31.5144227 22.8718393,30.7308773 22.823036,30.6841955 C22.7742326,30.6381045 21.9409607,31.3477864 20.9606762,32.2701955 C20.4135967,32.7860591 19.9352033,33.2593773 19.6297305,33.5849682 C19.6478059,33.02715 19.6646762,32.4238318 19.6809439,31.7797409 C20.0526929,31.4712864 20.6443582,30.9430136 21.298082,30.3266955 C22.3657305,29.3215591 23.1923749,28.4694682 23.142969,28.4245591 C23.0947682,28.3784682 22.1897975,29.1561045 21.122149,30.1618318 C20.5340987,30.7143318 20.0213623,31.22015 19.685764,31.5717409 C19.6972117,31.0582409 19.7080569,30.5193318 19.7189021,29.9585591 C20.1515046,29.59515 20.8594544,28.95815 21.6457305,28.2183318 C22.9049774,27.0317864 23.887672,26.03315 23.8388686,25.9870591 C23.7900653,25.94215 22.7296469,26.8663318 21.4685925,28.0528773 C20.7485925,28.73065 20.1207766,29.3469682 19.7225172,29.7588318 C19.7333623,29.1354227 19.7430025,28.4848318 19.7514377,27.8094227 C20.1852452,27.44365 20.8715046,26.8249682 21.6312703,26.1081955 C22.8844921,24.9299227 23.860559,23.9371955 23.8117556,23.8922864 C23.7635548,23.8450136 22.708559,24.7650591 21.4553372,25.9433318 C20.7600402,26.5974682 20.1509021,27.1942864 19.7544502,27.6043773 C19.7616803,26.98215 19.7689105,26.3404227 19.7737305,25.6815591 C20.2087431,25.3134227 20.8835548,24.7036045 21.6312703,23.9998318 C22.8844921,22.8215591 23.860559,21.8288318 23.8117556,21.7827409 C23.7635548,21.7378318 22.708559,22.6555136 21.4553372,23.8337864 C20.7726929,24.4778773 20.173195,25.0652409 19.7755381,25.4723773 C19.7803582,24.85015 19.7839732,24.2119682 19.7869858,23.5613773 C20.2226008,23.1920591 20.89199,22.58815 21.6312703,21.8914682 C22.8844921,20.7114227 23.860559,19.7204682 23.8117556,19.6743773 C23.7635548,19.6276955 22.708559,20.5465591 21.4553372,21.7248318 C20.778718,22.3618318 20.1852452,22.9426955 19.7881908,23.3510136 C19.7912033,22.7346955 19.7924084,22.1083318 19.7924084,21.4725136 C20.2328435,21.0984682 20.9094628,20.4880591 21.6589858,19.7825136 C22.9260653,18.5894682 23.9141824,17.5849227 23.8653791,17.5400136 C23.8159732,17.4939227 22.7501322,18.4240136 21.4824502,19.6164682 C20.7973958,20.2605591 20.1948854,20.8502864 19.7924084,21.2633318 C19.7924084,21.1788318 19.7936134,21.0949227 19.7936134,21.0104227 C19.7936134,20.4372409 19.7924084,19.8693773 19.7906008,19.3091955 C20.2195883,18.9457864 20.8757222,18.3548773 21.5987347,17.6729682 C22.8326762,16.51065 23.7936803,15.5332864 23.744877,15.4871955 C23.6960736,15.4411045 22.6573456,16.3457864 21.4221992,17.5069227 C20.7618477,18.1297409 20.1804251,18.6976045 19.7899983,19.0994227 C19.7875883,18.3619682 19.7833707,17.6392864 19.7779481,16.9343318 C20.1521071,16.6181955 20.6997891,16.1277409 21.298082,15.5646045 C22.3657305,14.5588773 23.1923749,13.7061955 23.142969,13.6612864 C23.0947682,13.6175591 22.1897975,14.3928318 21.122149,15.3979682 C20.5865172,15.9026045 20.1111364,16.3688318 19.7767431,16.7127409 C19.771923,16.0225591 19.7652954,15.3483318 19.7580653,14.6953773 C20.1014962,14.4070136 20.5967598,13.9644227 21.1372117,13.4544682 C22.1162912,12.5338318 22.8718393,11.7485136 22.823036,11.7036045 C22.7742326,11.6575136 21.9409607,12.3671955 20.9606762,13.2896045 C20.4828854,13.7410591 20.058718,14.15765 19.7544502,14.4726045 C19.7466176,13.7428318 19.7357724,13.0414227 19.7237222,12.3707409 C20.0177473,12.1272864 20.4262494,11.7638773 20.8702996,11.3461045 C21.7023665,10.5637409 22.33681,9.89069545 22.2880067,9.84578636 C22.2392033,9.80087727 21.5264335,10.3982864 20.6943665,11.1812409 C20.3117724,11.5399227 19.9719565,11.8755591 19.7195046,12.1391045 C19.7056469,11.3750591 19.6905841,10.6511955 19.6737138,9.97578636 C19.8972452,9.79496818 20.1930778,9.53496818 20.5093958,9.23655909 C21.1420318,8.64210455 21.6150025,8.12151364 21.5668017,8.07660455 C21.5179983,8.03110455 20.9660987,8.47546818 20.3328603,9.07110455 C20.0767933,9.31219545 19.8472368,9.54087727 19.6676887,9.73115 C19.6472033,8.92692273 19.6231029,8.19301364 19.5977975,7.54301364 C19.7357724,7.43842273 19.9044753,7.29483182 20.0816134,7.12760455 C20.4780653,6.75474091 20.7600402,6.41555909 20.7112368,6.37065 C20.663036,6.32455909 20.3021322,6.58987727 19.9056803,6.96274091 C19.7869858,7.07442273 19.6803414,7.18196818 19.5875548,7.28124091 C19.509831,5.37555909 19.4146343,4.25637727 19.3122075,4.25637727 C19.2091782,4.25637727 19.1139816,5.38265 19.0356552,7.29837727 C18.9398561,7.19437727 18.8277891,7.08033182 18.7012619,6.96274091 C18.3054126,6.58987727 17.9445088,6.32455909 17.8963079,6.37065 C17.8475046,6.41555909 18.130082,6.75474091 18.5253289,7.12760455 C18.7096971,7.30192273 18.8844251,7.44846818 19.02481,7.55601364 C18.9995046,8.20660455 18.9766092,8.94110455 18.9561238,9.74769545 C18.7735632,9.55505909 18.5385841,9.32046818 18.2746845,9.07110455 C17.641446,8.47546818 17.0895464,8.03110455 17.0407431,8.07660455 C16.9919397,8.12151364 17.465513,8.64210455 18.0975464,9.23655909 C18.4222996,9.54205909 18.7241573,9.80737727 18.9494962,9.98760455 C18.9326259,10.6641955 18.9175632,11.3898318 18.9031029,12.1562409 C18.649446,11.8909227 18.3042075,11.5493773 17.9131782,11.1812409 C17.0817138,10.3982864 16.3677389,9.80087727 16.3189356,9.84578636 C16.2701322,9.89069545 16.9057808,10.5637409 17.7372452,11.3461045 C18.189128,11.77215 18.6048603,12.1414682 18.8994879,12.3837409 C18.8874377,13.0550136 18.877195,13.7581955 18.8693623,14.4885591 C18.5638895,14.1724227 18.1330946,13.7475591 17.6468686,13.2896045 C16.6671866,12.3671955 15.8333121,11.6575136 15.7851113,11.7036045 C15.7363079,11.7485136 16.4912536,12.5338318 17.4703331,13.4544682 C18.0180151,13.9715136 18.5211113,14.4217864 18.8663498,14.7089682 C18.8579146,15.3636955 18.851287,16.0373318 18.8464669,16.7298773 C18.5114711,16.3836045 18.0306678,15.9102864 17.4859983,15.3979682 C16.4177473,14.3928318 15.5121741,13.6175591 15.4639732,13.6612864 C15.4157724,13.7061955 16.2412117,14.5588773 17.3106678,15.5646045 C17.9161908,16.1354227 18.4705004,16.6329682 18.8446594,16.9467409 C18.8404418,17.65465 18.8362243,18.3779227 18.8338142,19.1165591 C18.4427849,18.71415 17.8547347,18.1380136 17.1853456,17.5069227 C15.9514042,16.3457864 14.9108686,15.4411045 14.8626678,15.4871955 C14.8138644,15.5332864 15.7754711,16.51065 17.0094126,17.6729682 C17.7414628,18.36315 18.4042243,18.9599682 18.8332117,19.3245591 C18.8314042,19.8782409 18.8301992,20.4413773 18.8301992,21.0104227 L18.8301992,21.2792864 C18.4283247,20.8662409 17.8191866,20.2694227 17.1250946,19.6164682 C15.8574126,18.4240136 14.7915715,17.4939227 14.7427682,17.5400136 C14.6933623,17.5849227 15.6814795,18.5894682 16.9491615,19.7825136 C17.7071197,20.4957409 18.3915715,21.1132409 18.8301992,21.4861045 C18.8314042,22.1231045 18.8326092,22.7512409 18.8356218,23.3687409 C18.4385674,22.95865 17.8372619,22.3701045 17.1522075,21.7248318 C15.8989858,20.5465591 14.8445925,19.6276955 14.7963916,19.6743773 C14.7475883,19.7204682 15.7230527,20.7114227 16.975672,21.8914682 C17.7245925,22.5964227 18.4018142,23.2068318 18.8362243,23.5749682 C18.8392368,24.22615 18.8434544,24.8655136 18.847672,25.4895136 C18.4512201,25.0800136 17.8438895,24.4867409 17.1522075,23.8337864 C15.8989858,22.6555136 14.8445925,21.7378318 14.7963916,21.7827409 C14.7475883,21.8288318 15.7230527,22.8215591 16.975672,23.9998318 C17.7324251,24.7118773 18.415672,25.3281955 18.8494795,25.69515 C18.8549021,26.3540136 18.8621322,26.9981045 18.8693623,27.6203318 C18.4729105,27.2114227 17.8559397,26.6069227 17.1522075,25.9433318 C15.8989858,24.7650591 14.8445925,23.8450136 14.7963916,23.8922864 C14.7475883,23.9371955 15.7230527,24.9299227 16.975672,26.1081955 C17.7450778,26.8344227 18.4397724,27.4596045 18.8717724,27.8236045 C18.88081,28.4984227 18.8904502,29.1507864 18.9018979,29.7759682 C18.5048435,29.3641045 17.869195,28.7395136 17.1383498,28.0528773 C15.8785004,26.8663318 14.8174795,25.94215 14.7692787,25.9870591 C14.7204753,26.03315 15.7031699,27.0317864 16.9618142,28.2183318 C17.7577305,28.9670136 18.4729105,29.6111045 18.9049105,29.97215 C18.9157556,30.5341045 18.9266008,31.0747864 18.938651,31.5882864 C18.6030527,31.2361045 18.0824837,30.7226045 17.4859983,30.1618318 C16.4177473,29.1561045 15.5121741,28.3784682 15.4639732,28.4245591 C15.4157724,28.4694682 16.2412117,29.3215591 17.3106678,30.3266955 C17.9722243,30.9501045 18.5717222,31.48665 18.9440736,31.7933318 C18.9591364,32.4397864 18.9760067,33.0448773 18.9946845,33.6009227 C18.6898142,33.2765136 18.2041908,32.7966955 17.6468686,32.2701955 C16.6671866,31.3477864 15.8333121,30.6381045 15.7851113,30.6841955 C15.7363079,30.7308773 16.4912536,31.5144227 17.4703331,32.4362409 C18.0957389,33.0247864 18.6614962,33.5270591 19.0007096,33.8018318 C19.0181824,34.29465 19.0356552,34.7502409 19.0543331,35.1615136 C18.8627347,34.9523318 18.5885925,34.6751955 18.2746845,34.3797409 C17.641446,33.7841045 17.0895464,33.33915 17.0407431,33.3840591 C16.9919397,33.43015 17.465513,33.9495591 18.0975464,34.5451955 C18.4813456,34.9050591 18.8344167,35.21115 19.0645757,35.3848773 C19.108559,36.3037409 19.1573623,36.9838773 19.2085757,37.3774227 C19.2417138,37.6297409 19.2760569,37.7650591 19.3122075,37.7650591 C19.3471531,37.7650591 19.3814962,37.6297409 19.4152368,37.3774227 C19.4670527,36.9815136 19.5152536,36.2978318 19.5598393,35.3724682" id="Fill-82" fill="#FEFEFE" mask="url(#mask-2)"></path>
                </g>
            </g>
        </g>
    </g>
</svg>